NotoSans-ExtraBoldItalic.ufo
<glyph name="exclam" format="2">
  <advance width="623"/>
  <unicode hex="0021"/>
  <outline>
    <contour>
      <point x="125" y="516" type="line"/>
      <point x="453" y="516" type="line"/>
      <point x="707" y="1462" type="line"/>
      <point x="281" y="1462" type="line"/>
    </contour>
    <contour>
      <point x="199" y="-25" type="curve" smooth="yes"/>
      <point x="338" y="-25"/>
      <point x="436" y="51"/>
      <point x="436" y="205" type="curve" smooth="yes"/>
      <point x="436" y="303"/>
      <point x="371" y="360"/>
      <point x="256" y="360" type="curve" smooth="yes"/>
      <point x="92" y="360"/>
      <point x="12" y="258"/>
      <point x="12" y="127" type="curve" smooth="yes"/>
      <point x="12" y="49"/>
      <point x="57" y="-25"/>
    </contour>
  </outline>
</glyph>
<glyph name="numbersign" format="2">
  <advance width="1323"/>
  <unicode hex="0023"/>
  <outline>
    <contour>
      <point x="121" y="0" type="line"/>
      <point x="391" y="0" type="line"/>
      <point x="504" y="393" type="line"/>
      <point x="672" y="393" type="line"/>
      <point x="559" y="0" type="line"/>
      <point x="829" y="0" type="line"/>
      <point x="940" y="393" type="line"/>
      <point x="1233" y="393" type="line"/>
      <point x="1253" y="631" type="line"/>
      <point x="1010" y="631" type="line"/>
      <point x="1067" y="831" type="line"/>
      <point x="1337" y="831" type="line"/>
      <point x="1358" y="1073" type="line"/>
      <point x="1137" y="1073" type="line"/>
      <point x="1247" y="1462" type="line"/>
      <point x="977" y="1462" type="line"/>
      <point x="866" y="1073" type="line"/>
      <point x="698" y="1073" type="line"/>
      <point x="809" y="1462" type="line"/>
      <point x="539" y="1462" type="line"/>
      <point x="428" y="1073" type="line"/>
      <point x="143" y="1073" type="line"/>
      <point x="123" y="831" type="line"/>
      <point x="358" y="831" type="line"/>
      <point x="301" y="631" type="line"/>
      <point x="35" y="631" type="line"/>
      <point x="14" y="393" type="line"/>
      <point x="233" y="393" type="line"/>
    </contour>
    <contour>
      <point x="571" y="631" type="line"/>
      <point x="629" y="831" type="line"/>
      <point x="797" y="831" type="line"/>
      <point x="739" y="631" type="line"/>
    </contour>
  </outline>
</glyph>
<glyph name="zero" format="2">
  <advance width="1188"/>
  <unicode hex="0030"/>
  <outline>
    <contour>
      <point x="489" y="-20" type="curve" smooth="yes"/>
      <point x="940" y="-20"/>
      <point x="1157" y="453"/>
      <point x="1157" y="983" type="curve" smooth="yes"/>
      <point x="1157" y="1233"/>
      <point x="1044" y="1485"/>
      <point x="731" y="1485" type="curve" smooth="yes"/>
      <point x="262" y="1485"/>
      <point x="63" y="961"/>
      <point x="63" y="465" type="curve" smooth="yes"/>
      <point x="63" y="141"/>
      <point x="221" y="-20"/>
    </contour>
    <contour>
      <point x="528" y="295" type="curve" smooth="yes"/>
      <point x="469" y="295"/>
      <point x="453" y="346"/>
      <point x="453" y="457" type="curve" smooth="yes"/>
      <point x="453" y="752"/>
      <point x="565" y="1169"/>
      <point x="686" y="1169" type="curve" smooth="yes"/>
      <point x="745" y="1169"/>
      <point x="768" y="1104"/>
      <point x="768" y="991" type="curve" smooth="yes"/>
      <point x="768" y="707"/>
      <point x="666" y="295"/>
    </contour>
  </outline>
</glyph>
<glyph name="one" format="2">
  <advance width="1188"/>
  <unicode hex="0031"/>
  <outline>
    <contour>
      <point x="385" y="0" type="line"/>
      <point x="774" y="0" type="line"/>
      <point x="1081" y="1462" type="line"/>
      <point x="770" y="1462" type="line"/>
      <point x="150" y="1079" type="line"/>
      <point x="301" y="827" type="line"/>
      <point x="504" y="952" type="line" smooth="yes"/>
      <point x="537" y="973"/>
      <point x="596" y="1020"/>
      <point x="635" y="1055" type="curve"/>
      <point x="608" y="987"/>
      <point x="575" y="874"/>
      <point x="559" y="799" type="curve" smooth="yes"/>
    </contour>
  </outline>
</glyph>
<glyph name="three" format="2">
  <advance width="1188"/>
  <unicode hex="0033"/>
  <outline>
    <contour>
      <point x="399" y="-20" type="curve" smooth="yes"/>
      <point x="758" y="-20"/>
      <point x="1059" y="113"/>
      <point x="1059" y="430" type="curve" smooth="yes"/>
      <point x="1059" y="590"/>
      <point x="965" y="719"/>
      <point x="784" y="754" type="curve"/>
      <point x="784" y="762" type="line"/>
      <point x="983" y="803"/>
      <point x="1126" y="922"/>
      <point x="1126" y="1137" type="curve" smooth="yes"/>
      <point x="1126" y="1354"/>
      <point x="946" y="1483"/>
      <point x="684" y="1483" type="curve" smooth="yes"/>
      <point x="459" y="1483"/>
      <point x="324" y="1425"/>
      <point x="182" y="1335" type="curve"/>
      <point x="340" y="1087" type="line"/>
      <point x="432" y="1137"/>
      <point x="520" y="1171"/>
      <point x="610" y="1171" type="curve" smooth="yes"/>
      <point x="711" y="1171"/>
      <point x="745" y="1116"/>
      <point x="745" y="1069" type="curve" smooth="yes"/>
      <point x="745" y="958"/>
      <point x="625" y="895"/>
      <point x="434" y="895" type="curve" smooth="yes"/>
      <point x="356" y="895" type="line"/>
      <point x="303" y="604" type="line"/>
      <point x="387" y="604" type="line" smooth="yes"/>
      <point x="621" y="604"/>
      <point x="666" y="557"/>
      <point x="666" y="471" type="curve" smooth="yes"/>
      <point x="666" y="340"/>
      <point x="549" y="291"/>
      <point x="391" y="291" type="curve" smooth="yes"/>
      <point x="262" y="291"/>
      <point x="133" y="319"/>
      <point x="14" y="391" type="curve"/>
      <point x="14" y="59" type="line"/>
      <point x="102" y="8"/>
      <point x="254" y="-20"/>
    </contour>
  </outline>
</glyph>
<glyph name="five" format="2">
  <advance width="1188"/>
  <unicode hex="0035"/>
  <outline>
    <contour>
      <point x="434" y="-20" type="curve" smooth="yes"/>
      <point x="815" y="-20"/>
      <point x="1061" y="156"/>
      <point x="1061" y="524" type="curve" smooth="yes"/>
      <point x="1061" y="805"/>
      <point x="881" y="958"/>
      <point x="655" y="958" type="curve" smooth="yes"/>
      <point x="639" y="958"/>
      <point x="614" y="958"/>
      <point x="580" y="954" type="curve"/>
      <point x="639" y="1139" type="line"/>
      <point x="1110" y="1139" type="line"/>
      <point x="1178" y="1462" type="line"/>
      <point x="365" y="1462" type="line"/>
      <point x="150" y="713" type="line"/>
      <point x="272" y="621" type="line"/>
      <point x="322" y="639"/>
      <point x="406" y="653"/>
      <point x="475" y="653" type="curve" smooth="yes"/>
      <point x="600" y="653"/>
      <point x="662" y="575"/>
      <point x="662" y="483" type="curve" smooth="yes"/>
      <point x="662" y="348"/>
      <point x="561" y="291"/>
      <point x="385" y="291" type="curve" smooth="yes"/>
      <point x="270" y="291"/>
      <point x="119" y="330"/>
      <point x="20" y="387" type="curve"/>
      <point x="20" y="63" type="line"/>
      <point x="98" y="6"/>
      <point x="285" y="-20"/>
    </contour>
  </outline>
</glyph>
<glyph name="eight" format="2">
  <advance width="1188"/>
  <unicode hex="0038"/>
  <outline>
    <contour>
      <point x="537" y="-20" type="curve" smooth="yes"/>
      <point x="864" y="-20"/>
      <point x="1065" y="143"/>
      <point x="1065" y="420" type="curve" smooth="yes"/>
      <point x="1065" y="575"/>
      <point x="999" y="688"/>
      <point x="877" y="782" type="curve"/>
      <point x="1059" y="842"/>
      <point x="1157" y="995"/>
      <point x="1157" y="1151" type="curve" smooth="yes"/>
      <point x="1157" y="1341"/>
      <point x="1004" y="1485"/>
      <point x="725" y="1485" type="curve" smooth="yes"/>
      <point x="395" y="1485"/>
      <point x="225" y="1290"/>
      <point x="225" y="1065" type="curve" smooth="yes"/>
      <point x="225" y="907"/>
      <point x="299" y="821"/>
      <point x="381" y="756" type="curve"/>
      <point x="166" y="680"/>
      <point x="49" y="541"/>
      <point x="49" y="338" type="curve" smooth="yes"/>
      <point x="49" y="141"/>
      <point x="217" y="-20"/>
    </contour>
    <contour>
      <point x="547" y="262" type="curve" smooth="yes"/>
      <point x="481" y="262"/>
      <point x="414" y="303"/>
      <point x="414" y="385" type="curve" smooth="yes"/>
      <point x="414" y="483"/>
      <point x="487" y="557"/>
      <point x="584" y="608" type="curve"/>
      <point x="657" y="559"/>
      <point x="702" y="494"/>
      <point x="702" y="414" type="curve" smooth="yes"/>
      <point x="702" y="317"/>
      <point x="633" y="262"/>
    </contour>
    <contour>
      <point x="674" y="930" type="curve"/>
      <point x="623" y="954"/>
      <point x="588" y="1012"/>
      <point x="588" y="1065" type="curve" smooth="yes"/>
      <point x="588" y="1143"/>
      <point x="643" y="1202"/>
      <point x="707" y="1202" type="curve" smooth="yes"/>
      <point x="756" y="1202"/>
      <point x="801" y="1169"/>
      <point x="801" y="1104" type="curve" smooth="yes"/>
      <point x="801" y="1040"/>
      <point x="760" y="963"/>
    </contour>
  </outline>
</glyph>
<glyph name="semicolon" format="2">
  <advance width="627"/>
  <unicode hex="003B"/>
  <outline>
    <contour>
      <point x="-117" y="-264" type="curve"/>
      <point x="172" y="-264" type="line"/>
      <point x="268" y="-115"/>
      <point x="365" y="70"/>
      <point x="428" y="215" type="curve"/>
      <point x="420" y="238" type="line"/>
      <point x="72" y="238" type="line"/>
      <point x="20" y="96"/>
      <point x="-45" y="-102"/>
    </contour>
    <contour>
      <point x="369" y="762" type="curve" smooth="yes"/>
      <point x="520" y="762"/>
      <point x="618" y="815"/>
      <point x="618" y="993" type="curve" smooth="yes"/>
      <point x="618" y="1098"/>
      <point x="545" y="1147"/>
      <point x="436" y="1147" type="curve" smooth="yes"/>
      <point x="305" y="1147"/>
      <point x="195" y="1077"/>
      <point x="195" y="915" type="curve" smooth="yes"/>
      <point x="195" y="811"/>
      <point x="264" y="762"/>
    </contour>
  </outline>
</glyph>
<glyph name="H" format="2">
  <advance width="1462"/>
  <unicode hex="0048"/>
  <anchor x="608" y="0" name="bottom"/>
  <anchor x="817" y="731" name="center"/>
  <anchor x="901" y="1462" name="top"/>
  <anchor x="1612" y="1462" name="topright"/>
  <outline>
    <contour>
      <point x="33" y="0" type="line"/>
      <point x="424" y="0" type="line"/>
      <point x="551" y="596" type="line"/>
      <point x="897" y="596" type="line"/>
      <point x="772" y="0" type="line"/>
      <point x="1163" y="0" type="line"/>
      <point x="1473" y="1462" type="line"/>
      <point x="1081" y="1462" type="line"/>
      <point x="969" y="920" type="line"/>
      <point x="621" y="920" type="line"/>
      <point x="733" y="1462" type="line"/>
      <point x="342" y="1462" type="line"/>
    </contour>
  </outline>
</glyph>
<glyph name="L" format="2">
  <advance width="1079"/>
  <unicode hex="004C"/>
  <anchor x="479" y="0" name="bottom"/>
  <anchor x="627" y="731" name="center"/>
  <anchor x="590" y="1462" name="top"/>
  <anchor x="1044" y="1462" name="topright"/>
  <outline>
    <contour>
      <point x="33" y="0" type="line"/>
      <point x="901" y="0" type="line"/>
      <point x="969" y="319" type="line"/>
      <point x="492" y="319" type="line"/>
      <point x="733" y="1462" type="line"/>
      <point x="342" y="1462" type="line"/>
    </contour>
  </outline>
</glyph>
<glyph name="T" format="2">
  <advance width="1130"/>
  <unicode hex="0054"/>
  <anchor x="444" y="0" name="bottom"/>
  <anchor x="651" y="731" name="center"/>
  <anchor x="756" y="1462" name="top"/>
  <anchor x="1280" y="1462" name="topright"/>
  <outline>
    <contour>
      <point x="236" y="0" type="line"/>
      <point x="627" y="0" type="line"/>
      <point x="864" y="1139" type="line"/>
      <point x="1182" y="1139" type="line"/>
      <point x="1253" y="1462" type="line"/>
      <point x="225" y="1462" type="line"/>
      <point x="156" y="1139" type="line"/>
      <point x="473" y="1139" type="line"/>
    </contour>
  </outline>
</glyph>
<glyph name="asciicircum" format="2">
  <advance width="1096"/>
  <unicode hex="005E"/>
  <outline>
    <contour>
      <point x="-6" y="502" type="line"/>
      <point x="291" y="502" type="line"/>
      <point x="651" y="1071" type="line"/>
      <point x="807" y="502" type="line"/>
      <point x="1081" y="502" type="line"/>
      <point x="797" y="1462" type="line"/>
      <point x="625" y="1462" type="line"/>
    </contour>
  </outline>
</glyph>
<glyph name="a" format="2">
  <advance width="1243"/>
  <unicode hex="0061"/>
  <anchor x="502" y="0" name="bottom"/>
  <anchor x="743" y="1133" name="top"/>
  <anchor x="1323" y="1133" name="topright"/>
  <outline>
    <contour>
      <point x="406" y="-20" type="curve" smooth="yes"/>
      <point x="539" y="-20"/>
      <point x="614" y="39"/>
      <point x="674" y="123" type="curve"/>
      <point x="682" y="123" type="line"/>
      <point x="672" y="0" type="line"/>
      <point x="981" y="0" type="line"/>
      <point x="1221" y="1133" type="line"/>
      <point x="911" y="1133" type="line"/>
      <point x="858" y="993" type="line"/>
      <point x="850" y="993" type="line"/>
      <point x="795" y="1090"/>
      <point x="717" y="1153"/>
      <point x="588" y="1153" type="curve" smooth="yes"/>
      <point x="244" y="1153"/>
      <point x="84" y="688"/>
      <point x="84" y="412" type="curve" smooth="yes"/>
      <point x="84" y="90"/>
      <point x="231" y="-20"/>
    </contour>
    <contour>
      <point x="565" y="291" type="curve" smooth="yes"/>
      <point x="508" y="291"/>
      <point x="479" y="342"/>
      <point x="479" y="434" type="curve" smooth="yes"/>
      <point x="479" y="629"/>
      <point x="571" y="842"/>
      <point x="678" y="842" type="curve" smooth="yes"/>
      <point x="733" y="842"/>
      <point x="760" y="784"/>
      <point x="760" y="698" type="curve" smooth="yes"/>
      <point x="760" y="657"/>
      <point x="756" y="614"/>
      <point x="748" y="573" type="curve" smooth="yes"/>
      <point x="723" y="428"/>
      <point x="653" y="291"/>
    </contour>
  </outline>
</glyph>
<glyph name="e" format="2">
  <advance width="1186"/>
  <unicode hex="0065"/>
  <anchor x="532" y="0" name="bottom"/>
  <anchor x="721" y="1133" name="top"/>
  <anchor x="1266" y="1133" name="topright"/>
  <outline>
    <contour>
      <point x="532" y="-20" type="curve" smooth="yes"/>
      <point x="729" y="-20"/>
      <point x="844" y="20"/>
      <point x="965" y="82" type="curve"/>
      <point x="965" y="356" type="line"/>
      <point x="848" y="295"/>
      <point x="752" y="258"/>
      <point x="637" y="258" type="curve" smooth="yes"/>
      <point x="528" y="258"/>
      <point x="473" y="305"/>
      <point x="473" y="406" type="curve" smooth="yes"/>
      <point x="473" y="412"/>
      <point x="473" y="416"/>
      <point x="473" y="422" type="curve"/>
      <point x="532" y="422" type="line" smooth="yes"/>
      <point x="954" y="422"/>
      <point x="1141" y="588"/>
      <point x="1141" y="838" type="curve" smooth="yes"/>
      <point x="1141" y="1028"/>
      <point x="987" y="1153"/>
      <point x="733" y="1153" type="curve" smooth="yes"/>
      <point x="293" y="1153"/>
      <point x="84" y="799"/>
      <point x="84" y="428" type="curve" smooth="yes"/>
      <point x="84" y="150"/>
      <point x="246" y="-20"/>
    </contour>
    <contour>
      <point x="512" y="664" type="line"/>
      <point x="526" y="768"/>
      <point x="600" y="891"/>
      <point x="690" y="891" type="curve" smooth="yes"/>
      <point x="748" y="891"/>
      <point x="774" y="858"/>
      <point x="774" y="815" type="curve" smooth="yes"/>
      <point x="774" y="745"/>
      <point x="715" y="664"/>
      <point x="541" y="664" type="curve" smooth="yes"/>
    </contour>
  </outline>
</glyph>
<glyph name="j" format="2">
  <advance width="666"/>
  <unicode hex="006A"/>
  <anchor x="-57" y="-492" name="bottom"/>
  <anchor x="553" y="1591" name="top"/>
  <anchor x="844" y="1591" name="topright"/>
  <outline>
    <contour>
      <point x="-57" y="-492" type="curve" smooth="yes"/>
      <point x="229" y="-492"/>
      <point x="354" y="-299"/>
      <point x="397" y="-94" type="curve" smooth="yes"/>
      <point x="657" y="1133" type="line"/>
      <point x="270" y="1133" type="line"/>
      <point x="23" y="-33" type="line" smooth="yes"/>
      <point x="0" y="-139"/>
      <point x="-70" y="-180"/>
      <point x="-152" y="-180" type="curve" smooth="yes"/>
      <point x="-186" y="-180"/>
      <point x="-215" y="-178"/>
      <point x="-264" y="-162" type="curve"/>
      <point x="-264" y="-465" type="line"/>
      <point x="-217" y="-479"/>
      <point x="-129" y="-492"/>
    </contour>
    <contour>
      <point x="508" y="1241" type="curve" smooth="yes"/>
      <point x="662" y="1241"/>
      <point x="733" y="1325"/>
      <point x="733" y="1450" type="curve" smooth="yes"/>
      <point x="733" y="1554"/>
      <point x="645" y="1591"/>
      <point x="543" y="1591" type="curve" smooth="yes"/>
      <point x="401" y="1591"/>
      <point x="317" y="1518"/>
      <point x="317" y="1382" type="curve" smooth="yes"/>
      <point x="317" y="1278"/>
      <point x="399" y="1241"/>
    </contour>
  </outline>
</glyph>
<glyph name="k" format="2">
  <advance width="1264"/>
  <unicode hex="006B"/>
  <anchor x="537" y="0" name="bottom"/>
  <anchor x="535" y="1556" name="top"/>
  <anchor x="1434" y="1556" name="topright"/>
  <outline>
    <contour>
      <point x="23" y="0" type="line"/>
      <point x="410" y="0" type="line"/>
      <point x="479" y="338" type="line"/>
      <point x="580" y="391" type="line"/>
      <point x="719" y="0" type="line"/>
      <point x="1157" y="0" type="line"/>
      <point x="883" y="621" type="line"/>
      <point x="1374" y="1133" type="line"/>
      <point x="932" y="1133" type="line"/>
      <point x="541" y="668" type="line"/>
      <point x="532" y="668" type="line"/>
      <point x="549" y="713"/>
      <point x="580" y="819"/>
      <point x="596" y="893" type="curve" smooth="yes"/>
      <point x="735" y="1556" type="line"/>
      <point x="348" y="1556" type="line"/>
    </contour>
  </outline>
</glyph>
<glyph name="p" format="2">
  <advance width="1243"/>
  <unicode hex="0070"/>
  <anchor x="397" y="-492" name="bottom"/>
  <anchor x="743" y="1133" name="top"/>
  <anchor x="1323" y="1133" name="topright"/>
  <outline>
    <contour>
      <point x="-82" y="-492" type="line"/>
      <point x="305" y="-492" type="line"/>
      <point x="356" y="-246" type="line" smooth="yes"/>
      <point x="393" y="-70"/>
      <point x="403" y="18"/>
      <point x="412" y="125" type="curve"/>
      <point x="420" y="125" type="line"/>
      <point x="473" y="37"/>
      <point x="549" y="-20"/>
      <point x="651" y="-20" type="curve" smooth="yes"/>
      <point x="963" y="-20"/>
      <point x="1159" y="360"/>
      <point x="1159" y="735" type="curve" smooth="yes"/>
      <point x="1159" y="1001"/>
      <point x="1028" y="1153"/>
      <point x="825" y="1153" type="curve" smooth="yes"/>
      <point x="711" y="1153"/>
      <point x="629" y="1102"/>
      <point x="567" y="1006" type="curve"/>
      <point x="559" y="1006" type="line"/>
      <point x="571" y="1133" type="line"/>
      <point x="262" y="1133" type="line"/>
    </contour>
    <contour>
      <point x="573" y="291" type="curve" smooth="yes"/>
      <point x="518" y="291"/>
      <point x="485" y="348"/>
      <point x="485" y="434" type="curve" smooth="yes"/>
      <point x="485" y="608"/>
      <point x="559" y="842"/>
      <point x="678" y="842" type="curve" smooth="yes"/>
      <point x="735" y="842"/>
      <point x="764" y="791"/>
      <point x="764" y="698" type="curve" smooth="yes"/>
      <point x="764" y="504"/>
      <point x="680" y="291"/>
    </contour>
  </outline>
</glyph>
<glyph name="v" format="2">
  <advance width="1114"/>
  <unicode hex="0076"/>
  <anchor x="434" y="0" name="bottom"/>
  <anchor x="645" y="1133" name="top"/>
  <anchor x="1194" y="1133" name="topright"/>
  <outline>
    <contour>
      <point x="233" y="0" type="line"/>
      <point x="621" y="0" type="line"/>
      <point x="1233" y="1133" type="line"/>
      <point x="819" y="1133" type="line"/>
      <point x="551" y="547" type="line" smooth="yes"/>
      <point x="535" y="512"/>
      <point x="510" y="451"/>
      <point x="500" y="412" type="curve"/>
      <point x="492" y="412" type="line"/>
      <point x="496" y="455"/>
      <point x="496" y="510"/>
      <point x="494" y="563" type="curve" smooth="yes"/>
      <point x="473" y="1133" type="line"/>
      <point x="88" y="1133" type="line"/>
    </contour>
  </outline>
</glyph>
<glyph name="z" format="2">
  <advance width="993"/>
  <unicode hex="007A"/>
  <anchor x="391" y="0" name="bottom"/>
  <anchor x="621" y="1133" name="top"/>
  <anchor x="1073" y="1133" name="topright"/>
  <outline>
    <contour>
      <point x="-41" y="0" type="line"/>
      <point x="803" y="0" type="line"/>
      <point x="868" y="299" type="line"/>
      <point x="485" y="299" type="line"/>
      <point x="981" y="891" type="line"/>
      <point x="1034" y="1133" type="line"/>
      <point x="223" y="1133" type="line"/>
      <point x="156" y="834" type="line"/>
      <point x="504" y="834" type="line"/>
      <point x="2" y="221" type="line"/>
    </contour>
  </outline>
</glyph>
<glyph name="braceleft" format="2">
  <advance width="735"/>
  <unicode hex="007B"/>
  <outline>
    <contour>
      <point x="463" y="-324" type="curve" smooth="yes"/>
      <point x="545" y="-324" type="line"/>
      <point x="545" y="-43" type="line"/>
      <point x="473" y="-43"/>
      <point x="432" y="-18"/>
      <point x="432" y="45" type="curve" smooth="yes"/>
      <point x="432" y="59"/>
      <point x="434" y="74"/>
      <point x="438" y="94" type="curve" smooth="yes"/>
      <point x="473" y="258" type="line" smooth="yes"/>
      <point x="477" y="281"/>
      <point x="483" y="307"/>
      <point x="483" y="332" type="curve" smooth="yes"/>
      <point x="483" y="449"/>
      <point x="432" y="526"/>
      <point x="313" y="565" type="curve"/>
      <point x="313" y="573" type="line"/>
      <point x="451" y="588"/>
      <point x="559" y="641"/>
      <point x="592" y="795" type="curve" smooth="yes"/>
      <point x="645" y="1053" type="line" smooth="yes"/>
      <point x="668" y="1155"/>
      <point x="723" y="1180"/>
      <point x="821" y="1182" type="curve"/>
      <point x="883" y="1462" type="line"/>
      <point x="754" y="1462" type="line" smooth="yes"/>
      <point x="481" y="1462"/>
      <point x="389" y="1339"/>
      <point x="344" y="1139" type="curve" smooth="yes"/>
      <point x="289" y="893" type="line" smooth="yes"/>
      <point x="262" y="770"/>
      <point x="201" y="721"/>
      <point x="37" y="721" type="curve"/>
      <point x="-16" y="434" type="line"/>
      <point x="121" y="434"/>
      <point x="160" y="385"/>
      <point x="160" y="297" type="curve" smooth="yes"/>
      <point x="160" y="285"/>
      <point x="158" y="270"/>
      <point x="154" y="254" type="curve" smooth="yes"/>
      <point x="117" y="80" type="line" smooth="yes"/>
      <point x="106" y="35"/>
      <point x="102" y="-4"/>
      <point x="102" y="-47" type="curve" smooth="yes"/>
      <point x="102" y="-219"/>
      <point x="201" y="-324"/>
    </contour>
  </outline>
</glyph>
<glyph name="bar" format="2">
  <advance width="1159"/>
  <unicode hex="007C"/>
  <outline>
    <contour>
      <point x="442" y="-465" type="line"/>
      <point x="713" y="-465" type="line"/>
      <point x="713" y="1548" type="line"/>
      <point x="442" y="1548" type="line"/>
    </contour>
  </outline>
</glyph>
<glyph name="twosuperior" format="2">
  <advance width="848"/>
  <unicode hex="00B2"/>
  <outline>
    <contour>
      <point x="125" y="850" type="line"/>
      <point x="829" y="850" type="line"/>
      <point x="881" y="1106" type="line"/>
      <point x="561" y="1106" type="line"/>
      <point x="639" y="1155" type="line" smooth="yes"/>
      <point x="846" y="1288"/>
      <point x="946" y="1384"/>
      <point x="946" y="1532" type="curve" smooth="yes"/>
      <point x="946" y="1665"/>
      <point x="813" y="1749"/>
      <point x="643" y="1749" type="curve" smooth="yes"/>
      <point x="465" y="1749"/>
      <point x="362" y="1708"/>
      <point x="254" y="1626" type="curve"/>
      <point x="373" y="1436" type="line"/>
      <point x="444" y="1493"/>
      <point x="514" y="1516"/>
      <point x="561" y="1516" type="curve" smooth="yes"/>
      <point x="596" y="1516"/>
      <point x="625" y="1501"/>
      <point x="625" y="1464" type="curve" smooth="yes"/>
      <point x="625" y="1417"/>
      <point x="580" y="1368"/>
      <point x="444" y="1266" type="curve" smooth="yes"/>
      <point x="168" y="1055" type="line"/>
    </contour>
  </outline>
</glyph>
<glyph name="Oslash" format="2">
  <advance width="1509"/>
  <unicode hex="00D8"/>
  <anchor x="635" y="0" name="bottom"/>
  <anchor x="946" y="1462" name="top"/>
  <outline>
    <contour>
      <point x="254" y="-86" type="line"/>
      <point x="360" y="49" type="line"/>
      <point x="446" y="4"/>
      <point x="553" y="-20"/>
      <point x="684" y="-20" type="curve" smooth="yes"/>
      <point x="1196" y="-18"/>
      <point x="1446" y="467"/>
      <point x="1446" y="922" type="curve" smooth="yes"/>
      <point x="1446" y="1065"/>
      <point x="1411" y="1190"/>
      <point x="1343" y="1284" type="curve"/>
      <point x="1442" y="1409" type="line"/>
      <point x="1286" y="1528" type="line"/>
      <point x="1194" y="1413" type="line"/>
      <point x="1110" y="1458"/>
      <point x="1006" y="1485"/>
      <point x="879" y="1485" type="curve" smooth="yes"/>
      <point x="354" y="1485"/>
      <point x="104" y="997"/>
      <point x="104" y="543" type="curve" smooth="yes"/>
      <point x="104" y="395"/>
      <point x="139" y="270"/>
      <point x="211" y="176" type="curve"/>
      <point x="94" y="31" type="line"/>
    </contour>
    <contour>
      <point x="700" y="303" type="curve" smooth="yes"/>
      <point x="653" y="303"/>
      <point x="616" y="313"/>
      <point x="586" y="332" type="curve"/>
      <point x="1049" y="915" type="line"/>
      <point x="1049" y="901"/>
      <point x="1049" y="887"/>
      <point x="1049" y="870" type="curve" smooth="yes"/>
      <point x="1049" y="557"/>
      <point x="903" y="303"/>
    </contour>
    <contour>
      <point x="502" y="539" type="line"/>
      <point x="502" y="555"/>
      <point x="502" y="573"/>
      <point x="502" y="588" type="curve" smooth="yes"/>
      <point x="502" y="891"/>
      <point x="649" y="1161"/>
      <point x="852" y="1161" type="curve" smooth="yes"/>
      <point x="899" y="1161"/>
      <point x="938" y="1149"/>
      <point x="967" y="1128" type="curve"/>
    </contour>
  </outline>
</glyph>
<glyph name="ae" format="2">
  <advance width="1788"/>
  <unicode hex="00E6"/>
  <anchor x="774" y="0" name="bottom"/>
  <anchor x="1016" y="1133" name="top"/>
  <outline>
    <contour>
      <point x="406" y="-20" type="curve" smooth="yes"/>
      <point x="539" y="-20"/>
      <point x="614" y="39"/>
      <point x="674" y="123" type="curve"/>
      <point x="682" y="123" type="line"/>
      <point x="672" y="0" type="line"/>
      <point x="899" y="0" type="line"/>
      <point x="930" y="92" type="line"/>
      <point x="985" y="18"/>
      <point x="1071" y="-20"/>
      <point x="1192" y="-20" type="curve" smooth="yes"/>
      <point x="1364" y="-20"/>
      <point x="1462" y="20"/>
      <point x="1567" y="82" type="curve"/>
      <point x="1567" y="356" type="line"/>
      <point x="1450" y="295"/>
      <point x="1354" y="258"/>
      <point x="1239" y="258" type="curve" smooth="yes"/>
      <point x="1130" y="258"/>
      <point x="1075" y="305"/>
      <point x="1075" y="406" type="curve" smooth="yes"/>
      <point x="1075" y="412"/>
      <point x="1075" y="416"/>
      <point x="1075" y="422" type="curve"/>
      <point x="1135" y="422" type="line" smooth="yes"/>
      <point x="1556" y="422"/>
      <point x="1743" y="588"/>
      <point x="1743" y="838" type="curve" smooth="yes"/>
      <point x="1743" y="1028"/>
      <point x="1606" y="1153"/>
      <point x="1397" y="1153" type="curve" smooth="yes"/>
      <point x="1284" y="1153"/>
      <point x="1182" y="1100"/>
      <point x="1118" y="1038" type="curve"/>
      <point x="1118" y="1133" type="line"/>
      <point x="911" y="1133" type="line"/>
      <point x="858" y="993" type="line"/>
      <point x="850" y="993" type="line"/>
      <point x="788" y="1098"/>
      <point x="717" y="1153"/>
      <point x="588" y="1153" type="curve" smooth="yes"/>
      <point x="244" y="1153"/>
      <point x="84" y="688"/>
      <point x="84" y="412" type="curve" smooth="yes"/>
      <point x="84" y="90"/>
      <point x="231" y="-20"/>
    </contour>
    <contour>
      <point x="565" y="291" type="curve" smooth="yes"/>
      <point x="508" y="291"/>
      <point x="479" y="342"/>
      <point x="479" y="434" type="curve" smooth="yes"/>
      <point x="479" y="629"/>
      <point x="563" y="842"/>
      <point x="670" y="842" type="curve" smooth="yes"/>
      <point x="725" y="842"/>
      <point x="758" y="784"/>
      <point x="758" y="698" type="curve" smooth="yes"/>
      <point x="758" y="657"/>
      <point x="756" y="614"/>
      <point x="748" y="573" type="curve" smooth="yes"/>
      <point x="723" y="428"/>
      <point x="653" y="291"/>
    </contour>
    <contour>
      <point x="1114" y="664" type="line"/>
      <point x="1128" y="768"/>
      <point x="1202" y="891"/>
      <point x="1292" y="891" type="curve" smooth="yes"/>
      <point x="1350" y="891"/>
      <point x="1376" y="858"/>
      <point x="1376" y="815" type="curve" smooth="yes"/>
      <point x="1376" y="745"/>
      <point x="1317" y="664"/>
      <point x="1143" y="664" type="curve" smooth="yes"/>
    </contour>
  </outline>
</glyph>
<glyph name="oslash" format="2">
  <advance width="1286"/>
  <unicode hex="00F8"/>
  <anchor x="522" y="0" name="bottom"/>
  <anchor x="764" y="1133" name="top"/>
  <outline>
    <contour>
      <point x="193" y="-111" type="line"/>
      <point x="311" y="29" type="line"/>
      <point x="377" y="0"/>
      <point x="455" y="-20"/>
      <point x="549" y="-20" type="curve" smooth="yes"/>
      <point x="975" y="-20"/>
      <point x="1202" y="330"/>
      <point x="1202" y="717" type="curve" smooth="yes"/>
      <point x="1202" y="827"/>
      <point x="1171" y="915"/>
      <point x="1120" y="985" type="curve"/>
      <point x="1225" y="1108" type="line"/>
      <point x="1098" y="1217" type="line"/>
      <point x="993" y="1096" type="line"/>
      <point x="924" y="1130"/>
      <point x="844" y="1153"/>
      <point x="743" y="1153" type="curve" smooth="yes"/>
      <point x="311" y="1153"/>
      <point x="84" y="803"/>
      <point x="84" y="416" type="curve" smooth="yes"/>
      <point x="84" y="295"/>
      <point x="119" y="203"/>
      <point x="178" y="129" type="curve"/>
      <point x="66" y="-2" type="line"/>
    </contour>
    <contour>
      <point x="590" y="260" type="curve" smooth="yes"/>
      <point x="561" y="260"/>
      <point x="539" y="264"/>
      <point x="518" y="274" type="curve"/>
      <point x="836" y="649" type="line"/>
      <point x="836" y="635"/>
      <point x="834" y="621"/>
      <point x="834" y="606" type="curve" smooth="yes"/>
      <point x="811" y="360"/>
      <point x="707" y="260"/>
    </contour>
    <contour>
      <point x="449" y="451" type="line"/>
      <point x="449" y="465"/>
      <point x="449" y="477"/>
      <point x="451" y="489" type="curve" smooth="yes"/>
      <point x="467" y="733"/>
      <point x="582" y="877"/>
      <point x="702" y="877" type="curve" smooth="yes"/>
      <point x="735" y="877"/>
      <point x="762" y="866"/>
      <point x="784" y="848" type="curve"/>
    </contour>
  </outline>
</glyph>
<glyph name="thorn" format="2">
  <advance width="1243"/>
  <unicode hex="00FE"/>
  <anchor x="397" y="-492" name="bottom"/>
  <anchor x="834" y="1556" name="top"/>
  <outline>
    <contour>
      <point x="-82" y="-492" type="line"/>
      <point x="305" y="-492" type="line"/>
      <point x="356" y="-246" type="line" smooth="yes"/>
      <point x="393" y="-70"/>
      <point x="403" y="18"/>
      <point x="412" y="125" type="curve"/>
      <point x="420" y="125" type="line"/>
      <point x="473" y="37"/>
      <point x="549" y="-20"/>
      <point x="651" y="-20" type="curve" smooth="yes"/>
      <point x="963" y="-20"/>
      <point x="1159" y="360"/>
      <point x="1159" y="735" type="curve" smooth="yes"/>
      <point x="1159" y="1001"/>
      <point x="1032" y="1153"/>
      <point x="836" y="1153" type="curve" smooth="yes"/>
      <point x="731" y="1153"/>
      <point x="666" y="1102"/>
      <point x="608" y="1024" type="curve"/>
      <point x="600" y="1024" type="line"/>
      <point x="625" y="1081"/>
      <point x="666" y="1200"/>
      <point x="690" y="1325" type="curve" smooth="yes"/>
      <point x="739" y="1556" type="line"/>
      <point x="352" y="1556" type="line"/>
    </contour>
    <contour>
      <point x="573" y="291" type="curve" smooth="yes"/>
      <point x="518" y="291"/>
      <point x="485" y="348"/>
      <point x="485" y="434" type="curve" smooth="yes"/>
      <point x="485" y="475"/>
      <point x="487" y="518"/>
      <point x="496" y="559" type="curve" smooth="yes"/>
      <point x="520" y="705"/>
      <point x="590" y="842"/>
      <point x="678" y="842" type="curve" smooth="yes"/>
      <point x="735" y="842"/>
      <point x="764" y="791"/>
      <point x="764" y="698" type="curve" smooth="yes"/>
      <point x="764" y="504"/>
      <point x="680" y="291"/>
    </contour>
  </outline>
</glyph>
<glyph name="hbar" format="2">
  <advance width="1274"/>
  <unicode hex="0127"/>
  <anchor x="516" y="0" name="bottom"/>
  <anchor x="848" y="1556" name="top"/>
  <outline>
    <contour>
      <point x="23" y="0" type="line"/>
      <point x="410" y="0" type="line"/>
      <point x="506" y="451" type="line" smooth="yes"/>
      <point x="545" y="639"/>
      <point x="600" y="743"/>
      <point x="690" y="743" type="curve" smooth="yes"/>
      <point x="731" y="743"/>
      <point x="766" y="715"/>
      <point x="766" y="657" type="curve" smooth="yes"/>
      <point x="766" y="610"/>
      <point x="756" y="551"/>
      <point x="748" y="516" type="curve" smooth="yes"/>
      <point x="639" y="0" type="line"/>
      <point x="1026" y="0" type="line"/>
      <point x="1133" y="500" type="line" smooth="yes"/>
      <point x="1147" y="571"/>
      <point x="1157" y="653"/>
      <point x="1157" y="729" type="curve" smooth="yes"/>
      <point x="1157" y="903"/>
      <point x="1069" y="1051"/>
      <point x="858" y="1051" type="curve" smooth="yes"/>
      <point x="745" y="1051"/>
      <point x="655" y="1012"/>
      <point x="586" y="922" type="curve"/>
      <point x="578" y="922" type="line"/>
      <point x="602" y="981"/>
      <point x="635" y="1079"/>
      <point x="657" y="1167" type="curve"/>
      <point x="926" y="1167" type="line"/>
      <point x="977" y="1409" type="line"/>
      <point x="709" y="1409" type="line"/>
      <point x="739" y="1556" type="line"/>
      <point x="352" y="1556" type="line"/>
      <point x="319" y="1409" type="line"/>
      <point x="152" y="1409" type="line"/>
      <point x="100" y="1167" type="line"/>
      <point x="268" y="1167" type="line"/>
    </contour>
  </outline>
</glyph>
<glyph name="Lslash" format="2">
  <advance width="1100"/>
  <unicode hex="0141"/>
  <anchor x="430" y="0" name="bottom"/>
  <anchor x="741" y="1462" name="top"/>
  <outline>
    <contour>
      <point x="53" y="0" type="line"/>
      <point x="922" y="0" type="line"/>
      <point x="989" y="319" type="line"/>
      <point x="512" y="319" type="line"/>
      <point x="590" y="692" type="line"/>
      <point x="967" y="889" type="line"/>
      <point x="836" y="1133" type="line"/>
      <point x="664" y="1042" type="line"/>
      <point x="754" y="1462" type="line"/>
      <point x="362" y="1462" type="line"/>
      <point x="227" y="834" type="line"/>
      <point x="-47" y="688" type="line"/>
      <point x="78" y="446" type="line"/>
      <point x="156" y="485" type="line"/>
    </contour>
  </outline>
</glyph>
<glyph name="Eng" format="2">
  <advance width="1618"/>
  <unicode hex="014A"/>
  <anchor x="590" y="-461" name="bottom"/>
  <anchor x="999" y="1462" name="top"/>
  <outline>
    <contour>
      <point x="745" y="-461" type="curve" smooth="yes"/>
      <point x="1098" y="-461"/>
      <point x="1253" y="-311"/>
      <point x="1319" y="0" type="curve" smooth="yes"/>
      <point x="1628" y="1462" type="line"/>
      <point x="1280" y="1462" type="line"/>
      <point x="1169" y="944" type="line" smooth="yes"/>
      <point x="1147" y="842"/>
      <point x="1116" y="678"/>
      <point x="1106" y="590" type="curve"/>
      <point x="1098" y="590" type="line"/>
      <point x="772" y="1462" type="line"/>
      <point x="342" y="1462" type="line"/>
      <point x="33" y="0" type="line"/>
      <point x="381" y="0" type="line"/>
      <point x="510" y="610" type="line" smooth="yes"/>
      <point x="539" y="743"/>
      <point x="563" y="975"/>
      <point x="567" y="1028" type="curve"/>
      <point x="575" y="1028" type="line"/>
      <point x="961" y="8" type="line"/>
      <point x="928" y="-109"/>
      <point x="827" y="-150"/>
      <point x="723" y="-150" type="curve" smooth="yes"/>
      <point x="633" y="-150"/>
      <point x="582" y="-137"/>
      <point x="532" y="-125" type="curve"/>
      <point x="532" y="-432" type="line"/>
      <point x="596" y="-449"/>
      <point x="676" y="-461"/>
    </contour>
  </outline>
</glyph>
<glyph name="longs" format="2">
  <advance width="752"/>
  <unicode hex="017F"/>
  <anchor x="152" y="-492" name="bottom"/>
  <anchor x="590" y="1567" name="top"/>
  <outline>
    <contour>
      <point x="-37" y="-492" type="curve" smooth="yes"/>
      <point x="240" y="-492"/>
      <point x="362" y="-334"/>
      <point x="410" y="-117" type="curve" smooth="yes"/>
      <point x="682" y="1155" type="line" smooth="yes"/>
      <point x="696" y="1219"/>
      <point x="735" y="1255"/>
      <point x="786" y="1255" type="curve" smooth="yes"/>
      <point x="829" y="1255"/>
      <point x="868" y="1243"/>
      <point x="907" y="1225" type="curve"/>
      <point x="1014" y="1509" type="line"/>
      <point x="944" y="1544"/>
      <point x="838" y="1567"/>
      <point x="731" y="1567" type="curve" smooth="yes"/>
      <point x="502" y="1567"/>
      <point x="365" y="1458"/>
      <point x="309" y="1202" type="curve" smooth="yes"/>
      <point x="37" y="-55" type="line" smooth="yes"/>
      <point x="18" y="-141"/>
      <point x="-29" y="-180"/>
      <point x="-127" y="-180" type="curve" smooth="yes"/>
      <point x="-164" y="-180"/>
      <point x="-207" y="-172"/>
      <point x="-244" y="-162" type="curve"/>
      <point x="-244" y="-465" type="line"/>
      <point x="-197" y="-479"/>
      <point x="-109" y="-492"/>
    </contour>
  </outline>
</glyph>
<glyph name="uni0191" format="2">
  <advance width="1532"/>
  <unicode hex="0191"/>
  <anchor x="367" y="0" name="bottom"/>
  <anchor x="1161" y="1462" name="top"/>
  <anchor x="1702" y="1462" name="topright"/>
  <outline>
    <contour>
      <point x="426" y="-23" type="curve" smooth="yes"/>
      <point x="721" y="-23"/>
      <point x="858" y="131"/>
      <point x="909" y="379" type="curve" smooth="yes"/>
      <point x="954" y="598" type="line"/>
      <point x="1352" y="598" type="line"/>
      <point x="1421" y="918" type="line"/>
      <point x="1026" y="918" type="line"/>
      <point x="1073" y="1145" type="line"/>
      <point x="1503" y="1145" type="line"/>
      <point x="1571" y="1462" type="line"/>
      <point x="748" y="1462" type="line"/>
      <point x="518" y="369" type="line" smooth="yes"/>
      <point x="500" y="283"/>
      <point x="449" y="252"/>
      <point x="401" y="252" type="curve" smooth="yes"/>
      <point x="324" y="252"/>
      <point x="295" y="311"/>
      <point x="295" y="362" type="curve" smooth="yes"/>
      <point x="295" y="408"/>
      <point x="307" y="455"/>
      <point x="319" y="473" type="curve"/>
      <point x="31" y="578" type="line"/>
      <point x="6" y="535"/>
      <point x="-25" y="453"/>
      <point x="-25" y="369" type="curve" smooth="yes"/>
      <point x="-25" y="141"/>
      <point x="139" y="-23"/>
    </contour>
  </outline>
</glyph>
<glyph name="uni0196" format="2">
  <advance width="817"/>
  <unicode hex="0196"/>
  <anchor x="289" y="0" name="bottom"/>
  <anchor x="600" y="1462" name="top"/>
  <outline>
    <contour>
      <point x="403" y="-20" type="curve" smooth="yes"/>
      <point x="528" y="-20"/>
      <point x="629" y="-2"/>
      <point x="715" y="39" type="curve"/>
      <point x="715" y="324" type="line"/>
      <point x="653" y="299"/>
      <point x="592" y="291"/>
      <point x="545" y="291" type="curve" smooth="yes"/>
      <point x="512" y="291"/>
      <point x="492" y="311"/>
      <point x="492" y="342" type="curve" smooth="yes"/>
      <point x="492" y="362"/>
      <point x="496" y="387"/>
      <point x="504" y="426" type="curve" smooth="yes"/>
      <point x="727" y="1462" type="line"/>
      <point x="340" y="1462" type="line"/>
      <point x="106" y="387" type="line" smooth="yes"/>
      <point x="96" y="340"/>
      <point x="86" y="276"/>
      <point x="86" y="242" type="curve" smooth="yes"/>
      <point x="86" y="35"/>
      <point x="203" y="-20"/>
    </contour>
  </outline>
</glyph>
<glyph name="uni01AC" format="2">
  <advance width="1233"/>
  <unicode hex="01AC"/>
  <anchor x="496" y="0" name="bottom"/>
  <anchor x="807" y="1462" name="top"/>
  <outline>
    <contour>
      <point x="338" y="0" type="line"/>
      <point x="729" y="0" type="line"/>
      <point x="967" y="1139" type="line"/>
      <point x="1284" y="1139" type="line"/>
      <point x="1356" y="1462" type="line"/>
      <point x="559" y="1462" type="line" smooth="yes"/>
      <point x="211" y="1462"/>
      <point x="59" y="1288"/>
      <point x="59" y="999" type="curve" smooth="yes"/>
      <point x="59" y="977"/>
      <point x="61" y="956"/>
      <point x="66" y="940" type="curve"/>
      <point x="342" y="940" type="line"/>
      <point x="340" y="952"/>
      <point x="340" y="963"/>
      <point x="340" y="983" type="curve" smooth="yes"/>
      <point x="340" y="1083"/>
      <point x="389" y="1149"/>
      <point x="504" y="1149" type="curve" smooth="yes"/>
      <point x="580" y="1149" type="line"/>
    </contour>
  </outline>
</glyph>
<glyph name="uni01B3" format="2">
  <advance width="1300"/>
  <unicode hex="01B3"/>
  <anchor x="551" y="0" name="bottom"/>
  <anchor x="862" y="1462" name="top"/>
  <outline>
    <contour>
      <point x="281" y="0" type="line"/>
      <point x="672" y="0" type="line"/>
      <point x="793" y="567" type="line"/>
      <point x="1110" y="1028" type="line" smooth="yes"/>
      <point x="1194" y="1149"/>
      <point x="1225" y="1180"/>
      <point x="1309" y="1180" type="curve" smooth="yes"/>
      <point x="1329" y="1180"/>
      <point x="1348" y="1176"/>
      <point x="1366" y="1167" type="curve"/>
      <point x="1423" y="1448" type="line"/>
      <point x="1378" y="1464"/>
      <point x="1327" y="1483"/>
      <point x="1231" y="1483" type="curve" smooth="yes"/>
      <point x="1014" y="1483"/>
      <point x="911" y="1374"/>
      <point x="813" y="1198" type="curve" smooth="yes"/>
      <point x="657" y="920" type="line"/>
      <point x="567" y="1462" type="line"/>
      <point x="164" y="1462" type="line"/>
      <point x="401" y="567" type="line"/>
    </contour>
  </outline>
</glyph>
<glyph name="uni01E4" format="2">
  <advance width="1430"/>
  <unicode hex="01E4"/>
  <anchor x="594" y="0" name="bottom"/>
  <anchor x="905" y="1462" name="top"/>
  <outline>
    <contour>
      <point x="653" y="-20" type="curve" smooth="yes"/>
      <point x="872" y="-20"/>
      <point x="1034" y="16"/>
      <point x="1174" y="61" type="curve"/>
      <point x="1235" y="352" type="line"/>
      <point x="1364" y="352" type="line"/>
      <point x="1409" y="561" type="line"/>
      <point x="1278" y="561" type="line"/>
      <point x="1360" y="946" type="line"/>
      <point x="750" y="946" type="line"/>
      <point x="682" y="641" type="line"/>
      <point x="911" y="641" type="line"/>
      <point x="895" y="561" type="line"/>
      <point x="676" y="561" type="line"/>
      <point x="633" y="352" type="line"/>
      <point x="848" y="352" type="line"/>
      <point x="834" y="283" type="line"/>
      <point x="780" y="272"/>
      <point x="754" y="268"/>
      <point x="700" y="268" type="curve" smooth="yes"/>
      <point x="571" y="268"/>
      <point x="500" y="358"/>
      <point x="500" y="569" type="curve" smooth="yes"/>
      <point x="500" y="797"/>
      <point x="614" y="1159"/>
      <point x="956" y="1159" type="curve" smooth="yes"/>
      <point x="1073" y="1159"/>
      <point x="1178" y="1118"/>
      <point x="1262" y="1069" type="curve"/>
      <point x="1409" y="1378" type="line"/>
      <point x="1290" y="1448"/>
      <point x="1130" y="1485"/>
      <point x="961" y="1485" type="curve" smooth="yes"/>
      <point x="379" y="1485"/>
      <point x="104" y="1032"/>
      <point x="104" y="563" type="curve" smooth="yes"/>
      <point x="104" y="176"/>
      <point x="322" y="-20"/>
    </contour>
  </outline>
</glyph>
<glyph name="uni0223" format="2">
  <advance width="1362"/>
  <unicode hex="0223"/>
  <anchor x="561" y="0" name="bottom"/>
  <anchor x="803" y="1133" name="top"/>
  <outline>
    <contour>
      <point x="627" y="-20" type="curve" smooth="yes"/>
      <point x="1130" y="-20"/>
      <point x="1255" y="326"/>
      <point x="1255" y="549" type="curve" smooth="yes"/>
      <point x="1255" y="745"/>
      <point x="1155" y="864"/>
      <point x="1042" y="928" type="curve"/>
      <point x="1231" y="991"/>
      <point x="1323" y="1143"/>
      <point x="1362" y="1335" type="curve" smooth="yes"/>
      <point x="1407" y="1556" type="line"/>
      <point x="1020" y="1556" type="line"/>
      <point x="985" y="1382" type="line" smooth="yes"/>
      <point x="948" y="1200"/>
      <point x="922" y="1094"/>
      <point x="799" y="1094" type="curve" smooth="yes"/>
      <point x="725" y="1094"/>
      <point x="688" y="1145"/>
      <point x="688" y="1229" type="curve" smooth="yes"/>
      <point x="688" y="1274"/>
      <point x="698" y="1323"/>
      <point x="711" y="1384" type="curve" smooth="yes"/>
      <point x="745" y="1556" type="line"/>
      <point x="367" y="1556" type="line"/>
      <point x="338" y="1430" type="line" smooth="yes"/>
      <point x="326" y="1372"/>
      <point x="315" y="1311"/>
      <point x="315" y="1241" type="curve" smooth="yes"/>
      <point x="315" y="1120"/>
      <point x="375" y="1018"/>
      <point x="465" y="965" type="curve"/>
      <point x="217" y="903"/>
      <point x="86" y="721"/>
      <point x="86" y="455" type="curve" smooth="yes"/>
      <point x="86" y="150"/>
      <point x="303" y="-20"/>
    </contour>
    <contour>
      <point x="639" y="281" type="curve" smooth="yes"/>
      <point x="528" y="281"/>
      <point x="469" y="358"/>
      <point x="469" y="477" type="curve" smooth="yes"/>
      <point x="469" y="606"/>
      <point x="539" y="793"/>
      <point x="707" y="793" type="curve" smooth="yes"/>
      <point x="811" y="793"/>
      <point x="870" y="725"/>
      <point x="870" y="614" type="curve" smooth="yes"/>
      <point x="870" y="436"/>
      <point x="797" y="281"/>
    </contour>
  </outline>
</glyph>
<glyph name="uni0234" format="2">
  <advance width="1010"/>
  <unicode hex="0234"/>
  <anchor x="385" y="0" name="bottom"/>
  <anchor x="717" y="1556" name="top"/>
  <outline>
    <contour>
      <point x="182" y="-209" type="line"/>
      <point x="207" y="-106"/>
      <point x="236" y="-16"/>
      <point x="274" y="61" type="curve"/>
      <point x="354" y="10"/>
      <point x="467" y="-20"/>
      <point x="618" y="-20" type="curve" smooth="yes"/>
      <point x="887" y="-20"/>
      <point x="1018" y="125"/>
      <point x="1018" y="299" type="curve" smooth="yes"/>
      <point x="1018" y="408"/>
      <point x="948" y="532"/>
      <point x="727" y="532" type="curve" smooth="yes"/>
      <point x="651" y="532"/>
      <point x="582" y="524"/>
      <point x="518" y="508" type="curve"/>
      <point x="739" y="1556" type="line"/>
      <point x="352" y="1556" type="line"/>
      <point x="131" y="516" type="line" smooth="yes"/>
      <point x="115" y="434"/>
      <point x="106" y="336"/>
      <point x="129" y="256" type="curve"/>
      <point x="45" y="147"/>
      <point x="-16" y="10"/>
      <point x="-55" y="-143" type="curve"/>
    </contour>
    <contour>
      <point x="651" y="211" type="curve" smooth="yes"/>
      <point x="594" y="211"/>
      <point x="541" y="236"/>
      <point x="516" y="303" type="curve"/>
      <point x="561" y="319"/>
      <point x="612" y="328"/>
      <point x="670" y="328" type="curve" smooth="yes"/>
      <point x="727" y="328"/>
      <point x="766" y="309"/>
      <point x="766" y="274" type="curve" smooth="yes"/>
      <point x="766" y="238"/>
      <point x="731" y="211"/>
    </contour>
  </outline>
</glyph>
<glyph name="uni024B" format="2">
  <advance width="1243"/>
  <unicode hex="024B"/>
  <anchor x="397" y="-492" name="bottom"/>
  <anchor x="743" y="1133" name="top"/>
  <outline>
    <contour>
      <point x="924" y="-492" type="curve" smooth="yes"/>
      <point x="993" y="-492"/>
      <point x="1077" y="-481"/>
      <point x="1133" y="-463" type="curve"/>
      <point x="1133" y="-176" type="line"/>
      <point x="1090" y="-190"/>
      <point x="1065" y="-193"/>
      <point x="1034" y="-193" type="curve" smooth="yes"/>
      <point x="979" y="-193"/>
      <point x="956" y="-170"/>
      <point x="956" y="-133" type="curve" smooth="yes"/>
      <point x="956" y="-109"/>
      <point x="965" y="-74"/>
      <point x="975" y="-27" type="curve" smooth="yes"/>
      <point x="1221" y="1133" type="line"/>
      <point x="911" y="1133" type="line"/>
      <point x="858" y="993" type="line"/>
      <point x="850" y="993" type="line"/>
      <point x="776" y="1106"/>
      <point x="715" y="1153"/>
      <point x="586" y="1153" type="curve" smooth="yes"/>
      <point x="242" y="1153"/>
      <point x="84" y="688"/>
      <point x="84" y="408" type="curve" smooth="yes"/>
      <point x="84" y="98"/>
      <point x="238" y="-20"/>
      <point x="387" y="-20" type="curve" smooth="yes"/>
      <point x="516" y="-20"/>
      <point x="582" y="39"/>
      <point x="635" y="111" type="curve"/>
      <point x="643" y="111" type="line"/>
      <point x="627" y="76"/>
      <point x="606" y="39"/>
      <point x="590" y="-45" type="curve" smooth="yes"/>
      <point x="578" y="-111" type="line" smooth="yes"/>
      <point x="571" y="-145"/>
      <point x="567" y="-178"/>
      <point x="567" y="-209" type="curve" smooth="yes"/>
      <point x="567" y="-373"/>
      <point x="688" y="-492"/>
    </contour>
    <contour>
      <point x="565" y="291" type="curve" smooth="yes"/>
      <point x="508" y="291"/>
      <point x="479" y="342"/>
      <point x="479" y="434" type="curve" smooth="yes"/>
      <point x="479" y="629"/>
      <point x="573" y="842"/>
      <point x="680" y="842" type="curve" smooth="yes"/>
      <point x="735" y="842"/>
      <point x="760" y="784"/>
      <point x="760" y="698" type="curve" smooth="yes"/>
      <point x="760" y="532"/>
      <point x="684" y="291"/>
    </contour>
  </outline>
</glyph>
<glyph name="tslig" format="2">
  <advance width="1614"/>
  <unicode hex="02A6"/>
  <anchor x="686" y="0" name="bottom"/>
  <anchor x="977" y="1360" name="top"/>
  <outline>
    <contour>
      <point x="410" y="0" type="curve"/>
      <point x="1004" y="0" type="line" smooth="yes"/>
      <point x="1282" y="0"/>
      <point x="1479" y="137"/>
      <point x="1479" y="393" type="curve" smooth="yes"/>
      <point x="1479" y="532"/>
      <point x="1407" y="637"/>
      <point x="1253" y="713" type="curve" smooth="yes"/>
      <point x="1159" y="760"/>
      <point x="1120" y="782"/>
      <point x="1120" y="821" type="curve" smooth="yes"/>
      <point x="1120" y="866"/>
      <point x="1149" y="889"/>
      <point x="1196" y="889" type="curve" smooth="yes"/>
      <point x="1274" y="889"/>
      <point x="1378" y="844"/>
      <point x="1454" y="795" type="curve"/>
      <point x="1575" y="1047" type="line"/>
      <point x="1460" y="1118"/>
      <point x="1339" y="1153"/>
      <point x="1192" y="1153" type="curve" smooth="yes"/>
      <point x="1122" y="1153"/>
      <point x="1061" y="1147"/>
      <point x="1006" y="1133" type="curve"/>
      <point x="668" y="1133" type="line"/>
      <point x="717" y="1360" type="line"/>
      <point x="459" y="1360" type="line"/>
      <point x="322" y="1120" type="line"/>
      <point x="104" y="1032" type="line"/>
      <point x="63" y="842" type="line"/>
      <point x="217" y="842" type="line"/>
      <point x="133" y="461" type="line" smooth="yes"/>
      <point x="121" y="406"/>
      <point x="109" y="328"/>
      <point x="109" y="272" type="curve" smooth="yes"/>
      <point x="109" y="80"/>
      <point x="213" y="0"/>
    </contour>
    <contour>
      <point x="565" y="270" type="line"/>
      <point x="528" y="270"/>
      <point x="502" y="289"/>
      <point x="502" y="334" type="curve" smooth="yes"/>
      <point x="502" y="356"/>
      <point x="510" y="399"/>
      <point x="518" y="438" type="curve" smooth="yes"/>
      <point x="604" y="842" type="line"/>
      <point x="729" y="842" type="line"/>
      <point x="727" y="827"/>
      <point x="727" y="811"/>
      <point x="727" y="795" type="curve" smooth="yes"/>
      <point x="727" y="651"/>
      <point x="788" y="557"/>
      <point x="930" y="479" type="curve" smooth="yes"/>
      <point x="1067" y="403"/>
      <point x="1085" y="385"/>
      <point x="1085" y="340" type="curve" smooth="yes"/>
      <point x="1085" y="279"/>
      <point x="997" y="270"/>
      <point x="950" y="270" type="curve"/>
    </contour>
  </outline>
</glyph>
<glyph name="uni02AB" format="2">
  <advance width="1444"/>
  <unicode hex="02AB"/>
  <anchor x="602" y="0" name="bottom"/>
  <anchor x="934" y="1556" name="top"/>
  <outline>
    <contour>
      <point x="23" y="0" type="line"/>
      <point x="1253" y="0" type="line"/>
      <point x="1319" y="299" type="line"/>
      <point x="936" y="299" type="line"/>
      <point x="1432" y="891" type="line"/>
      <point x="1485" y="1133" type="line"/>
      <point x="649" y="1133" type="line"/>
      <point x="739" y="1556" type="line"/>
      <point x="352" y="1556" type="line"/>
    </contour>
    <contour>
      <point x="459" y="227" type="line"/>
      <point x="588" y="834" type="line"/>
      <point x="954" y="834" type="line"/>
    </contour>
  </outline>
</glyph>
<glyph name="ring" format="2">
  <advance width="713"/>
  <unicode hex="02DA"/>
  <outline>
    <contour>
      <point x="553" y="1237" type="curve" smooth="yes"/>
      <point x="705" y="1237"/>
      <point x="821" y="1333"/>
      <point x="821" y="1491" type="curve" smooth="yes"/>
      <point x="821" y="1647"/>
      <point x="702" y="1743"/>
      <point x="553" y="1743" type="curve" smooth="yes"/>
      <point x="395" y="1743"/>
      <point x="285" y="1647"/>
      <point x="285" y="1489" type="curve" smooth="yes"/>
      <point x="285" y="1333"/>
      <point x="395" y="1237"/>
    </contour>
    <contour>
      <point x="553" y="1405" type="curve" smooth="yes"/>
      <point x="498" y="1405"/>
      <point x="465" y="1440"/>
      <point x="465" y="1489" type="curve" smooth="yes"/>
      <point x="465" y="1540"/>
      <point x="506" y="1575"/>
      <point x="553" y="1575" type="curve" smooth="yes"/>
      <point x="600" y="1575"/>
      <point x="641" y="1540"/>
      <point x="641" y="1489" type="curve" smooth="yes"/>
      <point x="641" y="1440"/>
      <point x="600" y="1405"/>
    </contour>
  </outline>
</glyph>
<glyph name="rhotichookmod" format="2">
  <advance width="508"/>
  <unicode hex="02DE"/>
  <outline>
    <contour>
      <point x="236" y="338" type="curve" smooth="yes"/>
      <point x="340" y="338"/>
      <point x="422" y="377"/>
      <point x="492" y="426" type="curve"/>
      <point x="399" y="621" type="line"/>
      <point x="375" y="598"/>
      <point x="340" y="578"/>
      <point x="295" y="578" type="curve" smooth="yes"/>
      <point x="233" y="578"/>
      <point x="205" y="629"/>
      <point x="213" y="760" type="curve" smooth="yes"/>
      <point x="219" y="854" type="line"/>
      <point x="-297" y="723" type="line"/>
      <point x="-289" y="500" type="line"/>
      <point x="-18" y="567" type="line"/>
      <point x="4" y="412"/>
      <point x="104" y="338"/>
    </contour>
  </outline>
</glyph>
<glyph name="xbelowcomb" format="2">
  <unicode hex="0353"/>
  <anchor x="-68" y="0" name="_bottom"/>
  <anchor x="-119" y="-457" name="bottom"/>
  <outline>
    <contour>
      <point x="-14" y="-457" type="line"/>
      <point x="72" y="-371" type="line"/>
      <point x="-31" y="-266" type="line"/>
      <point x="70" y="-166" type="line"/>
      <point x="-27" y="-70" type="line"/>
      <point x="-127" y="-170" type="line"/>
      <point x="-231" y="-68" type="line"/>
      <point x="-317" y="-154" type="line"/>
      <point x="-215" y="-258" type="line"/>
      <point x="-315" y="-358" type="line"/>
      <point x="-219" y="-455" type="line"/>
      <point x="-119" y="-354" type="line"/>
    </contour>
  </outline>
</glyph>
<glyph name="tildedoublecomb" format="2">
  <unicode hex="0360"/>
  <anchor x="676" y="1133" name="_top"/>
  <anchor x="741" y="1585" name="top"/>
  <outline>
    <contour>
      <point x="-113" y="1243" type="curve"/>
      <point x="70" y="1243" type="line"/>
      <point x="113" y="1315"/>
      <point x="201" y="1348"/>
      <point x="256" y="1348" type="curve" smooth="yes"/>
      <point x="557" y="1348"/>
      <point x="805" y="1245"/>
      <point x="1143" y="1245" type="curve" smooth="yes"/>
      <point x="1327" y="1245"/>
      <point x="1522" y="1358"/>
      <point x="1585" y="1585" type="curve"/>
      <point x="1403" y="1585" type="line"/>
      <point x="1358" y="1516"/>
      <point x="1276" y="1483"/>
      <point x="1219" y="1483" type="curve" smooth="yes"/>
      <point x="903" y="1483"/>
      <point x="686" y="1585"/>
      <point x="324" y="1585" type="curve" smooth="yes"/>
      <point x="150" y="1585"/>
      <point x="-37" y="1477"/>
    </contour>
  </outline>
</glyph>
<glyph name="archaicsampi" format="2">
  <advance width="1411"/>
  <unicode hex="0373"/>
  <anchor x="586" y="0" name="bottom"/>
  <anchor x="918" y="1552" name="top"/>
  <outline>
    <contour>
      <point x="383" y="0" type="line"/>
      <point x="766" y="0" type="line"/>
      <point x="1028" y="1251" type="line"/>
      <point x="1217" y="1251" type="line"/>
      <point x="1284" y="1552" type="line"/>
      <point x="516" y="1552" type="line"/>
      <point x="449" y="1251" type="line"/>
      <point x="647" y="1251" type="line"/>
    </contour>
    <contour>
      <point x="141" y="944" type="line"/>
      <point x="469" y="944" type="line"/>
      <point x="606" y="1552" type="line"/>
      <point x="279" y="1552" type="line"/>
    </contour>
    <contour>
      <point x="1092" y="944" type="line"/>
      <point x="1421" y="944" type="line"/>
      <point x="1559" y="1552" type="line"/>
      <point x="1229" y="1552" type="line"/>
    </contour>
  </outline>
</glyph>
<glyph name="tonos" format="2">
  <advance width="1122"/>
  <unicode hex="0384"/>
  <anchor x="668" y="1133" name="_top"/>
  <outline>
    <contour>
      <point x="526" y="1241" type="line"/>
      <point x="758" y="1241" type="line"/>
      <point x="866" y="1376"/>
      <point x="936" y="1485"/>
      <point x="1012" y="1606" type="curve"/>
      <point x="1012" y="1630" type="line"/>
      <point x="664" y="1630" type="line"/>
      <point x="633" y="1524"/>
      <point x="571" y="1360"/>
      <point x="526" y="1266" type="curve"/>
    </contour>
  </outline>
</glyph>
<glyph name="Delta" format="2">
  <advance width="1356"/>
  <unicode hex="0394"/>
  <anchor x="557" y="0" name="bottom"/>
  <anchor x="868" y="1462" name="top"/>
  <outline>
    <contour>
      <point x="-72" y="0" type="line"/>
      <point x="1163" y="0" type="line"/>
      <point x="1212" y="225" type="line"/>
      <point x="1108" y="1462" type="line"/>
      <point x="625" y="1462" type="line"/>
      <point x="-27" y="225" type="line"/>
    </contour>
    <contour>
      <point x="408" y="311" type="line"/>
      <point x="758" y="1036" type="line" smooth="yes"/>
      <point x="772" y="1065"/>
      <point x="809" y="1165"/>
      <point x="819" y="1202" type="curve"/>
      <point x="813" y="1118"/>
      <point x="817" y="1208"/>
      <point x="817" y="985" type="curve" smooth="yes"/>
      <point x="838" y="311" type="line"/>
    </contour>
  </outline>
</glyph>
<glyph name="Sigma" format="2">
  <advance width="1130"/>
  <unicode hex="03A3"/>
  <anchor x="444" y="0" name="bottom"/>
  <anchor x="756" y="1462" name="top"/>
  <outline>
    <contour>
      <point x="-61" y="0" type="line"/>
      <point x="950" y="0" type="line"/>
      <point x="1016" y="319" type="line"/>
      <point x="500" y="319" type="line"/>
      <point x="938" y="737" type="line"/>
      <point x="647" y="1143" type="line"/>
      <point x="1135" y="1143" type="line"/>
      <point x="1202" y="1462" type="line"/>
      <point x="258" y="1462" type="line"/>
      <point x="199" y="1186" type="line"/>
      <point x="506" y="762" type="line"/>
      <point x="-4" y="281" type="line"/>
    </contour>
  </outline>
</glyph>
<glyph name="theta" format="2">
  <advance width="1253"/>
  <unicode hex="03B8"/>
  <anchor x="506" y="0" name="bottom"/>
  <anchor x="842" y="1579" name="top"/>
  <anchor x="1427" y="1579" name="topright"/>
  <outline>
    <contour>
      <point x="530" y="-20" type="curve" smooth="yes"/>
      <point x="791" y="-20"/>
      <point x="952" y="127"/>
      <point x="1057" y="348" type="curve" smooth="yes"/>
      <point x="1159" y="563"/>
      <point x="1217" y="872"/>
      <point x="1217" y="1104" type="curve" smooth="yes"/>
      <point x="1217" y="1382"/>
      <point x="1087" y="1579"/>
      <point x="807" y="1579" type="curve" smooth="yes"/>
      <point x="537" y="1579"/>
      <point x="354" y="1432"/>
      <point x="240" y="1169" type="curve" smooth="yes"/>
      <point x="154" y="977"/>
      <point x="96" y="651"/>
      <point x="96" y="444" type="curve" smooth="yes"/>
      <point x="96" y="164"/>
      <point x="231" y="-20"/>
    </contour>
    <contour>
      <point x="551" y="262" type="curve" smooth="yes"/>
      <point x="492" y="262"/>
      <point x="463" y="313"/>
      <point x="463" y="393" type="curve" smooth="yes"/>
      <point x="463" y="446"/>
      <point x="471" y="541"/>
      <point x="487" y="645" type="curve"/>
      <point x="772" y="645" type="line"/>
      <point x="729" y="469"/>
      <point x="649" y="262"/>
    </contour>
    <contour>
      <point x="547" y="928" type="line"/>
      <point x="621" y="1192"/>
      <point x="692" y="1296"/>
      <point x="766" y="1296" type="curve" smooth="yes"/>
      <point x="821" y="1296"/>
      <point x="850" y="1251"/>
      <point x="850" y="1161" type="curve" smooth="yes"/>
      <point x="850" y="1087"/>
      <point x="842" y="1008"/>
      <point x="831" y="928" type="curve"/>
    </contour>
  </outline>
</glyph>
<glyph name="iota" format="2">
  <advance width="817"/>
  <unicode hex="03B9"/>
  <anchor x="289" y="0" name="bottom"/>
  <anchor x="467" y="1133" name="top"/>
  <anchor x="162" y="1133" name="topleft"/>
  <outline>
    <contour>
      <point x="403" y="-20" type="curve" smooth="yes"/>
      <point x="528" y="-20"/>
      <point x="629" y="-2"/>
      <point x="715" y="39" type="curve"/>
      <point x="715" y="324" type="line"/>
      <point x="653" y="299"/>
      <point x="592" y="291"/>
      <point x="545" y="291" type="curve" smooth="yes"/>
      <point x="512" y="291"/>
      <point x="492" y="311"/>
      <point x="492" y="342" type="curve" smooth="yes"/>
      <point x="492" y="362"/>
      <point x="496" y="387"/>
      <point x="504" y="426" type="curve" smooth="yes"/>
      <point x="657" y="1133" type="line"/>
      <point x="270" y="1133" type="line"/>
      <point x="106" y="387" type="line" smooth="yes"/>
      <point x="96" y="340"/>
      <point x="86" y="276"/>
      <point x="86" y="242" type="curve" smooth="yes"/>
      <point x="86" y="35"/>
      <point x="203" y="-20"/>
    </contour>
  </outline>
</glyph>
<glyph name="lambda" format="2">
  <advance width="1237"/>
  <unicode hex="03BB"/>
  <anchor x="498" y="0" name="bottom"/>
  <anchor x="831" y="1569" name="top"/>
  <outline>
    <contour>
      <point x="922" y="-20" type="curve" smooth="yes"/>
      <point x="1036" y="-20"/>
      <point x="1102" y="-4"/>
      <point x="1155" y="16" type="curve"/>
      <point x="1155" y="301" type="line"/>
      <point x="1122" y="293"/>
      <point x="1108" y="291"/>
      <point x="1087" y="291" type="curve" smooth="yes"/>
      <point x="1014" y="291"/>
      <point x="979" y="338"/>
      <point x="946" y="561" type="curve" smooth="yes"/>
      <point x="854" y="1174" type="line" smooth="yes"/>
      <point x="815" y="1436"/>
      <point x="692" y="1569"/>
      <point x="449" y="1569" type="curve" smooth="yes"/>
      <point x="362" y="1569"/>
      <point x="285" y="1561"/>
      <point x="213" y="1542" type="curve"/>
      <point x="260" y="1264" type="line"/>
      <point x="289" y="1270"/>
      <point x="328" y="1278"/>
      <point x="360" y="1278" type="curve" smooth="yes"/>
      <point x="420" y="1278"/>
      <point x="471" y="1231"/>
      <point x="481" y="1104" type="curve" smooth="yes"/>
      <point x="485" y="1051" type="line"/>
      <point x="-111" y="0" type="line"/>
      <point x="307" y="0" type="line"/>
      <point x="498" y="373" type="line" smooth="yes"/>
      <point x="492" y="362"/>
      <point x="573" y="559"/>
      <point x="580" y="571" type="curve"/>
      <point x="580" y="532"/>
      <point x="586" y="444"/>
      <point x="594" y="393" type="curve" smooth="yes"/>
      <point x="610" y="299" type="line" smooth="yes"/>
      <point x="645" y="100"/>
      <point x="721" y="-20"/>
    </contour>
  </outline>
</glyph>
<glyph name="uni03D1" format="2">
  <advance width="1542"/>
  <unicode hex="03D1"/>
  <outline>
    <contour>
      <point x="635" y="-20" type="curve" smooth="yes"/>
      <point x="1090" y="-20"/>
      <point x="1268" y="299"/>
      <point x="1350" y="705" type="curve"/>
      <point x="1483" y="705" type="line"/>
      <point x="1546" y="995" type="line"/>
      <point x="1395" y="995" type="line"/>
      <point x="1395" y="1008"/>
      <point x="1397" y="1032"/>
      <point x="1397" y="1051" type="curve" smooth="yes"/>
      <point x="1397" y="1335"/>
      <point x="1280" y="1575"/>
      <point x="934" y="1575" type="curve" smooth="yes"/>
      <point x="643" y="1575"/>
      <point x="434" y="1427"/>
      <point x="434" y="1145" type="curve" smooth="yes"/>
      <point x="434" y="936"/>
      <point x="608" y="729"/>
      <point x="958" y="698" type="curve"/>
      <point x="934" y="438"/>
      <point x="825" y="270"/>
      <point x="680" y="270" type="curve" smooth="yes"/>
      <point x="604" y="270"/>
      <point x="569" y="313"/>
      <point x="569" y="367" type="curve" smooth="yes"/>
      <point x="569" y="395"/>
      <point x="578" y="438"/>
      <point x="586" y="483" type="curve" smooth="yes"/>
      <point x="594" y="535"/>
      <point x="604" y="590"/>
      <point x="604" y="631" type="curve" smooth="yes"/>
      <point x="604" y="735"/>
      <point x="535" y="817"/>
      <point x="399" y="817" type="curve" smooth="yes"/>
      <point x="262" y="817"/>
      <point x="182" y="774"/>
      <point x="131" y="743" type="curve"/>
      <point x="131" y="485" type="line"/>
      <point x="152" y="500"/>
      <point x="180" y="520"/>
      <point x="207" y="520" type="curve" smooth="yes"/>
      <point x="233" y="520"/>
      <point x="240" y="504"/>
      <point x="240" y="473" type="curve" smooth="yes"/>
      <point x="240" y="453"/>
      <point x="236" y="428"/>
      <point x="229" y="401" type="curve" smooth="yes"/>
      <point x="223" y="369"/>
      <point x="215" y="330"/>
      <point x="215" y="287" type="curve" smooth="yes"/>
      <point x="215" y="139"/>
      <point x="332" y="-20"/>
    </contour>
    <contour>
      <point x="1004" y="995" type="curve"/>
      <point x="872" y="1006"/>
      <point x="815" y="1079"/>
      <point x="815" y="1157" type="curve" smooth="yes"/>
      <point x="815" y="1243"/>
      <point x="850" y="1284"/>
      <point x="913" y="1284" type="curve" smooth="yes"/>
      <point x="973" y="1284"/>
      <point x="1010" y="1225"/>
      <point x="1010" y="1102" type="curve" smooth="yes"/>
      <point x="1010" y="1073"/>
      <point x="1008" y="1022"/>
    </contour>
  </outline>
</glyph>
<glyph name="uni03DA" format="2">
  <advance width="1229"/>
  <unicode hex="03DA"/>
  <anchor x="494" y="0" name="bottom"/>
  <anchor x="805" y="1462" name="top"/>
  <outline>
    <contour>
      <point x="528" y="0" type="line"/>
      <point x="903" y="0" type="line"/>
      <point x="1022" y="551" type="line"/>
      <point x="842" y="551" type="line" smooth="yes"/>
      <point x="629" y="551"/>
      <point x="535" y="641"/>
      <point x="535" y="805" type="curve" smooth="yes"/>
      <point x="535" y="975"/>
      <point x="631" y="1159"/>
      <point x="874" y="1159" type="curve" smooth="yes"/>
      <point x="991" y="1159"/>
      <point x="1092" y="1122"/>
      <point x="1202" y="1049" type="curve"/>
      <point x="1352" y="1364" type="line"/>
      <point x="1214" y="1446"/>
      <point x="1063" y="1485"/>
      <point x="874" y="1485" type="curve" smooth="yes"/>
      <point x="307" y="1485"/>
      <point x="139" y="1055"/>
      <point x="139" y="762" type="curve" smooth="yes"/>
      <point x="139" y="399"/>
      <point x="367" y="268"/>
      <point x="582" y="238" type="curve"/>
    </contour>
  </outline>
</glyph>
<glyph name="afii10069" format="2">
  <advance width="1288"/>
  <unicode hex="0434"/>
  <anchor x="524" y="0" name="bottom"/>
  <anchor x="860" y="1577" name="top"/>
  <outline>
    <contour>
      <point x="549" y="-20" type="curve" smooth="yes"/>
      <point x="1071" y="-20"/>
      <point x="1223" y="475"/>
      <point x="1223" y="924" type="curve" smooth="yes"/>
      <point x="1223" y="1356"/>
      <point x="1032" y="1577"/>
      <point x="672" y="1577" type="curve" smooth="yes"/>
      <point x="510" y="1577"/>
      <point x="406" y="1550"/>
      <point x="305" y="1518" type="curve"/>
      <point x="381" y="1223" type="line"/>
      <point x="440" y="1247"/>
      <point x="516" y="1266"/>
      <point x="578" y="1266" type="curve" smooth="yes"/>
      <point x="764" y="1266"/>
      <point x="831" y="1174"/>
      <point x="831" y="934" type="curve" smooth="yes"/>
      <point x="831" y="920"/>
      <point x="831" y="891"/>
      <point x="829" y="868" type="curve"/>
      <point x="821" y="868" type="line"/>
      <point x="770" y="973"/>
      <point x="670" y="1051"/>
      <point x="545" y="1051" type="curve" smooth="yes"/>
      <point x="279" y="1051"/>
      <point x="84" y="801"/>
      <point x="84" y="422" type="curve" smooth="yes"/>
      <point x="84" y="152"/>
      <point x="238" y="-20"/>
    </contour>
    <contour>
      <point x="588" y="291" type="curve" smooth="yes"/>
      <point x="508" y="291"/>
      <point x="473" y="352"/>
      <point x="473" y="420" type="curve" smooth="yes"/>
      <point x="473" y="627"/>
      <point x="557" y="760"/>
      <point x="655" y="760" type="curve" smooth="yes"/>
      <point x="731" y="760"/>
      <point x="772" y="705"/>
      <point x="795" y="655" type="curve"/>
      <point x="764" y="455"/>
      <point x="696" y="291"/>
    </contour>
  </outline>
</glyph>
<glyph name="afii10106" format="2">
  <advance width="1896"/>
  <unicode hex="0459"/>
  <anchor x="827" y="0" name="bottom"/>
  <anchor x="1069" y="1133" name="top"/>
  <outline>
    <contour>
      <point x="1231" y="-20" type="curve" smooth="yes"/>
      <point x="1612" y="-20"/>
      <point x="1798" y="127"/>
      <point x="1798" y="403" type="curve" smooth="yes"/>
      <point x="1798" y="571"/>
      <point x="1667" y="721"/>
      <point x="1403" y="721" type="curve" smooth="yes"/>
      <point x="1346" y="721"/>
      <point x="1286" y="715"/>
      <point x="1237" y="700" type="curve"/>
      <point x="1319" y="1073" type="line"/>
      <point x="1217" y="1116"/>
      <point x="1055" y="1153"/>
      <point x="862" y="1153" type="curve" smooth="yes"/>
      <point x="446" y="1153"/>
      <point x="326" y="952"/>
      <point x="215" y="596" type="curve" smooth="yes"/>
      <point x="141" y="356"/>
      <point x="111" y="291"/>
      <point x="43" y="291" type="curve" smooth="yes"/>
      <point x="25" y="291"/>
      <point x="-2" y="293"/>
      <point x="-37" y="311" type="curve"/>
      <point x="-37" y="10" type="line"/>
      <point x="14" y="-10"/>
      <point x="78" y="-20"/>
      <point x="125" y="-20" type="curve" smooth="yes"/>
      <point x="373" y="-20"/>
      <point x="453" y="92"/>
      <point x="557" y="446" type="curve" smooth="yes"/>
      <point x="662" y="803"/>
      <point x="725" y="862"/>
      <point x="844" y="862" type="curve" smooth="yes"/>
      <point x="858" y="862"/>
      <point x="872" y="860"/>
      <point x="887" y="858" type="curve"/>
      <point x="809" y="500" type="line" smooth="yes"/>
      <point x="793" y="428"/>
      <point x="782" y="358"/>
      <point x="782" y="299" type="curve" smooth="yes"/>
      <point x="782" y="135"/>
      <point x="889" y="-20"/>
    </contour>
    <contour>
      <point x="1280" y="242" type="curve" smooth="yes"/>
      <point x="1217" y="242"/>
      <point x="1159" y="262"/>
      <point x="1159" y="315" type="curve" smooth="yes"/>
      <point x="1159" y="342"/>
      <point x="1169" y="391"/>
      <point x="1182" y="442" type="curve"/>
      <point x="1221" y="455"/>
      <point x="1266" y="459"/>
      <point x="1303" y="459" type="curve" smooth="yes"/>
      <point x="1374" y="459"/>
      <point x="1407" y="408"/>
      <point x="1407" y="352" type="curve" smooth="yes"/>
      <point x="1407" y="281"/>
      <point x="1354" y="242"/>
    </contour>
  </outline>
</glyph>
<glyph name="uni046B" format="2">
  <advance width="1454"/>
  <unicode hex="046B"/>
  <anchor x="606" y="0" name="bottom"/>
  <anchor x="848" y="1133" name="top"/>
  <outline>
    <contour>
      <point x="-168" y="0" type="line"/>
      <point x="219" y="0" type="line"/>
      <point x="371" y="258" type="line" smooth="yes"/>
      <point x="457" y="401"/>
      <point x="487" y="434"/>
      <point x="547" y="449" type="curve"/>
      <point x="455" y="0" type="line"/>
      <point x="799" y="0" type="line"/>
      <point x="893" y="440" type="line"/>
      <point x="930" y="430"/>
      <point x="967" y="352"/>
      <point x="983" y="268" type="curve" smooth="yes"/>
      <point x="1036" y="0" type="line"/>
      <point x="1397" y="0" type="line"/>
      <point x="1303" y="342" type="line" smooth="yes"/>
      <point x="1253" y="522"/>
      <point x="1171" y="621"/>
      <point x="1067" y="647" type="curve"/>
      <point x="1352" y="987" type="line"/>
      <point x="1380" y="1133" type="line"/>
      <point x="322" y="1133" type="line"/>
      <point x="293" y="987" type="line"/>
      <point x="444" y="647" type="line"/>
      <point x="315" y="629"/>
      <point x="190" y="571"/>
      <point x="51" y="350" type="curve" smooth="yes"/>
    </contour>
    <contour>
      <point x="752" y="664" type="line"/>
      <point x="666" y="887" type="line"/>
      <point x="932" y="887" type="line"/>
    </contour>
  </outline>
</glyph>
<glyph name="uni046F" format="2">
  <advance width="1192"/>
  <unicode hex="046F"/>
  <anchor x="371" y="-492" name="bottom"/>
  <anchor x="772" y="1393" name="top"/>
  <outline>
    <contour>
      <point x="807" y="-492" type="curve"/>
      <point x="807" y="-211" type="line"/>
      <point x="793" y="-184"/>
      <point x="756" y="-166"/>
      <point x="682" y="-166" type="curve" smooth="yes"/>
      <point x="606" y="-166"/>
      <point x="508" y="-176"/>
      <point x="432" y="-176" type="curve" smooth="yes"/>
      <point x="348" y="-176"/>
      <point x="289" y="-170"/>
      <point x="289" y="-106" type="curve" smooth="yes"/>
      <point x="289" y="-47"/>
      <point x="344" y="-27"/>
      <point x="459" y="-20" type="curve" smooth="yes"/>
      <point x="885" y="4"/>
      <point x="1053" y="133"/>
      <point x="1053" y="358" type="curve" smooth="yes"/>
      <point x="1053" y="465"/>
      <point x="991" y="549"/>
      <point x="866" y="582" type="curve"/>
      <point x="866" y="590" type="line"/>
      <point x="1040" y="643"/>
      <point x="1118" y="729"/>
      <point x="1118" y="864" type="curve" smooth="yes"/>
      <point x="1118" y="1008"/>
      <point x="1032" y="1085"/>
      <point x="905" y="1122" type="curve"/>
      <point x="981" y="1192"/>
      <point x="1038" y="1212"/>
      <point x="1096" y="1212" type="curve" smooth="yes"/>
      <point x="1126" y="1212"/>
      <point x="1149" y="1208"/>
      <point x="1174" y="1202" type="curve"/>
      <point x="1174" y="1374" type="line"/>
      <point x="1141" y="1389"/>
      <point x="1102" y="1393"/>
      <point x="1057" y="1393" type="curve" smooth="yes"/>
      <point x="895" y="1393"/>
      <point x="791" y="1300"/>
      <point x="674" y="1180" type="curve"/>
      <point x="631" y="1235"/>
      <point x="592" y="1274"/>
      <point x="518" y="1348" type="curve"/>
      <point x="324" y="1348" type="line"/>
      <point x="324" y="1325" type="line"/>
      <point x="379" y="1241"/>
      <point x="414" y="1184"/>
      <point x="438" y="1135" type="curve"/>
      <point x="344" y="1118"/>
      <point x="258" y="1094"/>
      <point x="176" y="1067" type="curve"/>
      <point x="260" y="788" type="line"/>
      <point x="369" y="840"/>
      <point x="520" y="870"/>
      <point x="610" y="870" type="curve" smooth="yes"/>
      <point x="711" y="870"/>
      <point x="733" y="842"/>
      <point x="733" y="795" type="curve" smooth="yes"/>
      <point x="733" y="739"/>
      <point x="672" y="711"/>
      <point x="518" y="711" type="curve" smooth="yes"/>
      <point x="365" y="711" type="line"/>
      <point x="311" y="465" type="line"/>
      <point x="451" y="465" type="line" smooth="yes"/>
      <point x="612" y="465"/>
      <point x="659" y="428"/>
      <point x="659" y="365" type="curve" smooth="yes"/>
      <point x="659" y="313"/>
      <point x="600" y="289"/>
      <point x="432" y="270" type="curve" smooth="yes"/>
      <point x="0" y="221"/>
      <point x="-80" y="68"/>
      <point x="-80" y="-139" type="curve" smooth="yes"/>
      <point x="-80" y="-352"/>
      <point x="102" y="-459"/>
      <point x="332" y="-459" type="curve" smooth="yes"/>
      <point x="453" y="-459"/>
      <point x="573" y="-449"/>
      <point x="690" y="-449" type="curve" smooth="yes"/>
      <point x="752" y="-449"/>
      <point x="799" y="-469"/>
    </contour>
  </outline>
</glyph>
<glyph name="uni0472" format="2">
  <advance width="1509"/>
  <unicode hex="0472"/>
  <anchor x="635" y="0" name="bottom"/>
  <anchor x="946" y="1462" name="top"/>
  <outline>
    <contour>
      <point x="666" y="-20" type="curve" smooth="yes"/>
      <point x="1204" y="-20"/>
      <point x="1446" y="467"/>
      <point x="1446" y="922" type="curve" smooth="yes"/>
      <point x="1446" y="1262"/>
      <point x="1257" y="1485"/>
      <point x="897" y="1485" type="curve" smooth="yes"/>
      <point x="354" y="1485"/>
      <point x="104" y="997"/>
      <point x="104" y="543" type="curve" smooth="yes"/>
      <point x="104" y="203"/>
      <point x="293" y="-20"/>
    </contour>
    <contour>
      <point x="700" y="283" type="curve" smooth="yes"/>
      <point x="553" y="283"/>
      <point x="479" y="373"/>
      <point x="479" y="545" type="curve" smooth="yes"/>
      <point x="479" y="563"/>
      <point x="479" y="582"/>
      <point x="481" y="602" type="curve"/>
      <point x="1022" y="602" type="line"/>
      <point x="965" y="422"/>
      <point x="860" y="283"/>
    </contour>
    <contour>
      <point x="549" y="905" type="line"/>
      <point x="618" y="1075"/>
      <point x="727" y="1182"/>
      <point x="864" y="1182" type="curve" smooth="yes"/>
      <point x="999" y="1182"/>
      <point x="1071" y="1075"/>
      <point x="1071" y="924" type="curve" smooth="yes"/>
      <point x="1071" y="918"/>
      <point x="1071" y="913"/>
      <point x="1071" y="905" type="curve"/>
    </contour>
  </outline>
</glyph>
<glyph name="psilipneumatacomb-cy" format="2">
  <unicode hex="0486"/>
  <anchor x="-440" y="1133" name="_top"/>
  <anchor x="-373" y="1651" name="top"/>
  <outline>
    <contour>
      <point x="-588" y="1204" type="line"/>
      <point x="-377" y="1204"/>
      <point x="-168" y="1298"/>
      <point x="-168" y="1497" type="curve" smooth="yes"/>
      <point x="-168" y="1593"/>
      <point x="-240" y="1651"/>
      <point x="-336" y="1651" type="curve" smooth="yes"/>
      <point x="-453" y="1651"/>
      <point x="-516" y="1597"/>
      <point x="-516" y="1542" type="curve" smooth="yes"/>
      <point x="-516" y="1491"/>
      <point x="-494" y="1470"/>
      <point x="-446" y="1456" type="curve" smooth="yes"/>
      <point x="-422" y="1448"/>
      <point x="-395" y="1434"/>
      <point x="-395" y="1403" type="curve" smooth="yes"/>
      <point x="-395" y="1341"/>
      <point x="-481" y="1319"/>
      <point x="-588" y="1309" type="curve"/>
    </contour>
  </outline>
</glyph>
<glyph name="uni048E" format="2">
  <advance width="1378"/>
  <unicode hex="048E"/>
  <anchor x="569" y="0" name="bottom"/>
  <anchor x="881" y="1462" name="top"/>
  <outline>
    <contour>
      <point x="33" y="0" type="line"/>
      <point x="424" y="0" type="line"/>
      <point x="524" y="485" type="line"/>
      <point x="680" y="485" type="line" smooth="yes"/>
      <point x="739" y="485"/>
      <point x="797" y="489"/>
      <point x="850" y="498" type="curve"/>
      <point x="920" y="350" type="line"/>
      <point x="1112" y="444" type="line"/>
      <point x="1059" y="559" type="line"/>
      <point x="1241" y="643"/>
      <point x="1354" y="801"/>
      <point x="1354" y="1024" type="curve" smooth="yes"/>
      <point x="1354" y="1282"/>
      <point x="1198" y="1462"/>
      <point x="795" y="1462" type="curve" smooth="yes"/>
      <point x="342" y="1462" type="line"/>
    </contour>
    <contour>
      <point x="594" y="805" type="line"/>
      <point x="666" y="1143" type="line"/>
      <point x="805" y="1143" type="line" smooth="yes"/>
      <point x="911" y="1143"/>
      <point x="963" y="1083"/>
      <point x="963" y="1012" type="curve" smooth="yes"/>
      <point x="963" y="954"/>
      <point x="944" y="907"/>
      <point x="911" y="870" type="curve"/>
      <point x="856" y="993" type="line"/>
      <point x="664" y="899" type="line"/>
      <point x="707" y="805" type="line"/>
      <point x="692" y="805"/>
      <point x="678" y="805"/>
      <point x="664" y="805" type="curve"/>
    </contour>
  </outline>
</glyph>
<glyph name="afii10050" format="2">
  <advance width="1083"/>
  <unicode hex="0490"/>
  <anchor x="422" y="0" name="bottom"/>
  <anchor x="801" y="1778" name="top"/>
  <outline>
    <contour>
      <point x="33" y="0" type="line"/>
      <point x="424" y="0" type="line"/>
      <point x="666" y="1143" type="line"/>
      <point x="1137" y="1143" type="line"/>
      <point x="1266" y="1778" type="line"/>
      <point x="918" y="1778" type="line"/>
      <point x="850" y="1462" type="line"/>
      <point x="342" y="1462" type="line"/>
    </contour>
  </outline>
</glyph>
<glyph name="uni04A3" format="2">
  <advance width="1454"/>
  <unicode hex="04A3"/>
  <anchor x="518" y="-416" name="bottom"/>
  <anchor x="848" y="1133" name="top"/>
  <outline>
    <contour>
      <point x="862" y="-416" type="line"/>
      <point x="1219" y="-416" type="line"/>
      <point x="1368" y="311" type="line"/>
      <point x="1087" y="311" type="line"/>
      <point x="1262" y="1133" type="line"/>
      <point x="874" y="1133" type="line"/>
      <point x="786" y="723" type="line"/>
      <point x="565" y="723" type="line"/>
      <point x="651" y="1133" type="line"/>
      <point x="264" y="1133" type="line"/>
      <point x="23" y="0" type="line"/>
      <point x="410" y="0" type="line"/>
      <point x="504" y="440" type="line"/>
      <point x="727" y="440" type="line"/>
      <point x="635" y="0" type="line"/>
      <point x="952" y="0" type="line"/>
    </contour>
  </outline>
</glyph>
<glyph name="uni04A6" format="2">
  <advance width="2120"/>
  <unicode hex="04A6"/>
  <anchor x="831" y="-512" name="bottom"/>
  <anchor x="1251" y="1462" name="top"/>
  <outline>
    <contour>
      <point x="1335" y="-512" type="curve" smooth="yes"/>
      <point x="1860" y="-512"/>
      <point x="2009" y="-123"/>
      <point x="2009" y="242" type="curve" smooth="yes"/>
      <point x="2009" y="616"/>
      <point x="1794" y="782"/>
      <point x="1487" y="782" type="curve" smooth="yes"/>
      <point x="1444" y="782"/>
      <point x="1386" y="774"/>
      <point x="1325" y="764" type="curve"/>
      <point x="1473" y="1462" type="line"/>
      <point x="342" y="1462" type="line"/>
      <point x="33" y="0" type="line"/>
      <point x="424" y="0" type="line"/>
      <point x="664" y="1139" type="line"/>
      <point x="1010" y="1139" type="line"/>
      <point x="772" y="0" type="line"/>
      <point x="1163" y="0" type="line"/>
      <point x="1257" y="446" type="line"/>
      <point x="1284" y="453"/>
      <point x="1327" y="459"/>
      <point x="1384" y="459" type="curve" smooth="yes"/>
      <point x="1505" y="459"/>
      <point x="1614" y="393"/>
      <point x="1614" y="213" type="curve" smooth="yes"/>
      <point x="1614" y="-51"/>
      <point x="1491" y="-188"/>
      <point x="1311" y="-188" type="curve" smooth="yes"/>
      <point x="1231" y="-188"/>
      <point x="1139" y="-172"/>
      <point x="1049" y="-139" type="curve"/>
      <point x="1049" y="-461" type="line"/>
      <point x="1147" y="-500"/>
      <point x="1247" y="-512"/>
    </contour>
  </outline>
</glyph>
<glyph name="uni04AD" format="2">
  <advance width="1960"/>
  <unicode hex="04AD"/>
  <anchor x="772" y="-416" name="bottom"/>
  <anchor x="1102" y="1133" name="top"/>
  <outline>
    <contour>
      <point x="1356" y="-416" type="line"/>
      <point x="1724" y="-416" type="line"/>
      <point x="1872" y="301" type="line"/>
      <point x="1858" y="297"/>
      <point x="1823" y="289"/>
      <point x="1798" y="289" type="curve" smooth="yes"/>
      <point x="1755" y="289"/>
      <point x="1726" y="307"/>
      <point x="1726" y="350" type="curve" smooth="yes"/>
      <point x="1726" y="377"/>
      <point x="1735" y="414"/>
      <point x="1741" y="446" type="curve" smooth="yes"/>
      <point x="1778" y="614" type="line" smooth="yes"/>
      <point x="1788" y="664"/>
      <point x="1800" y="758"/>
      <point x="1800" y="819" type="curve" smooth="yes"/>
      <point x="1800" y="1038"/>
      <point x="1700" y="1153"/>
      <point x="1513" y="1153" type="curve" smooth="yes"/>
      <point x="1366" y="1153"/>
      <point x="1255" y="1087"/>
      <point x="1169" y="946" type="curve"/>
      <point x="1161" y="946" type="line"/>
      <point x="1126" y="1079"/>
      <point x="1047" y="1153"/>
      <point x="891" y="1153" type="curve" smooth="yes"/>
      <point x="735" y="1153"/>
      <point x="643" y="1096"/>
      <point x="563" y="946" type="curve"/>
      <point x="555" y="946" type="line"/>
      <point x="571" y="1133" type="line"/>
      <point x="262" y="1133" type="line"/>
      <point x="23" y="0" type="line"/>
      <point x="410" y="0" type="line"/>
      <point x="528" y="551" type="line" smooth="yes"/>
      <point x="580" y="784"/>
      <point x="643" y="846"/>
      <point x="719" y="846" type="curve" smooth="yes"/>
      <point x="760" y="846"/>
      <point x="791" y="819"/>
      <point x="791" y="752" type="curve" smooth="yes"/>
      <point x="791" y="719"/>
      <point x="782" y="662"/>
      <point x="776" y="631" type="curve" smooth="yes"/>
      <point x="645" y="0" type="line"/>
      <point x="1032" y="0" type="line"/>
      <point x="1143" y="543" type="line" smooth="yes"/>
      <point x="1184" y="743"/>
      <point x="1241" y="846"/>
      <point x="1339" y="846" type="curve" smooth="yes"/>
      <point x="1382" y="846"/>
      <point x="1409" y="817"/>
      <point x="1409" y="764" type="curve" smooth="yes"/>
      <point x="1409" y="707"/>
      <point x="1401" y="657"/>
      <point x="1395" y="631" type="curve" smooth="yes"/>
      <point x="1343" y="371" type="line" smooth="yes"/>
      <point x="1333" y="322"/>
      <point x="1325" y="262"/>
      <point x="1325" y="233" type="curve" smooth="yes"/>
      <point x="1325" y="92"/>
      <point x="1382" y="29"/>
      <point x="1466" y="2" type="curve"/>
    </contour>
  </outline>
</glyph>
<glyph name="uni04C8" format="2">
  <advance width="1284"/>
  <unicode hex="04C8"/>
  <anchor x="418" y="-492" name="bottom"/>
  <anchor x="764" y="1133" name="top"/>
  <outline>
    <contour>
      <point x="487" y="-492" type="curve" smooth="yes"/>
      <point x="797" y="-492"/>
      <point x="956" y="-328"/>
      <point x="1020" y="-20" type="curve" smooth="yes"/>
      <point x="1262" y="1133" type="line"/>
      <point x="874" y="1133" type="line"/>
      <point x="786" y="723" type="line"/>
      <point x="565" y="723" type="line"/>
      <point x="651" y="1133" type="line"/>
      <point x="264" y="1133" type="line"/>
      <point x="23" y="0" type="line"/>
      <point x="410" y="0" type="line"/>
      <point x="504" y="440" type="line"/>
      <point x="727" y="440" type="line"/>
      <point x="639" y="20" type="line" smooth="yes"/>
      <point x="606" y="-133"/>
      <point x="541" y="-180"/>
      <point x="418" y="-180" type="curve" smooth="yes"/>
      <point x="365" y="-180"/>
      <point x="295" y="-166"/>
      <point x="238" y="-141" type="curve"/>
      <point x="238" y="-444" type="line"/>
      <point x="307" y="-471"/>
      <point x="418" y="-492"/>
    </contour>
  </outline>
</glyph>
<glyph name="uni0508" format="2">
  <advance width="1999"/>
  <unicode hex="0508"/>
  <anchor x="879" y="0" name="bottom"/>
  <anchor x="1190" y="1462" name="top"/>
  <outline>
    <contour>
      <point x="63" y="-20" type="curve" smooth="yes"/>
      <point x="328" y="-20"/>
      <point x="453" y="86"/>
      <point x="592" y="430" type="curve" smooth="yes"/>
      <point x="643" y="555"/>
      <point x="748" y="930"/>
      <point x="807" y="1151" type="curve"/>
      <point x="1006" y="1151" type="line"/>
      <point x="879" y="532" type="line" smooth="yes"/>
      <point x="862" y="449"/>
      <point x="854" y="397"/>
      <point x="854" y="344" type="curve" smooth="yes"/>
      <point x="854" y="104"/>
      <point x="1026" y="-20"/>
      <point x="1315" y="-20" type="curve" smooth="yes"/>
      <point x="1608" y="-20"/>
      <point x="1767" y="113"/>
      <point x="1827" y="393" type="curve" smooth="yes"/>
      <point x="1921" y="848" type="line"/>
      <point x="1530" y="848" type="line"/>
      <point x="1446" y="446" type="line" smooth="yes"/>
      <point x="1423" y="338"/>
      <point x="1384" y="303"/>
      <point x="1319" y="303" type="curve" smooth="yes"/>
      <point x="1274" y="303"/>
      <point x="1245" y="336"/>
      <point x="1245" y="377" type="curve" smooth="yes"/>
      <point x="1245" y="424"/>
      <point x="1260" y="487"/>
      <point x="1270" y="532" type="curve" smooth="yes"/>
      <point x="1462" y="1462" type="line"/>
      <point x="502" y="1462" type="line"/>
      <point x="381" y="995"/>
      <point x="287" y="680"/>
      <point x="223" y="520" type="curve" smooth="yes"/>
      <point x="135" y="299"/>
      <point x="70" y="291"/>
      <point x="10" y="291" type="curve" smooth="yes"/>
      <point x="-29" y="291"/>
      <point x="-51" y="297"/>
      <point x="-92" y="311" type="curve"/>
      <point x="-92" y="6" type="line"/>
      <point x="-39" y="-12"/>
      <point x="8" y="-20"/>
    </contour>
  </outline>
</glyph>
<glyph name="uni050E" format="2">
  <advance width="1466"/>
  <unicode hex="050E"/>
  <anchor x="612" y="0" name="bottom"/>
  <anchor x="924" y="1462" name="top"/>
  <outline>
    <contour>
      <point x="782" y="-20" type="curve" smooth="yes"/>
      <point x="1075" y="-20"/>
      <point x="1235" y="113"/>
      <point x="1294" y="393" type="curve" smooth="yes"/>
      <point x="1389" y="848" type="line"/>
      <point x="997" y="848" type="line"/>
      <point x="913" y="446" type="line" smooth="yes"/>
      <point x="891" y="338"/>
      <point x="852" y="303"/>
      <point x="786" y="303" type="curve" smooth="yes"/>
      <point x="741" y="303"/>
      <point x="713" y="336"/>
      <point x="713" y="377" type="curve" smooth="yes"/>
      <point x="713" y="424"/>
      <point x="727" y="487"/>
      <point x="737" y="532" type="curve" smooth="yes"/>
      <point x="864" y="1139" type="line"/>
      <point x="1182" y="1139" type="line"/>
      <point x="1253" y="1462" type="line"/>
      <point x="225" y="1462" type="line"/>
      <point x="156" y="1139" type="line"/>
      <point x="473" y="1139" type="line"/>
      <point x="346" y="532" type="line" smooth="yes"/>
      <point x="328" y="449"/>
      <point x="322" y="397"/>
      <point x="322" y="344" type="curve" smooth="yes"/>
      <point x="322" y="104"/>
      <point x="494" y="-20"/>
    </contour>
  </outline>
</glyph>
<glyph name="uni1AB2" format="2">
  <unicode hex="1AB2"/>
  <anchor x="131" y="1133" name="_top"/>
  <anchor x="211" y="1780" name="top"/>
  <outline>
    <contour>
      <point x="-47" y="1196" type="curve" smooth="yes"/>
      <point x="49" y="1196"/>
      <point x="133" y="1272"/>
      <point x="201" y="1343" type="curve"/>
      <point x="272" y="1257"/>
      <point x="354" y="1196"/>
      <point x="465" y="1196" type="curve" smooth="yes"/>
      <point x="633" y="1196"/>
      <point x="754" y="1333"/>
      <point x="754" y="1489" type="curve" smooth="yes"/>
      <point x="754" y="1661"/>
      <point x="635" y="1778"/>
      <point x="465" y="1778" type="curve" smooth="yes"/>
      <point x="352" y="1778"/>
      <point x="279" y="1714"/>
      <point x="209" y="1632" type="curve"/>
      <point x="135" y="1731"/>
      <point x="53" y="1780"/>
      <point x="-47" y="1780" type="curve" smooth="yes"/>
      <point x="-225" y="1780"/>
      <point x="-340" y="1649"/>
      <point x="-340" y="1489" type="curve" smooth="yes"/>
      <point x="-340" y="1313"/>
      <point x="-221" y="1196"/>
    </contour>
    <contour>
      <point x="-39" y="1360" type="curve" smooth="yes"/>
      <point x="-123" y="1360"/>
      <point x="-166" y="1421"/>
      <point x="-166" y="1489" type="curve" smooth="yes"/>
      <point x="-166" y="1561"/>
      <point x="-115" y="1620"/>
      <point x="-45" y="1620" type="curve" smooth="yes"/>
      <point x="23" y="1620"/>
      <point x="66" y="1579"/>
      <point x="119" y="1495" type="curve"/>
      <point x="66" y="1403"/>
      <point x="16" y="1360"/>
    </contour>
    <contour>
      <point x="451" y="1358" type="curve" smooth="yes"/>
      <point x="395" y="1358"/>
      <point x="338" y="1409"/>
      <point x="291" y="1487" type="curve"/>
      <point x="346" y="1575"/>
      <point x="397" y="1616"/>
      <point x="446" y="1616" type="curve" smooth="yes"/>
      <point x="526" y="1616"/>
      <point x="573" y="1561"/>
      <point x="573" y="1487" type="curve" smooth="yes"/>
      <point x="573" y="1417"/>
      <point x="524" y="1358"/>
    </contour>
  </outline>
</glyph>
<glyph name="uni1C88" format="2">
  <advance width="1147"/>
  <unicode hex="1C88"/>
  <anchor x="453" y="0" name="bottom"/>
  <anchor x="784" y="1556" name="top"/>
  <outline>
    <contour>
      <point x="483" y="-20" type="curve" smooth="yes"/>
      <point x="887" y="-20"/>
      <point x="1096" y="266"/>
      <point x="1096" y="627" type="curve" smooth="yes"/>
      <point x="1096" y="868"/>
      <point x="940" y="1047"/>
      <point x="651" y="1047" type="curve" smooth="yes"/>
      <point x="244" y="1047"/>
      <point x="35" y="760"/>
      <point x="35" y="422" type="curve" smooth="yes"/>
      <point x="35" y="119"/>
      <point x="236" y="-20"/>
    </contour>
    <contour>
      <point x="514" y="270" type="curve" smooth="yes"/>
      <point x="455" y="270"/>
      <point x="422" y="322"/>
      <point x="422" y="422" type="curve" smooth="yes"/>
      <point x="422" y="606"/>
      <point x="489" y="760"/>
      <point x="618" y="762" type="curve" smooth="yes"/>
      <point x="682" y="762"/>
      <point x="711" y="711"/>
      <point x="711" y="618" type="curve" smooth="yes"/>
      <point x="711" y="473"/>
      <point x="664" y="272"/>
    </contour>
    <contour>
      <point x="463" y="768" type="line"/>
      <point x="780" y="770" type="line"/>
      <point x="1329" y="1556" type="line"/>
      <point x="944" y="1556" type="line"/>
      <point x="690" y="1098" type="line"/>
      <point x="627" y="1556" type="line"/>
      <point x="242" y="1556" type="line"/>
    </contour>
  </outline>
</glyph>
<glyph name="uni1D00" format="2">
  <advance width="1163"/>
  <unicode hex="1D00"/>
  <anchor x="461" y="0" name="bottom"/>
  <anchor x="702" y="1133" name="top"/>
  <outline>
    <contour>
      <point x="-121" y="0" type="line"/>
      <point x="211" y="0" type="line"/>
      <point x="317" y="197" type="line"/>
      <point x="707" y="197" type="line"/>
      <point x="719" y="0" type="line"/>
      <point x="1028" y="0" type="line"/>
      <point x="897" y="1133" type="line"/>
      <point x="492" y="1133" type="line"/>
    </contour>
    <contour>
      <point x="436" y="463" type="line"/>
      <point x="612" y="836" type="line" smooth="yes"/>
      <point x="633" y="874"/>
      <point x="647" y="905"/>
      <point x="657" y="932" type="curve"/>
      <point x="662" y="932" type="line"/>
      <point x="662" y="889"/>
      <point x="664" y="842"/>
      <point x="668" y="797" type="curve" smooth="yes"/>
      <point x="692" y="463" type="line"/>
    </contour>
  </outline>
</glyph>
<glyph name="uni1D01" format="2">
  <advance width="1649"/>
  <unicode hex="1D01"/>
  <anchor x="705" y="0" name="bottom"/>
  <anchor x="946" y="1133" name="top"/>
  <outline>
    <contour>
      <point x="-125" y="0" type="line"/>
      <point x="213" y="0" type="line"/>
      <point x="360" y="197" type="line"/>
      <point x="715" y="197" type="line"/>
      <point x="668" y="0" type="line"/>
      <point x="1399" y="0" type="line"/>
      <point x="1448" y="262" type="line"/>
      <point x="1040" y="262" type="line"/>
      <point x="1083" y="457" type="line"/>
      <point x="1466" y="457" type="line"/>
      <point x="1520" y="717" type="line"/>
      <point x="1141" y="717" type="line"/>
      <point x="1178" y="872" type="line"/>
      <point x="1585" y="872" type="line"/>
      <point x="1636" y="1133" type="line"/>
      <point x="627" y="1133" type="line"/>
    </contour>
    <contour>
      <point x="524" y="463" type="line"/>
      <point x="793" y="872" type="line"/>
      <point x="856" y="872" type="line"/>
      <point x="770" y="463" type="line"/>
    </contour>
  </outline>
</glyph>
<glyph name="uni1D06" format="2">
  <advance width="1192"/>
  <unicode hex="1D06"/>
  <anchor x="475" y="0" name="bottom"/>
  <anchor x="717" y="1133" name="top"/>
  <outline>
    <contour>
      <point x="6" y="0" type="line"/>
      <point x="434" y="0" type="line" smooth="yes"/>
      <point x="856" y="0"/>
      <point x="1094" y="256"/>
      <point x="1094" y="709" type="curve" smooth="yes"/>
      <point x="1094" y="975"/>
      <point x="918" y="1133"/>
      <point x="606" y="1133" type="curve" smooth="yes"/>
      <point x="246" y="1133" type="line"/>
      <point x="150" y="692" type="line"/>
      <point x="39" y="692" type="line"/>
      <point x="-16" y="428" type="line"/>
      <point x="100" y="428" type="line"/>
    </contour>
    <contour>
      <point x="381" y="264" type="line"/>
      <point x="420" y="428" type="line"/>
      <point x="578" y="428" type="line"/>
      <point x="631" y="692" type="line"/>
      <point x="471" y="692" type="line"/>
      <point x="516" y="870" type="line"/>
      <point x="584" y="870" type="line" smooth="yes"/>
      <point x="700" y="870"/>
      <point x="766" y="807"/>
      <point x="766" y="688" type="curve" smooth="yes"/>
      <point x="766" y="481"/>
      <point x="680" y="264"/>
      <point x="444" y="264" type="curve" smooth="yes"/>
    </contour>
  </outline>
</glyph>
<glyph name="uni1D17" format="2">
  <advance width="1221"/>
  <unicode hex="1D17"/>
  <anchor x="489" y="0" name="bottom"/>
  <anchor x="602" y="586" name="top"/>
  <outline>
    <contour>
      <point x="569" y="-16" type="curve" smooth="yes"/>
      <point x="915" y="-16"/>
      <point x="1090" y="197"/>
      <point x="1133" y="586" type="curve"/>
      <point x="741" y="586" type="line"/>
      <point x="731" y="449"/>
      <point x="705" y="283"/>
      <point x="584" y="283" type="curve" smooth="yes"/>
      <point x="506" y="283"/>
      <point x="465" y="334"/>
      <point x="465" y="440" type="curve" smooth="yes"/>
      <point x="465" y="489"/>
      <point x="469" y="541"/>
      <point x="477" y="586" type="curve"/>
      <point x="90" y="586" type="line"/>
      <point x="84" y="535"/>
      <point x="80" y="483"/>
      <point x="80" y="436" type="curve" smooth="yes"/>
      <point x="80" y="147"/>
      <point x="250" y="-16"/>
    </contour>
  </outline>
</glyph>
<glyph name="uni1D18" format="2">
  <advance width="1178"/>
  <unicode hex="1D18"/>
  <anchor x="469" y="0" name="bottom"/>
  <anchor x="711" y="1133" name="top"/>
  <outline>
    <contour>
      <point x="33" y="0" type="line"/>
      <point x="354" y="0" type="line"/>
      <point x="432" y="367" type="line"/>
      <point x="575" y="367" type="line" smooth="yes"/>
      <point x="850" y="367"/>
      <point x="1102" y="485"/>
      <point x="1102" y="780" type="curve" smooth="yes"/>
      <point x="1102" y="983"/>
      <point x="983" y="1133"/>
      <point x="657" y="1133" type="curve" smooth="yes"/>
      <point x="272" y="1133" type="line"/>
    </contour>
    <contour>
      <point x="485" y="635" type="line"/>
      <point x="541" y="870" type="line"/>
      <point x="657" y="870" type="line" smooth="yes"/>
      <point x="739" y="870"/>
      <point x="782" y="829"/>
      <point x="782" y="772" type="curve" smooth="yes"/>
      <point x="782" y="674"/>
      <point x="694" y="635"/>
      <point x="590" y="635" type="curve" smooth="yes"/>
    </contour>
  </outline>
</glyph>
<glyph name="uni1D22" format="2">
  <advance width="938"/>
  <unicode hex="1D22"/>
  <anchor x="348" y="0" name="bottom"/>
  <anchor x="590" y="1133" name="top"/>
  <outline>
    <contour>
      <point x="-90" y="0" type="line"/>
      <point x="776" y="0" type="line"/>
      <point x="829" y="262" type="line"/>
      <point x="371" y="262" type="line"/>
      <point x="950" y="936" type="line"/>
      <point x="991" y="1133" type="line"/>
      <point x="160" y="1133" type="line"/>
      <point x="111" y="870" type="line"/>
      <point x="516" y="870" type="line"/>
      <point x="-55" y="197" type="line"/>
    </contour>
  </outline>
</glyph>
<glyph name="uni1D27" format="2">
  <advance width="1069"/>
  <unicode hex="1D27"/>
  <outline>
    <contour>
      <point x="-117" y="0" type="line"/>
      <point x="213" y="0" type="line"/>
      <point x="510" y="610" type="line" smooth="yes"/>
      <point x="547" y="684"/>
      <point x="578" y="774"/>
      <point x="602" y="846" type="curve"/>
      <point x="602" y="700"/>
      <point x="604" y="629"/>
      <point x="606" y="586" type="curve" smooth="yes"/>
      <point x="647" y="0" type="line"/>
      <point x="954" y="0" type="line"/>
      <point x="836" y="1143" type="line"/>
      <point x="471" y="1143" type="line"/>
    </contour>
  </outline>
</glyph>
<glyph name="uni1D3B" format="2">
  <advance width="1053"/>
  <unicode hex="1D3B"/>
  <anchor x="549" y="588" name="bottom"/>
  <anchor x="764" y="1464" name="top"/>
  <anchor x="1257" y="1464" name="topright"/>
  <outline>
    <contour>
      <point x="129" y="588" type="line"/>
      <point x="426" y="588" type="line"/>
      <point x="883" y="1174" type="line"/>
      <point x="885" y="1171" type="line"/>
      <point x="870" y="1120"/>
      <point x="838" y="1016"/>
      <point x="823" y="954" type="curve" smooth="yes"/>
      <point x="737" y="588" type="line"/>
      <point x="967" y="588" type="line"/>
      <point x="1169" y="1464" type="line"/>
      <point x="872" y="1464" type="line"/>
      <point x="410" y="889" type="line"/>
      <point x="406" y="891" type="line"/>
      <point x="416" y="920"/>
      <point x="463" y="1053"/>
      <point x="481" y="1133" type="curve" smooth="yes"/>
      <point x="559" y="1464" type="line"/>
      <point x="332" y="1464" type="line"/>
    </contour>
  </outline>
</glyph>
<glyph name="uni1D8F" format="2">
  <advance width="1395"/>
  <unicode hex="1D8F"/>
  <outline>
    <contour>
      <point x="1083" y="-492" type="curve" smooth="yes"/>
      <point x="1143" y="-492"/>
      <point x="1214" y="-483"/>
      <point x="1266" y="-469" type="curve"/>
      <point x="1266" y="-213" type="line"/>
      <point x="1225" y="-225"/>
      <point x="1204" y="-229"/>
      <point x="1169" y="-229" type="curve" smooth="yes"/>
      <point x="1137" y="-229"/>
      <point x="1110" y="-213"/>
      <point x="1110" y="-172" type="curve" smooth="yes"/>
      <point x="1110" y="-158"/>
      <point x="1112" y="-143"/>
      <point x="1116" y="-123" type="curve" smooth="yes"/>
      <point x="1214" y="324" type="line"/>
      <point x="1069" y="324" type="line"/>
      <point x="774" y="0" type="line"/>
      <point x="834" y="0" type="line"/>
      <point x="811" y="-106" type="line" smooth="yes"/>
      <point x="803" y="-147"/>
      <point x="797" y="-199"/>
      <point x="797" y="-244" type="curve" smooth="yes"/>
      <point x="797" y="-385"/>
      <point x="893" y="-492"/>
    </contour>
    <component base="a.ss01"/>
  </outline>
</glyph>
<glyph name="uni1D99" format="2">
  <advance width="1274"/>
  <unicode hex="1D99"/>
  <outline>
    <contour>
      <point x="1075" y="-492" type="curve" smooth="yes"/>
      <point x="1135" y="-492"/>
      <point x="1206" y="-483"/>
      <point x="1257" y="-469" type="curve"/>
      <point x="1257" y="-213" type="line"/>
      <point x="1217" y="-225"/>
      <point x="1196" y="-229"/>
      <point x="1161" y="-229" type="curve" smooth="yes"/>
      <point x="1128" y="-229"/>
      <point x="1102" y="-213"/>
      <point x="1102" y="-172" type="curve" smooth="yes"/>
      <point x="1102" y="-158"/>
      <point x="1104" y="-143"/>
      <point x="1108" y="-123" type="curve" smooth="yes"/>
      <point x="1206" y="324" type="line"/>
      <point x="1079" y="324" type="line"/>
      <point x="1251" y="1133" type="line"/>
      <point x="864" y="1133" type="line"/>
      <point x="748" y="582" type="line" smooth="yes"/>
      <point x="705" y="379"/>
      <point x="631" y="289"/>
      <point x="563" y="289" type="curve" smooth="yes"/>
      <point x="522" y="289"/>
      <point x="487" y="317"/>
      <point x="487" y="375" type="curve" smooth="yes"/>
      <point x="487" y="422"/>
      <point x="498" y="481"/>
      <point x="506" y="516" type="curve" smooth="yes"/>
      <point x="635" y="1133" type="line"/>
      <point x="248" y="1133" type="line"/>
      <point x="121" y="530" type="line" smooth="yes"/>
      <point x="106" y="459"/>
      <point x="96" y="377"/>
      <point x="96" y="301" type="curve" smooth="yes"/>
      <point x="96" y="127"/>
      <point x="184" y="-20"/>
      <point x="395" y="-20" type="curve" smooth="yes"/>
      <point x="539" y="-20"/>
      <point x="633" y="31"/>
      <point x="707" y="158" type="curve"/>
      <point x="715" y="158" type="line"/>
      <point x="702" y="0" type="line"/>
      <point x="825" y="0" type="line"/>
      <point x="803" y="-106" type="line" smooth="yes"/>
      <point x="795" y="-147"/>
      <point x="788" y="-199"/>
      <point x="788" y="-244" type="curve" smooth="yes"/>
      <point x="788" y="-385"/>
      <point x="885" y="-492"/>
    </contour>
  </outline>
</glyph>
<glyph name="dottedgrave" format="2">
  <unicode hex="1DC0"/>
  <anchor x="98" y="1133" name="_top"/>
  <anchor x="178" y="1706" name="top"/>
  <outline>
    <contour>
      <point x="129" y="1305" type="curve"/>
      <point x="289" y="1305" type="line"/>
      <point x="295" y="1333" type="line"/>
      <point x="295" y="1436"/>
      <point x="291" y="1532"/>
      <point x="291" y="1632" type="curve"/>
      <point x="14" y="1632" type="line"/>
      <point x="10" y="1612" type="line"/>
      <point x="27" y="1520"/>
      <point x="78" y="1413"/>
    </contour>
    <contour>
      <point x="-162" y="1260" type="curve" smooth="yes"/>
      <point x="-35" y="1260"/>
      <point x="2" y="1327"/>
      <point x="2" y="1419" type="curve" smooth="yes"/>
      <point x="2" y="1513"/>
      <point x="-70" y="1534"/>
      <point x="-135" y="1534" type="curve" smooth="yes"/>
      <point x="-242" y="1534"/>
      <point x="-301" y="1483"/>
      <point x="-301" y="1370" type="curve" smooth="yes"/>
      <point x="-301" y="1284"/>
      <point x="-244" y="1260"/>
    </contour>
    <contour>
      <point x="479" y="1432" type="curve" smooth="yes"/>
      <point x="608" y="1432"/>
      <point x="647" y="1499"/>
      <point x="647" y="1593" type="curve" smooth="yes"/>
      <point x="647" y="1686"/>
      <point x="575" y="1706"/>
      <point x="508" y="1706" type="curve" smooth="yes"/>
      <point x="403" y="1706"/>
      <point x="342" y="1655"/>
      <point x="342" y="1542" type="curve" smooth="yes"/>
      <point x="342" y="1456"/>
      <point x="401" y="1432"/>
    </contour>
  </outline>
</glyph>
<glyph name="uni1E11" format="2">
  <advance width="1237"/>
  <unicode hex="1E11"/>
  <anchor x="410" y="-492" name="bottom"/>
  <anchor x="829" y="1556" name="top"/>
  <outline>
    <contour>
      <point x="432" y="-492" type="curve" smooth="yes"/>
      <point x="633" y="-492"/>
      <point x="748" y="-397"/>
      <point x="748" y="-236" type="curve" smooth="yes"/>
      <point x="748" y="-117"/>
      <point x="674" y="-63"/>
      <point x="569" y="-41" type="curve"/>
      <point x="645" y="98" type="line"/>
      <point x="440" y="98" type="line"/>
      <point x="313" y="-135" type="line"/>
      <point x="436" y="-160"/>
      <point x="459" y="-199"/>
      <point x="459" y="-236" type="curve" smooth="yes"/>
      <point x="459" y="-272"/>
      <point x="434" y="-285"/>
      <point x="391" y="-285" type="curve" smooth="yes"/>
      <point x="367" y="-285"/>
      <point x="285" y="-272"/>
      <point x="240" y="-258" type="curve"/>
      <point x="240" y="-463" type="line"/>
      <point x="289" y="-481"/>
      <point x="350" y="-492"/>
    </contour>
    <component base="d"/>
  </outline>
</glyph>
<glyph name="uni1FCF" format="2">
  <advance width="1229"/>
  <unicode hex="1FCF"/>
  <anchor x="731" y="1133" name="_top"/>
  <anchor x="842" y="1812" name="top"/>
  <outline>
    <contour>
      <point x="451" y="1561" type="curve"/>
      <point x="608" y="1561" type="line"/>
      <point x="618" y="1610"/>
      <point x="647" y="1649"/>
      <point x="694" y="1649" type="curve" smooth="yes"/>
      <point x="768" y="1649"/>
      <point x="866" y="1561"/>
      <point x="989" y="1561" type="curve" smooth="yes"/>
      <point x="1112" y="1561"/>
      <point x="1194" y="1630"/>
      <point x="1225" y="1812" type="curve"/>
      <point x="1071" y="1812" type="line"/>
      <point x="1057" y="1761"/>
      <point x="1034" y="1724"/>
      <point x="973" y="1724" type="curve" smooth="yes"/>
      <point x="913" y="1724"/>
      <point x="827" y="1812"/>
      <point x="698" y="1812" type="curve" smooth="yes"/>
      <point x="563" y="1812"/>
      <point x="475" y="1733"/>
    </contour>
    <contour>
      <point x="610" y="1200" type="line"/>
      <point x="788" y="1200"/>
      <point x="922" y="1268"/>
      <point x="922" y="1419" type="curve" smooth="yes"/>
      <point x="922" y="1495"/>
      <point x="866" y="1540"/>
      <point x="791" y="1540" type="curve" smooth="yes"/>
      <point x="705" y="1540"/>
      <point x="659" y="1493"/>
      <point x="659" y="1434" type="curve" smooth="yes"/>
      <point x="659" y="1370"/>
      <point x="707" y="1350"/>
      <point x="752" y="1343" type="curve"/>
      <point x="739" y="1307"/>
      <point x="696" y="1290"/>
      <point x="629" y="1290" type="curve"/>
    </contour>
  </outline>
</glyph>
<glyph name="uni1FDE" format="2">
  <advance width="1229"/>
  <unicode hex="1FDE"/>
  <anchor x="713" y="1133" name="_top"/>
  <anchor x="825" y="1608" name="top"/>
  <outline>
    <contour>
      <point x="752" y="1208" type="line"/>
      <point x="940" y="1208" type="line"/>
      <point x="1022" y="1294"/>
      <point x="1147" y="1464"/>
      <point x="1196" y="1561" type="curve"/>
      <point x="1196" y="1589" type="line"/>
      <point x="881" y="1589" type="line"/>
      <point x="856" y="1501"/>
      <point x="795" y="1315"/>
      <point x="752" y="1235" type="curve"/>
    </contour>
    <contour>
      <point x="707" y="1208" type="curve"/>
      <point x="729" y="1303" type="line"/>
      <point x="655" y="1303"/>
      <point x="602" y="1329"/>
      <point x="602" y="1366" type="curve" smooth="yes"/>
      <point x="600" y="1368"/>
      <point x="602" y="1372"/>
      <point x="602" y="1376" type="curve"/>
      <point x="678" y="1380"/>
      <point x="768" y="1395"/>
      <point x="768" y="1493" type="curve" smooth="yes"/>
      <point x="768" y="1569"/>
      <point x="709" y="1608"/>
      <point x="633" y="1608" type="curve"/>
      <point x="520" y="1608"/>
      <point x="446" y="1518"/>
      <point x="446" y="1411" type="curve" smooth="yes"/>
      <point x="446" y="1288"/>
      <point x="516" y="1217"/>
    </contour>
  </outline>
</glyph>
<glyph name="uni1FDF" format="2">
  <advance width="1229"/>
  <unicode hex="1FDF"/>
  <anchor x="752" y="1133" name="_top"/>
  <anchor x="842" y="1812" name="top"/>
  <outline>
    <contour>
      <point x="451" y="1561" type="curve"/>
      <point x="608" y="1561" type="line"/>
      <point x="618" y="1610"/>
      <point x="647" y="1649"/>
      <point x="694" y="1649" type="curve" smooth="yes"/>
      <point x="768" y="1649"/>
      <point x="858" y="1561"/>
      <point x="989" y="1561" type="curve" smooth="yes"/>
      <point x="1112" y="1561"/>
      <point x="1194" y="1630"/>
      <point x="1225" y="1812" type="curve"/>
      <point x="1071" y="1812" type="line"/>
      <point x="1057" y="1761"/>
      <point x="1034" y="1724"/>
      <point x="973" y="1724" type="curve" smooth="yes"/>
      <point x="913" y="1724"/>
      <point x="827" y="1812"/>
      <point x="698" y="1812" type="curve" smooth="yes"/>
      <point x="563" y="1812"/>
      <point x="475" y="1733"/>
    </contour>
    <contour>
      <point x="874" y="1196" type="curve"/>
      <point x="897" y="1286" type="line"/>
      <point x="831" y="1286"/>
      <point x="795" y="1307"/>
      <point x="795" y="1337" type="curve" smooth="yes"/>
      <point x="793" y="1337"/>
      <point x="795" y="1341"/>
      <point x="795" y="1343" type="curve"/>
      <point x="854" y="1352"/>
      <point x="926" y="1374"/>
      <point x="926" y="1450" type="curve" smooth="yes"/>
      <point x="926" y="1509"/>
      <point x="874" y="1540"/>
      <point x="807" y="1540" type="curve" smooth="yes"/>
      <point x="715" y="1540"/>
      <point x="647" y="1475"/>
      <point x="647" y="1374" type="curve" smooth="yes"/>
      <point x="647" y="1278"/>
      <point x="711" y="1202"/>
    </contour>
  </outline>
</glyph>
<glyph name="uni1FED" format="2">
  <advance width="1135"/>
  <unicode hex="1FED"/>
  <anchor x="727" y="1133" name="_top"/>
  <outline>
    <contour>
      <point x="698" y="1270" type="curve"/>
      <point x="879" y="1270" type="line"/>
      <point x="885" y="1296" type="line"/>
      <point x="866" y="1378"/>
      <point x="852" y="1499"/>
      <point x="852" y="1597" type="curve"/>
      <point x="571" y="1597" type="line"/>
      <point x="567" y="1577" type="line"/>
      <point x="586" y="1485"/>
      <point x="639" y="1360"/>
    </contour>
    <contour>
      <point x="375" y="1255" type="curve" smooth="yes"/>
      <point x="510" y="1255"/>
      <point x="557" y="1325"/>
      <point x="557" y="1427" type="curve" smooth="yes"/>
      <point x="557" y="1522"/>
      <point x="477" y="1540"/>
      <point x="401" y="1540" type="curve" smooth="yes"/>
      <point x="287" y="1540"/>
      <point x="221" y="1489"/>
      <point x="221" y="1370" type="curve" smooth="yes"/>
      <point x="221" y="1280"/>
      <point x="285" y="1255"/>
    </contour>
    <contour>
      <point x="1081" y="1255" type="curve" smooth="yes"/>
      <point x="1219" y="1255"/>
      <point x="1262" y="1325"/>
      <point x="1262" y="1427" type="curve" smooth="yes"/>
      <point x="1262" y="1522"/>
      <point x="1184" y="1540"/>
      <point x="1110" y="1540" type="curve" smooth="yes"/>
      <point x="995" y="1540"/>
      <point x="928" y="1489"/>
      <point x="928" y="1370" type="curve" smooth="yes"/>
      <point x="928" y="1280"/>
      <point x="993" y="1255"/>
    </contour>
  </outline>
</glyph>
<glyph name="uni1FEF" format="2">
  <advance width="1229"/>
  <unicode hex="1FEF"/>
  <anchor x="727" y="1133" name="_top"/>
  <anchor x="721" y="1569" name="top"/>
  <outline>
    <contour>
      <point x="680" y="1241" type="curve"/>
      <point x="866" y="1241" type="line"/>
      <point x="872" y="1268" type="line"/>
      <point x="862" y="1356"/>
      <point x="854" y="1470"/>
      <point x="854" y="1569" type="curve"/>
      <point x="563" y="1569" type="line"/>
      <point x="559" y="1548" type="line"/>
      <point x="578" y="1458"/>
      <point x="629" y="1343"/>
    </contour>
  </outline>
</glyph>
<glyph name="uni2012" format="2">
  <advance width="1100"/>
  <unicode hex="2012"/>
  <outline>
    <contour>
      <point x="74" y="578" type="line"/>
      <point x="1034" y="578" type="line"/>
      <point x="1098" y="874" type="line"/>
      <point x="137" y="874" type="line"/>
    </contour>
  </outline>
</glyph>
<glyph name="quotedblleft" format="2">
  <advance width="997"/>
  <unicode hex="201C"/>
  <outline>
    <contour>
      <point x="614" y="961" type="line"/>
      <point x="963" y="961" type="line"/>
      <point x="1016" y="1102"/>
      <point x="1081" y="1300"/>
      <point x="1151" y="1462" type="curve"/>
      <point x="862" y="1462" type="line"/>
      <point x="766" y="1309"/>
      <point x="668" y="1122"/>
      <point x="606" y="983" type="curve"/>
    </contour>
    <contour>
      <point x="119" y="961" type="line"/>
      <point x="467" y="961" type="line"/>
      <point x="518" y="1102"/>
      <point x="586" y="1300"/>
      <point x="655" y="1462" type="curve"/>
      <point x="367" y="1462" type="line"/>
      <point x="270" y="1309"/>
      <point x="170" y="1122"/>
      <point x="109" y="983" type="curve"/>
    </contour>
  </outline>
</glyph>
<glyph name="daggerdbl" format="2">
  <advance width="1110"/>
  <unicode hex="2021"/>
  <outline>
    <contour>
      <point x="262" y="0" type="line"/>
      <point x="596" y="0" type="line"/>
      <point x="623" y="373" type="line"/>
      <point x="934" y="346" type="line"/>
      <point x="993" y="633" type="line"/>
      <point x="672" y="606" type="line"/>
      <point x="756" y="786" type="line"/>
      <point x="748" y="950" type="line"/>
      <point x="1057" y="924" type="line"/>
      <point x="1118" y="1210" type="line"/>
      <point x="795" y="1184" type="line"/>
      <point x="928" y="1556" type="line"/>
      <point x="594" y="1556" type="line"/>
      <point x="567" y="1184" type="line"/>
      <point x="256" y="1210" type="line"/>
      <point x="197" y="924" type="line"/>
      <point x="520" y="950" type="line"/>
      <point x="438" y="786" type="line"/>
      <point x="444" y="606" type="line"/>
      <point x="133" y="633" type="line"/>
      <point x="72" y="346" type="line"/>
      <point x="395" y="373" type="line"/>
    </contour>
  </outline>
</glyph>
<glyph name="bullet" format="2">
  <advance width="803"/>
  <unicode hex="2022"/>
  <outline>
    <contour>
      <point x="379" y="389" type="curve" smooth="yes"/>
      <point x="647" y="389"/>
      <point x="762" y="578"/>
      <point x="762" y="805" type="curve" smooth="yes"/>
      <point x="762" y="985"/>
      <point x="678" y="1106"/>
      <point x="467" y="1106" type="curve" smooth="yes"/>
      <point x="217" y="1106"/>
      <point x="86" y="907"/>
      <point x="86" y="688" type="curve" smooth="yes"/>
      <point x="86" y="510"/>
      <point x="190" y="389"/>
    </contour>
  </outline>
</glyph>
<glyph name="perthousand" format="2">
  <advance width="2697"/>
  <unicode hex="2030"/>
  <outline>
    <contour>
      <point x="252" y="0" type="line"/>
      <point x="549" y="0" type="line"/>
      <point x="1630" y="1462" type="line"/>
      <point x="1341" y="1462" type="line"/>
    </contour>
    <contour>
      <point x="397" y="565" type="curve" smooth="yes"/>
      <point x="676" y="565"/>
      <point x="842" y="844"/>
      <point x="842" y="1161" type="curve" smooth="yes"/>
      <point x="842" y="1360"/>
      <point x="725" y="1483"/>
      <point x="526" y="1483" type="curve" smooth="yes"/>
      <point x="215" y="1483"/>
      <point x="80" y="1190"/>
      <point x="80" y="887" type="curve" smooth="yes"/>
      <point x="80" y="682"/>
      <point x="186" y="565"/>
    </contour>
    <contour>
      <point x="424" y="807" type="curve" smooth="yes"/>
      <point x="387" y="807"/>
      <point x="371" y="836"/>
      <point x="371" y="891" type="curve" smooth="yes"/>
      <point x="371" y="1047"/>
      <point x="424" y="1241"/>
      <point x="498" y="1241" type="curve" smooth="yes"/>
      <point x="537" y="1241"/>
      <point x="551" y="1214"/>
      <point x="551" y="1157" type="curve" smooth="yes"/>
      <point x="551" y="1016"/>
      <point x="504" y="807"/>
    </contour>
    <contour>
      <point x="1374" y="-20" type="curve" smooth="yes"/>
      <point x="1653" y="-20"/>
      <point x="1819" y="258"/>
      <point x="1819" y="575" type="curve" smooth="yes"/>
      <point x="1819" y="774"/>
      <point x="1702" y="897"/>
      <point x="1503" y="897" type="curve" smooth="yes"/>
      <point x="1192" y="897"/>
      <point x="1057" y="604"/>
      <point x="1057" y="301" type="curve" smooth="yes"/>
      <point x="1057" y="96"/>
      <point x="1163" y="-20"/>
    </contour>
    <contour>
      <point x="1401" y="221" type="curve" smooth="yes"/>
      <point x="1364" y="221"/>
      <point x="1348" y="250"/>
      <point x="1348" y="305" type="curve" smooth="yes"/>
      <point x="1348" y="461"/>
      <point x="1401" y="655"/>
      <point x="1475" y="655" type="curve" smooth="yes"/>
      <point x="1513" y="655"/>
      <point x="1528" y="629"/>
      <point x="1528" y="571" type="curve" smooth="yes"/>
      <point x="1528" y="430"/>
      <point x="1481" y="221"/>
    </contour>
    <contour>
      <point x="2193" y="-20" type="curve" smooth="yes"/>
      <point x="2472" y="-20"/>
      <point x="2638" y="258"/>
      <point x="2638" y="575" type="curve" smooth="yes"/>
      <point x="2638" y="774"/>
      <point x="2521" y="897"/>
      <point x="2322" y="897" type="curve" smooth="yes"/>
      <point x="2011" y="897"/>
      <point x="1876" y="604"/>
      <point x="1876" y="301" type="curve" smooth="yes"/>
      <point x="1876" y="96"/>
      <point x="1982" y="-20"/>
    </contour>
    <contour>
      <point x="2220" y="221" type="curve" smooth="yes"/>
      <point x="2183" y="221"/>
      <point x="2167" y="250"/>
      <point x="2167" y="305" type="curve" smooth="yes"/>
      <point x="2167" y="461"/>
      <point x="2220" y="655"/>
      <point x="2294" y="655" type="curve" smooth="yes"/>
      <point x="2333" y="655"/>
      <point x="2347" y="629"/>
      <point x="2347" y="571" type="curve" smooth="yes"/>
      <point x="2347" y="430"/>
      <point x="2300" y="221"/>
    </contour>
  </outline>
</glyph>
<glyph name="reversedsemicolon" format="2">
  <advance width="608"/>
  <unicode hex="204F"/>
  <outline>
    <contour>
      <point x="137" y="-264" type="curve"/>
      <point x="426" y="-264" type="line"/>
      <point x="422" y="-102"/>
      <point x="440" y="96"/>
      <point x="451" y="238" type="curve"/>
      <point x="102" y="238" type="line"/>
      <point x="84" y="215" type="line"/>
      <point x="86" y="70"/>
      <point x="104" y="-115"/>
    </contour>
    <contour>
      <point x="365" y="758" type="curve"/>
      <point x="508" y="758"/>
      <point x="600" y="852"/>
      <point x="600" y="981" type="curve"/>
      <point x="600" y="1085"/>
      <point x="528" y="1147"/>
      <point x="422" y="1147" type="curve"/>
      <point x="246" y="1147"/>
      <point x="180" y="1032"/>
      <point x="180" y="920" type="curve"/>
      <point x="180" y="838"/>
      <point x="227" y="758"/>
    </contour>
  </outline>
</glyph>
<glyph name="sixsuperior" format="2">
  <advance width="848"/>
  <unicode hex="2076"/>
  <outline>
    <contour>
      <point x="549" y="838" type="curve" smooth="yes"/>
      <point x="780" y="838"/>
      <point x="922" y="991"/>
      <point x="922" y="1194" type="curve" smooth="yes"/>
      <point x="922" y="1337"/>
      <point x="827" y="1421"/>
      <point x="696" y="1421" type="curve" smooth="yes"/>
      <point x="608" y="1421"/>
      <point x="541" y="1397"/>
      <point x="489" y="1341" type="curve"/>
      <point x="481" y="1341" type="line"/>
      <point x="498" y="1442"/>
      <point x="569" y="1534"/>
      <point x="745" y="1534" type="curve" smooth="yes"/>
      <point x="811" y="1534"/>
      <point x="885" y="1524"/>
      <point x="932" y="1507" type="curve"/>
      <point x="932" y="1741" type="line"/>
      <point x="897" y="1749"/>
      <point x="823" y="1757"/>
      <point x="752" y="1757" type="curve" smooth="yes"/>
      <point x="375" y="1757"/>
      <point x="205" y="1470"/>
      <point x="205" y="1202" type="curve" smooth="yes"/>
      <point x="205" y="973"/>
      <point x="317" y="838"/>
    </contour>
    <contour>
      <point x="549" y="1047" type="curve" smooth="yes"/>
      <point x="506" y="1047"/>
      <point x="481" y="1083"/>
      <point x="481" y="1120" type="curve" smooth="yes"/>
      <point x="481" y="1190"/>
      <point x="510" y="1251"/>
      <point x="584" y="1251" type="curve" smooth="yes"/>
      <point x="618" y="1251"/>
      <point x="645" y="1229"/>
      <point x="645" y="1182" type="curve" smooth="yes"/>
      <point x="645" y="1120"/>
      <point x="610" y="1047"/>
    </contour>
  </outline>
</glyph>
<glyph name="uni20A0" format="2">
  <advance width="1188"/>
  <unicode hex="20A0"/>
  <outline>
    <contour>
      <point x="440" y="0" type="line"/>
      <point x="1014" y="0" type="line"/>
      <point x="1077" y="297" type="line"/>
      <point x="838" y="297" type="line"/>
      <point x="854" y="373" type="line"/>
      <point x="1069" y="373" type="line"/>
      <point x="1130" y="666" type="line"/>
      <point x="915" y="666" type="line"/>
      <point x="928" y="723" type="line"/>
      <point x="1167" y="723" type="line"/>
      <point x="1231" y="1018" type="line"/>
      <point x="657" y="1018" type="line"/>
      <point x="582" y="668" type="line"/>
      <point x="516" y="666"/>
      <point x="463" y="705"/>
      <point x="463" y="797" type="curve" smooth="yes"/>
      <point x="463" y="1020"/>
      <point x="530" y="1178"/>
      <point x="686" y="1178" type="curve" smooth="yes"/>
      <point x="752" y="1178"/>
      <point x="805" y="1161"/>
      <point x="860" y="1126" type="curve"/>
      <point x="1014" y="1419" type="line"/>
      <point x="952" y="1450"/>
      <point x="870" y="1483"/>
      <point x="707" y="1483" type="curve"/>
      <point x="350" y="1483"/>
      <point x="113" y="1214"/>
      <point x="113" y="788" type="curve" smooth="yes"/>
      <point x="113" y="518"/>
      <point x="281" y="373"/>
      <point x="520" y="373" type="curve"/>
    </contour>
  </outline>
</glyph>
<glyph name="uni20BB" format="2">
  <advance width="1401"/>
  <unicode hex="20BB"/>
  <outline>
    <contour>
      <point x="745" y="-14" type="curve" smooth="yes"/>
      <point x="825" y="-14"/>
      <point x="887" y="-6"/>
      <point x="950" y="16" type="curve"/>
      <point x="1030" y="356" type="line"/>
      <point x="938" y="326"/>
      <point x="870" y="313"/>
      <point x="815" y="313" type="curve" smooth="yes"/>
      <point x="631" y="313"/>
      <point x="559" y="369"/>
      <point x="559" y="530" type="curve" smooth="yes"/>
      <point x="559" y="580"/>
      <point x="563" y="635"/>
      <point x="573" y="692" type="curve" smooth="yes"/>
      <point x="600" y="815" type="line"/>
      <point x="1004" y="815" type="line" smooth="yes"/>
      <point x="1128" y="815"/>
      <point x="1180" y="768"/>
      <point x="1180" y="696" type="curve" smooth="yes"/>
      <point x="1180" y="643"/>
      <point x="1149" y="592"/>
      <point x="1094" y="592" type="curve" smooth="yes"/>
      <point x="1059" y="592"/>
      <point x="1036" y="614"/>
      <point x="1020" y="647" type="curve" smooth="yes"/>
      <point x="963" y="760" type="line"/>
      <point x="856" y="664" type="line"/>
      <point x="797" y="780" type="line"/>
      <point x="160" y="305" type="line"/>
      <point x="268" y="180" type="line"/>
      <point x="725" y="541" type="line"/>
      <point x="791" y="416" type="line"/>
      <point x="922" y="530" type="line"/>
      <point x="946" y="492" type="line" smooth="yes"/>
      <point x="979" y="440"/>
      <point x="1038" y="410"/>
      <point x="1096" y="410" type="curve" smooth="yes"/>
      <point x="1264" y="410"/>
      <point x="1366" y="561"/>
      <point x="1366" y="801" type="curve" smooth="yes"/>
      <point x="1366" y="1057"/>
      <point x="1219" y="1141"/>
      <point x="991" y="1141" type="curve" smooth="yes"/>
      <point x="678" y="1141" type="line"/>
      <point x="682" y="1171"/>
      <point x="688" y="1202"/>
      <point x="688" y="1243" type="curve" smooth="yes"/>
      <point x="688" y="1370"/>
      <point x="621" y="1477"/>
      <point x="459" y="1477" type="curve" smooth="yes"/>
      <point x="266" y="1477"/>
      <point x="129" y="1350"/>
      <point x="129" y="1114" type="curve" smooth="yes"/>
      <point x="129" y="920"/>
      <point x="240" y="815"/>
      <point x="401" y="815" type="curve" smooth="yes"/>
      <point x="418" y="815" type="line"/>
      <point x="393" y="696" type="line" smooth="yes"/>
      <point x="371" y="590"/>
      <point x="365" y="502"/>
      <point x="365" y="428" type="curve" smooth="yes"/>
      <point x="365" y="131"/>
      <point x="506" y="-14"/>
    </contour>
    <contour>
      <point x="455" y="1141" type="line" smooth="yes"/>
      <point x="381" y="1141"/>
      <point x="352" y="1180"/>
      <point x="352" y="1229" type="curve" smooth="yes"/>
      <point x="352" y="1288"/>
      <point x="389" y="1339"/>
      <point x="444" y="1339" type="curve" smooth="yes"/>
      <point x="483" y="1339"/>
      <point x="506" y="1309"/>
      <point x="506" y="1260" type="curve" smooth="yes"/>
      <point x="506" y="1241"/>
      <point x="504" y="1204"/>
      <point x="496" y="1169" type="curve" smooth="yes"/>
      <point x="489" y="1141" type="line"/>
    </contour>
  </outline>
</glyph>
<glyph name="lbbarsymbol" format="2">
  <advance width="1849"/>
  <unicode hex="2114"/>
  <outline>
    <contour>
      <point x="1266" y="-20" type="curve" smooth="yes"/>
      <point x="1571" y="-20"/>
      <point x="1757" y="344"/>
      <point x="1757" y="686" type="curve" smooth="yes"/>
      <point x="1757" y="969"/>
      <point x="1581" y="1069"/>
      <point x="1430" y="1069" type="curve" smooth="yes"/>
      <point x="1303" y="1069"/>
      <point x="1255" y="1001"/>
      <point x="1202" y="928" type="curve"/>
      <point x="1194" y="928" type="line"/>
      <point x="1223" y="995"/>
      <point x="1278" y="1174"/>
      <point x="1284" y="1217" type="curve" smooth="yes"/>
      <point x="1352" y="1556" type="line"/>
      <point x="967" y="1556" type="line"/>
      <point x="637" y="0" type="line"/>
      <point x="940" y="0" type="line"/>
      <point x="991" y="129" type="line"/>
      <point x="997" y="129" type="line"/>
      <point x="1053" y="53"/>
      <point x="1128" y="-20"/>
    </contour>
    <contour>
      <point x="1174" y="289" type="curve" smooth="yes"/>
      <point x="1133" y="289"/>
      <point x="1096" y="342"/>
      <point x="1096" y="422" type="curve" smooth="yes"/>
      <point x="1096" y="561"/>
      <point x="1167" y="758"/>
      <point x="1280" y="758" type="curve" smooth="yes"/>
      <point x="1335" y="758"/>
      <point x="1364" y="707"/>
      <point x="1364" y="608" type="curve" smooth="yes"/>
      <point x="1364" y="469"/>
      <point x="1274" y="289"/>
    </contour>
    <contour>
      <point x="147" y="1180" type="line"/>
      <point x="1563" y="1180" type="line"/>
      <point x="1618" y="1413" type="line"/>
      <point x="201" y="1413" type="line"/>
    </contour>
    <component base="l"/>
  </outline>
</glyph>
<glyph name="uni2C63" format="2">
  <advance width="1276"/>
  <unicode hex="2C63"/>
  <anchor x="518" y="0" name="bottom"/>
  <anchor x="829" y="1462" name="top"/>
  <outline>
    <contour>
      <point x="33" y="0" type="line"/>
      <point x="424" y="0" type="line"/>
      <point x="516" y="442" type="line"/>
      <point x="602" y="442" type="line" smooth="yes"/>
      <point x="985" y="442"/>
      <point x="1251" y="645"/>
      <point x="1251" y="1024" type="curve" smooth="yes"/>
      <point x="1251" y="1270"/>
      <point x="1102" y="1462"/>
      <point x="715" y="1462" type="curve" smooth="yes"/>
      <point x="342" y="1462" type="line"/>
      <point x="258" y="1061" type="line"/>
      <point x="121" y="1061" type="line"/>
      <point x="76" y="846" type="line"/>
      <point x="211" y="846" type="line"/>
    </contour>
    <contour>
      <point x="586" y="762" type="line"/>
      <point x="604" y="846" type="line"/>
      <point x="725" y="846" type="line"/>
      <point x="770" y="1061" type="line"/>
      <point x="649" y="1061" type="line"/>
      <point x="666" y="1143" type="line"/>
      <point x="725" y="1143" type="line" smooth="yes"/>
      <point x="821" y="1143"/>
      <point x="860" y="1079"/>
      <point x="860" y="997" type="curve" smooth="yes"/>
      <point x="860" y="868"/>
      <point x="776" y="762"/>
      <point x="649" y="762" type="curve" smooth="yes"/>
    </contour>
  </outline>
</glyph>
<glyph name="uni2C64" format="2">
  <advance width="1331"/>
  <unicode hex="2C64"/>
  <anchor x="442" y="-477" name="bottom"/>
  <anchor x="856" y="1462" name="top"/>
  <outline>
    <contour>
      <point x="350" y="-477" type="curve" smooth="yes"/>
      <point x="444" y="-477"/>
      <point x="545" y="-463"/>
      <point x="610" y="-438" type="curve"/>
      <point x="610" y="-152" type="line"/>
      <point x="582" y="-158"/>
      <point x="539" y="-168"/>
      <point x="489" y="-168" type="curve" smooth="yes"/>
      <point x="428" y="-168"/>
      <point x="406" y="-139"/>
      <point x="406" y="-90" type="curve" smooth="yes"/>
      <point x="406" y="-76"/>
      <point x="408" y="-57"/>
      <point x="412" y="-39" type="curve" smooth="yes"/>
      <point x="537" y="532" type="line"/>
      <point x="610" y="532" type="line"/>
      <point x="805" y="0" type="line"/>
      <point x="1231" y="0" type="line"/>
      <point x="967" y="612" type="line"/>
      <point x="1094" y="668"/>
      <point x="1249" y="793"/>
      <point x="1249" y="1061" type="curve" smooth="yes"/>
      <point x="1249" y="1329"/>
      <point x="1065" y="1462"/>
      <point x="729" y="1462" type="curve" smooth="yes"/>
      <point x="342" y="1462" type="line"/>
      <point x="39" y="20" type="line" smooth="yes"/>
      <point x="25" y="-49"/>
      <point x="16" y="-131"/>
      <point x="16" y="-178" type="curve" smooth="yes"/>
      <point x="16" y="-373"/>
      <point x="117" y="-477"/>
    </contour>
    <contour>
      <point x="600" y="829" type="line"/>
      <point x="670" y="1163" type="line"/>
      <point x="723" y="1163" type="line" smooth="yes"/>
      <point x="823" y="1163"/>
      <point x="858" y="1106"/>
      <point x="858" y="1036" type="curve" smooth="yes"/>
      <point x="858" y="887"/>
      <point x="756" y="829"/>
      <point x="651" y="829" type="curve" smooth="yes"/>
    </contour>
  </outline>
</glyph>
<glyph name="uni2C6A" format="2">
  <advance width="1341"/>
  <unicode hex="2C6A"/>
  <anchor x="461" y="-420" name="bottom"/>
  <anchor x="883" y="1556" name="top"/>
  <outline>
    <contour>
      <point x="772" y="-420" type="line"/>
      <point x="1116" y="-420" type="line"/>
      <point x="1268" y="287" type="line"/>
      <point x="1030" y="287" type="line"/>
      <point x="883" y="621" type="line"/>
      <point x="1374" y="1133" type="line"/>
      <point x="932" y="1133" type="line"/>
      <point x="541" y="668" type="line"/>
      <point x="532" y="668" type="line"/>
      <point x="549" y="713"/>
      <point x="580" y="819"/>
      <point x="596" y="893" type="curve" smooth="yes"/>
      <point x="735" y="1556" type="line"/>
      <point x="348" y="1556" type="line"/>
      <point x="23" y="0" type="line"/>
      <point x="410" y="0" type="line"/>
      <point x="479" y="338" type="line"/>
      <point x="580" y="391" type="line"/>
      <point x="719" y="0" type="line"/>
      <point x="862" y="0" type="line"/>
    </contour>
  </outline>
</glyph>
<glyph name="uni2C6C" format="2">
  <advance width="993"/>
  <unicode hex="2C6C"/>
  <anchor x="287" y="-420" name="bottom"/>
  <anchor x="618" y="1133" name="top"/>
  <outline>
    <contour>
      <point x="369" y="-420" type="line"/>
      <point x="713" y="-420" type="line"/>
      <point x="868" y="299" type="line"/>
      <point x="485" y="299" type="line"/>
      <point x="981" y="891" type="line"/>
      <point x="1034" y="1133" type="line"/>
      <point x="223" y="1133" type="line"/>
      <point x="156" y="834" type="line"/>
      <point x="504" y="834" type="line"/>
      <point x="2" y="221" type="line"/>
      <point x="-41" y="0" type="line"/>
      <point x="459" y="0" type="line"/>
    </contour>
  </outline>
</glyph>
<glyph name="uni2C73" format="2">
  <advance width="1808"/>
  <unicode hex="2C73"/>
  <anchor x="743" y="0" name="bottom"/>
  <anchor x="985" y="1133" name="top"/>
  <outline>
    <contour>
      <point x="168" y="0" type="line"/>
      <point x="575" y="0" type="line"/>
      <point x="764" y="487" type="line" smooth="yes"/>
      <point x="797" y="569"/>
      <point x="846" y="723"/>
      <point x="885" y="877" type="curve"/>
      <point x="893" y="877" type="line"/>
      <point x="874" y="748"/>
      <point x="864" y="553"/>
      <point x="860" y="449" type="curve" smooth="yes"/>
      <point x="840" y="0" type="line"/>
      <point x="1262" y="0" type="line"/>
      <point x="1577" y="670" type="line" smooth="yes"/>
      <point x="1651" y="827"/>
      <point x="1700" y="850"/>
      <point x="1749" y="850" type="curve" smooth="yes"/>
      <point x="1772" y="850"/>
      <point x="1794" y="844"/>
      <point x="1808" y="840" type="curve"/>
      <point x="1866" y="1108" type="line"/>
      <point x="1825" y="1122"/>
      <point x="1759" y="1139"/>
      <point x="1671" y="1139" type="curve" smooth="yes"/>
      <point x="1458" y="1139"/>
      <point x="1372" y="1030"/>
      <point x="1290" y="838" type="curve" smooth="yes"/>
      <point x="1233" y="702" type="line" smooth="yes"/>
      <point x="1200" y="627"/>
      <point x="1143" y="465"/>
      <point x="1110" y="362" type="curve"/>
      <point x="1102" y="362" type="line"/>
      <point x="1116" y="453"/>
      <point x="1133" y="616"/>
      <point x="1135" y="657" type="curve" smooth="yes"/>
      <point x="1155" y="1133" type="line"/>
      <point x="727" y="1133" type="line"/>
      <point x="555" y="657" type="line" smooth="yes"/>
      <point x="539" y="612"/>
      <point x="496" y="475"/>
      <point x="467" y="362" type="curve"/>
      <point x="459" y="362" type="line"/>
      <point x="463" y="440"/>
      <point x="469" y="608"/>
      <point x="469" y="702" type="curve" smooth="yes"/>
      <point x="467" y="1133" type="line"/>
      <point x="102" y="1133" type="line"/>
    </contour>
  </outline>
</glyph>
<glyph name="uni2C75" format="2">
  <advance width="1130"/>
  <unicode hex="2C75"/>
  <anchor x="444" y="0" name="bottom"/>
  <anchor x="756" y="1462" name="top"/>
  <outline>
    <contour>
      <point x="33" y="0" type="line"/>
      <point x="424" y="0" type="line"/>
      <point x="551" y="596" type="line"/>
      <point x="1061" y="596" type="line"/>
      <point x="1133" y="920" type="line"/>
      <point x="621" y="920" type="line"/>
      <point x="733" y="1462" type="line"/>
      <point x="342" y="1462" type="line"/>
    </contour>
  </outline>
</glyph>
<glyph name="rightraisedomissionbracket" format="2">
  <advance width="1024"/>
  <unicode hex="2E0D"/>
  <outline>
    <contour>
      <point x="236" y="678" type="line"/>
      <point x="907" y="1350" type="line"/>
      <point x="791" y="1464" type="line"/>
      <point x="117" y="793" type="line"/>
    </contour>
  </outline>
</glyph>
<glyph name="dottedrightpointingangle" format="2">
  <advance width="1159"/>
  <unicode hex="2E16"/>
  <outline>
    <contour>
      <point x="109" y="176" type="line"/>
      <point x="1081" y="627" type="line"/>
      <point x="1081" y="799" type="line"/>
      <point x="109" y="1307" type="line"/>
      <point x="109" y="1008" type="line"/>
      <point x="684" y="725" type="line"/>
      <point x="109" y="473" type="line"/>
    </contour>
    <contour>
      <point x="578" y="-84" type="curve" smooth="yes"/>
      <point x="659" y="-84"/>
      <point x="735" y="-33"/>
      <point x="735" y="86" type="curve" smooth="yes"/>
      <point x="735" y="213"/>
      <point x="659" y="256"/>
      <point x="578" y="256" type="curve" smooth="yes"/>
      <point x="494" y="256"/>
      <point x="422" y="213"/>
      <point x="422" y="86" type="curve" smooth="yes"/>
      <point x="422" y="-33"/>
      <point x="494" y="-84"/>
    </contour>
    <contour>
      <point x="578" y="1188" type="curve" smooth="yes"/>
      <point x="659" y="1188"/>
      <point x="735" y="1239"/>
      <point x="735" y="1358" type="curve" smooth="yes"/>
      <point x="735" y="1485"/>
      <point x="659" y="1528"/>
      <point x="578" y="1528" type="curve" smooth="yes"/>
      <point x="494" y="1528"/>
      <point x="422" y="1485"/>
      <point x="422" y="1358" type="curve" smooth="yes"/>
      <point x="422" y="1239"/>
      <point x="494" y="1188"/>
    </contour>
  </outline>
</glyph>
<glyph name="tildedotabove" format="2">
  <advance width="1159"/>
  <unicode hex="2E1E"/>
  <outline>
    <contour>
      <point x="606" y="1001" type="curve" smooth="yes"/>
      <point x="688" y="1001"/>
      <point x="764" y="1053"/>
      <point x="764" y="1171" type="curve" smooth="yes"/>
      <point x="764" y="1298"/>
      <point x="688" y="1341"/>
      <point x="606" y="1341" type="curve" smooth="yes"/>
      <point x="522" y="1341"/>
      <point x="451" y="1298"/>
      <point x="451" y="1171" type="curve" smooth="yes"/>
      <point x="451" y="1053"/>
      <point x="522" y="1001"/>
    </contour>
    <component base="asciitilde"/>
  </outline>
</glyph>
<glyph name="leftverticalbarwithquill" format="2">
  <advance width="1128"/>
  <unicode hex="2E20"/>
  <outline>
    <contour>
      <point x="309" y="-492" type="line"/>
      <point x="520" y="-492" type="line"/>
      <point x="520" y="436" type="line"/>
      <point x="795" y="436" type="line"/>
      <point x="795" y="627" type="line"/>
      <point x="520" y="627" type="line"/>
      <point x="520" y="1556" type="line"/>
      <point x="309" y="1556" type="line"/>
    </contour>
  </outline>
</glyph>
<glyph name="uniA64A" format="2">
  <advance width="1554"/>
  <unicode hex="A64A"/>
  <outline>
    <contour>
      <point x="709" y="-18" type="curve" smooth="yes"/>
      <point x="1192" y="-18"/>
      <point x="1397" y="217"/>
      <point x="1397" y="518" type="curve" smooth="yes"/>
      <point x="1397" y="776"/>
      <point x="1180" y="946"/>
      <point x="797" y="946" type="curve" smooth="yes"/>
      <point x="295" y="946"/>
      <point x="98" y="705"/>
      <point x="98" y="428" type="curve" smooth="yes"/>
      <point x="98" y="158"/>
      <point x="315" y="-18"/>
    </contour>
    <contour>
      <point x="735" y="260" type="curve" smooth="yes"/>
      <point x="555" y="260"/>
      <point x="475" y="326"/>
      <point x="475" y="438" type="curve" smooth="yes"/>
      <point x="475" y="578"/>
      <point x="578" y="676"/>
      <point x="760" y="676" type="curve" smooth="yes"/>
      <point x="920" y="676"/>
      <point x="1020" y="614"/>
      <point x="1020" y="498" type="curve" smooth="yes"/>
      <point x="1020" y="344"/>
      <point x="926" y="260"/>
    </contour>
    <contour>
      <point x="539" y="381" type="line"/>
      <point x="928" y="381" type="line"/>
      <point x="983" y="643" type="line"/>
      <point x="1583" y="1462" type="line"/>
      <point x="1147" y="1462" type="line"/>
      <point x="840" y="946" type="line"/>
      <point x="758" y="1462" type="line"/>
      <point x="344" y="1462" type="line"/>
      <point x="594" y="641" type="line"/>
    </contour>
  </outline>
</glyph>
<glyph name="uniA66A" format="2">
  <advance width="1651"/>
  <unicode hex="A66A"/>
  <anchor x="705" y="0" name="bottom"/>
  <anchor x="1016" y="1462" name="top"/>
  <outline>
    <contour>
      <point x="791" y="-20" type="curve" smooth="yes"/>
      <point x="1427" y="-20"/>
      <point x="1602" y="465"/>
      <point x="1602" y="854" type="curve" smooth="yes"/>
      <point x="1602" y="1239"/>
      <point x="1389" y="1485"/>
      <point x="946" y="1485" type="curve" smooth="yes"/>
      <point x="297" y="1485"/>
      <point x="121" y="991"/>
      <point x="121" y="618" type="curve" smooth="yes"/>
      <point x="121" y="238"/>
      <point x="338" y="-20"/>
    </contour>
    <contour>
      <point x="686" y="575" type="curve" smooth="yes"/>
      <point x="803" y="575"/>
      <point x="842" y="655"/>
      <point x="842" y="766" type="curve" smooth="yes"/>
      <point x="842" y="872"/>
      <point x="774" y="897"/>
      <point x="711" y="897" type="curve" smooth="yes"/>
      <point x="612" y="897"/>
      <point x="553" y="840"/>
      <point x="553" y="705" type="curve" smooth="yes"/>
      <point x="553" y="604"/>
      <point x="610" y="575"/>
    </contour>
    <contour>
      <point x="819" y="303" type="curve" smooth="yes"/>
      <point x="604" y="303"/>
      <point x="516" y="422"/>
      <point x="516" y="610" type="curve" smooth="yes"/>
      <point x="516" y="834"/>
      <point x="608" y="1161"/>
      <point x="913" y="1161" type="curve" smooth="yes"/>
      <point x="1116" y="1161"/>
      <point x="1206" y="1047"/>
      <point x="1206" y="866" type="curve" smooth="yes"/>
      <point x="1206" y="580"/>
      <point x="1100" y="303"/>
    </contour>
    <contour>
      <point x="1012" y="575" type="curve" smooth="yes"/>
      <point x="1128" y="575"/>
      <point x="1167" y="655"/>
      <point x="1167" y="766" type="curve" smooth="yes"/>
      <point x="1167" y="872"/>
      <point x="1100" y="897"/>
      <point x="1036" y="897" type="curve" smooth="yes"/>
      <point x="938" y="897"/>
      <point x="879" y="840"/>
      <point x="879" y="705" type="curve" smooth="yes"/>
      <point x="879" y="604"/>
      <point x="936" y="575"/>
    </contour>
  </outline>
</glyph>
<glyph name="uniA672" format="2">
  <unicode hex="A672"/>
  <outline>
    <contour>
      <point x="57" y="1190" type="line"/>
      <point x="229" y="1190" type="line"/>
      <point x="281" y="1432" type="line"/>
      <point x="498" y="1432" type="line"/>
      <point x="535" y="1608" type="line"/>
      <point x="317" y="1608" type="line"/>
      <point x="369" y="1853" type="line"/>
      <point x="197" y="1853" type="line"/>
      <point x="145" y="1608" type="line"/>
      <point x="-70" y="1608" type="line"/>
      <point x="-106" y="1432" type="line"/>
      <point x="109" y="1432" type="line"/>
    </contour>
    <contour>
      <point x="-694" y="-791" type="line"/>
      <point x="-518" y="-791" type="line"/>
      <point x="-375" y="-113" type="line"/>
      <point x="-551" y="-113" type="line"/>
    </contour>
    <contour>
      <point x="-1225" y="86" type="line"/>
      <point x="-621" y="86" type="line"/>
      <point x="-584" y="262" type="line"/>
      <point x="-1188" y="262" type="line"/>
    </contour>
    <contour>
      <point x="-362" y="-791" type="line"/>
      <point x="-186" y="-791" type="line"/>
      <point x="-43" y="-113" type="line"/>
      <point x="-219" y="-113" type="line"/>
    </contour>
    <contour>
      <point x="-31" y="-791" type="line"/>
      <point x="147" y="-791" type="line"/>
      <point x="291" y="-113" type="line"/>
      <point x="113" y="-113" type="line"/>
    </contour>
    <contour>
      <point x="-1145" y="465" type="line"/>
      <point x="-541" y="465" type="line"/>
      <point x="-502" y="641" type="line"/>
      <point x="-1106" y="641" type="line"/>
    </contour>
    <contour>
      <point x="-1063" y="844" type="line"/>
      <point x="-459" y="844" type="line"/>
      <point x="-422" y="1020" type="line"/>
      <point x="-1026" y="1020" type="line"/>
    </contour>
    <contour>
      <point x="444" y="86" type="line"/>
      <point x="1049" y="86" type="line"/>
      <point x="1085" y="262" type="line"/>
      <point x="481" y="262" type="line"/>
    </contour>
    <contour>
      <point x="524" y="465" type="line"/>
      <point x="1128" y="465" type="line"/>
      <point x="1167" y="641" type="line"/>
      <point x="563" y="641" type="line"/>
    </contour>
    <contour>
      <point x="606" y="844" type="line"/>
      <point x="1210" y="844" type="line"/>
      <point x="1247" y="1020" type="line"/>
      <point x="643" y="1020" type="line"/>
    </contour>
  </outline>
</glyph>
<glyph name="uniA685" format="2">
  <advance width="2423"/>
  <unicode hex="A685"/>
  <outline>
    <contour>
      <point x="745" y="440" type="line"/>
      <point x="1378" y="440" type="line"/>
      <point x="1438" y="723" type="line"/>
      <point x="807" y="723" type="line"/>
    </contour>
    <component base="afii10073"/>
    <component base="afii10076" xOffset="1145"/>
  </outline>
</glyph>
<glyph name="uniA688" format="2">
  <advance width="2179"/>
  <unicode hex="A688"/>
  <outline>
    <contour>
      <point x="-215" y="-457" type="line"/>
      <point x="166" y="-457" type="line"/>
      <point x="264" y="0" type="line"/>
      <point x="1466" y="0" type="line"/>
      <point x="1534" y="324" type="line"/>
      <point x="1288" y="324" type="line"/>
      <point x="1530" y="1462" type="line"/>
      <point x="631" y="1462" type="line"/>
      <point x="502" y="1010"/>
      <point x="301" y="596"/>
      <point x="125" y="324" type="curve"/>
      <point x="-53" y="324" type="line"/>
    </contour>
    <contour>
      <point x="1634" y="-401" type="curve" smooth="yes"/>
      <point x="1925" y="-401"/>
      <point x="2052" y="-311"/>
      <point x="2052" y="-160" type="curve" smooth="yes"/>
      <point x="2052" y="-76"/>
      <point x="1991" y="-37"/>
      <point x="1915" y="-16" type="curve"/>
      <point x="1915" y="-8" type="line"/>
      <point x="2007" y="16"/>
      <point x="2091" y="61"/>
      <point x="2091" y="170" type="curve" smooth="yes"/>
      <point x="2091" y="285"/>
      <point x="1995" y="352"/>
      <point x="1778" y="352" type="curve" smooth="yes"/>
      <point x="1651" y="352"/>
      <point x="1536" y="328"/>
      <point x="1436" y="295" type="curve"/>
      <point x="1477" y="123" type="line"/>
      <point x="1556" y="156"/>
      <point x="1661" y="182"/>
      <point x="1747" y="182" type="curve" smooth="yes"/>
      <point x="1810" y="182"/>
      <point x="1833" y="162"/>
      <point x="1833" y="135" type="curve" smooth="yes"/>
      <point x="1833" y="96"/>
      <point x="1812" y="70"/>
      <point x="1667" y="70" type="curve" smooth="yes"/>
      <point x="1571" y="70" type="line"/>
      <point x="1536" y="-88" type="line"/>
      <point x="1671" y="-88" type="line" smooth="yes"/>
      <point x="1751" y="-88"/>
      <point x="1782" y="-111"/>
      <point x="1782" y="-147" type="curve" smooth="yes"/>
      <point x="1782" y="-199"/>
      <point x="1737" y="-217"/>
      <point x="1634" y="-217" type="curve" smooth="yes"/>
      <point x="1528" y="-217"/>
      <point x="1419" y="-197"/>
      <point x="1348" y="-166" type="curve"/>
      <point x="1348" y="-350" type="line"/>
      <point x="1409" y="-377"/>
      <point x="1528" y="-401"/>
    </contour>
    <contour>
      <point x="555" y="324" type="line"/>
      <point x="709" y="598"/>
      <point x="821" y="874"/>
      <point x="903" y="1139" type="curve"/>
      <point x="1073" y="1139" type="line"/>
      <point x="897" y="324" type="line"/>
    </contour>
  </outline>
</glyph>
<glyph name="uniA692" format="2">
  <advance width="1720"/>
  <unicode hex="A692"/>
  <outline>
    <contour>
      <point x="1032" y="0" type="line"/>
      <point x="1421" y="0" type="line"/>
      <point x="1731" y="1462" type="line"/>
      <point x="1341" y="1462" type="line"/>
      <point x="1206" y="840" type="line"/>
      <point x="1112" y="795"/>
      <point x="1034" y="770"/>
      <point x="934" y="770" type="curve" smooth="yes"/>
      <point x="854" y="770"/>
      <point x="799" y="813"/>
      <point x="799" y="887" type="curve" smooth="yes"/>
      <point x="799" y="918"/>
      <point x="805" y="950"/>
      <point x="813" y="987" type="curve" smooth="yes"/>
      <point x="911" y="1462" type="line"/>
      <point x="520" y="1462" type="line"/>
      <point x="428" y="995" type="line" smooth="yes"/>
      <point x="416" y="938"/>
      <point x="401" y="866"/>
      <point x="401" y="797" type="curve" smooth="yes"/>
      <point x="401" y="530"/>
      <point x="625" y="457"/>
      <point x="788" y="457" type="curve" smooth="yes"/>
      <point x="903" y="457"/>
      <point x="1030" y="494"/>
      <point x="1145" y="541" type="curve"/>
    </contour>
    <contour>
      <point x="158" y="1143" type="line"/>
      <point x="1137" y="1143" type="line"/>
      <point x="1204" y="1462" type="line"/>
      <point x="229" y="1462" type="line"/>
    </contour>
  </outline>
</glyph>
<glyph name="uniA723" format="2">
  <advance width="588"/>
  <unicode hex="A723"/>
  <outline>
    <contour>
      <point x="199" y="653" type="line"/>
      <point x="254" y="653" type="line" smooth="yes"/>
      <point x="475" y="653"/>
      <point x="612" y="797"/>
      <point x="612" y="985" type="curve" smooth="yes"/>
      <point x="612" y="1116"/>
      <point x="532" y="1221"/>
      <point x="381" y="1221" type="curve" smooth="yes"/>
      <point x="262" y="1221" type="line"/>
      <point x="209" y="985" type="line"/>
      <point x="295" y="985" type="line" smooth="yes"/>
      <point x="373" y="985"/>
      <point x="399" y="948"/>
      <point x="399" y="901" type="curve" smooth="yes"/>
      <point x="399" y="815"/>
      <point x="336" y="776"/>
      <point x="254" y="776" type="curve" smooth="yes"/>
      <point x="223" y="776" type="line"/>
    </contour>
    <contour>
      <point x="57" y="-4" type="line"/>
      <point x="84" y="-4" type="line" smooth="yes"/>
      <point x="285" y="-4"/>
      <point x="408" y="102"/>
      <point x="408" y="297" type="curve" smooth="yes"/>
      <point x="408" y="414"/>
      <point x="328" y="504"/>
      <point x="170" y="504" type="curve" smooth="yes"/>
      <point x="111" y="504" type="line"/>
      <point x="61" y="268" type="line"/>
      <point x="131" y="268" type="line" smooth="yes"/>
      <point x="188" y="268"/>
      <point x="213" y="244"/>
      <point x="213" y="207" type="curve" smooth="yes"/>
      <point x="213" y="156"/>
      <point x="170" y="121"/>
      <point x="102" y="121" type="curve" smooth="yes"/>
      <point x="82" y="121" type="line"/>
    </contour>
  </outline>
</glyph>
<glyph name="uniA731" format="2">
  <advance width="963"/>
  <unicode hex="A731"/>
  <outline>
    <contour>
      <point x="379" y="-16" type="curve" smooth="yes"/>
      <point x="680" y="-16"/>
      <point x="817" y="125"/>
      <point x="817" y="354" type="curve" smooth="yes"/>
      <point x="817" y="481"/>
      <point x="760" y="571"/>
      <point x="631" y="662" type="curve" smooth="yes"/>
      <point x="543" y="719"/>
      <point x="489" y="752"/>
      <point x="489" y="809" type="curve" smooth="yes"/>
      <point x="489" y="856"/>
      <point x="516" y="887"/>
      <point x="596" y="887" type="curve" smooth="yes"/>
      <point x="664" y="887"/>
      <point x="733" y="879"/>
      <point x="840" y="834" type="curve"/>
      <point x="948" y="1069" type="line"/>
      <point x="838" y="1130"/>
      <point x="721" y="1155"/>
      <point x="592" y="1155" type="curve" smooth="yes"/>
      <point x="313" y="1155"/>
      <point x="158" y="993"/>
      <point x="158" y="799" type="curve" smooth="yes"/>
      <point x="158" y="631"/>
      <point x="279" y="532"/>
      <point x="371" y="465" type="curve" smooth="yes"/>
      <point x="453" y="403"/>
      <point x="489" y="375"/>
      <point x="489" y="328" type="curve" smooth="yes"/>
      <point x="489" y="270"/>
      <point x="453" y="246"/>
      <point x="379" y="246" type="curve" smooth="yes"/>
      <point x="264" y="246"/>
      <point x="152" y="279"/>
      <point x="29" y="346" type="curve"/>
      <point x="25" y="61" type="line"/>
      <point x="100" y="16"/>
      <point x="260" y="-16"/>
    </contour>
  </outline>
</glyph>
<glyph name="uniA740" format="2">
  <advance width="1370"/>
  <unicode hex="A740"/>
  <anchor x="598" y="0" name="bottom"/>
  <anchor x="897" y="1462" name="top"/>
  <outline>
    <contour>
      <point x="158" y="1106" type="line"/>
      <point x="766" y="1106" type="line"/>
      <point x="811" y="1337" type="line"/>
      <point x="203" y="1337" type="line"/>
    </contour>
    <component base="K"/>
  </outline>
</glyph>
<glyph name="uniA775" format="2">
  <advance width="1380"/>
  <unicode hex="A775"/>
  <outline>
    <contour>
      <point x="25" y="0" type="line"/>
      <point x="410" y="0" type="line"/>
      <point x="522" y="532" type="line" smooth="yes"/>
      <point x="571" y="766"/>
      <point x="795" y="801"/>
      <point x="1026" y="801" type="curve" smooth="yes"/>
      <point x="1174" y="801"/>
      <point x="1325" y="780"/>
      <point x="1389" y="762" type="curve"/>
      <point x="1466" y="1133" type="line"/>
      <point x="1343" y="1147"/>
      <point x="1260" y="1153"/>
      <point x="1102" y="1153" type="curve" smooth="yes"/>
      <point x="899" y="1153"/>
      <point x="682" y="1075"/>
      <point x="561" y="944" type="curve"/>
      <point x="553" y="944" type="line"/>
      <point x="571" y="1133" type="line"/>
      <point x="262" y="1133" type="line"/>
    </contour>
    <contour>
      <point x="692" y="473" type="line"/>
      <point x="920" y="473" type="line"/>
      <point x="1409" y="1427" type="line"/>
      <point x="1182" y="1427" type="line"/>
    </contour>
  </outline>
</glyph>
<glyph name="uniA776" format="2">
  <advance width="1700"/>
  <unicode hex="A776"/>
  <outline>
    <contour>
      <point x="895" y="-322" type="line"/>
      <point x="1120" y="-322" type="line"/>
      <point x="1565" y="602" type="line"/>
      <point x="1343" y="602" type="line"/>
    </contour>
    <contour>
      <point x="799" y="0" type="line"/>
      <point x="1554" y="0" type="line"/>
      <point x="1620" y="285" type="line"/>
      <point x="864" y="285" type="line"/>
    </contour>
    <component base="uni0280"/>
  </outline>
</glyph>
<glyph name="uniA78F" format="2">
  <advance width="879"/>
  <unicode hex="A78F"/>
  <outline>
    <contour>
      <point x="440" y="434" type="curve" smooth="yes"/>
      <point x="649" y="434"/>
      <point x="801" y="561"/>
      <point x="801" y="756" type="curve" smooth="yes"/>
      <point x="801" y="918"/>
      <point x="686" y="1014"/>
      <point x="514" y="1014" type="curve" smooth="yes"/>
      <point x="242" y="1014"/>
      <point x="147" y="840"/>
      <point x="147" y="682" type="curve" smooth="yes"/>
      <point x="147" y="567"/>
      <point x="217" y="434"/>
    </contour>
  </outline>
</glyph>
<glyph name="uniA790" format="2">
  <advance width="1618"/>
  <unicode hex="A790"/>
  <outline>
    <contour>
      <point x="1096" y="-434" type="line"/>
      <point x="1485" y="-434" type="line"/>
      <point x="1645" y="299" type="line"/>
      <point x="1382" y="299" type="line"/>
      <point x="1190" y="0" type="line"/>
    </contour>
    <component base="N"/>
  </outline>
</glyph>
<glyph name="uniA795" format="2">
  <advance width="1272"/>
  <unicode hex="A795"/>
  <anchor x="530" y="0" name="bottom"/>
  <anchor x="543" y="1556" name="top"/>
  <outline>
    <contour>
      <point x="739" y="-512" type="curve" smooth="yes"/>
      <point x="928" y="-512"/>
      <point x="1057" y="-401"/>
      <point x="1118" y="-129" type="curve" smooth="yes"/>
      <point x="1204" y="270" type="line"/>
      <point x="1040" y="270" type="line"/>
      <point x="883" y="170" type="line"/>
      <point x="815" y="-125" type="line" smooth="yes"/>
      <point x="793" y="-223"/>
      <point x="756" y="-252"/>
      <point x="694" y="-252" type="curve" smooth="yes"/>
      <point x="662" y="-252"/>
      <point x="633" y="-246"/>
      <point x="604" y="-238" type="curve"/>
      <point x="600" y="-494" type="line"/>
      <point x="637" y="-506"/>
      <point x="684" y="-512"/>
    </contour>
    <component base="h"/>
  </outline>
</glyph>
<glyph name="uniA796" format="2">
  <advance width="1659"/>
  <unicode hex="A796"/>
  <outline>
    <contour>
      <point x="45" y="389" type="curve"/>
      <point x="303" y="389" type="line"/>
      <point x="303" y="403"/>
      <point x="301" y="430"/>
      <point x="301" y="457" type="curve" smooth="yes"/>
      <point x="301" y="555"/>
      <point x="348" y="612"/>
      <point x="508" y="612" type="curve" smooth="yes"/>
      <point x="727" y="612" type="line"/>
      <point x="786" y="901" type="line"/>
      <point x="528" y="901" type="line" smooth="yes"/>
      <point x="217" y="901"/>
      <point x="37" y="793"/>
      <point x="37" y="494" type="curve" smooth="yes"/>
      <point x="37" y="461"/>
      <point x="39" y="418"/>
    </contour>
    <component base="B" xOffset="360"/>
  </outline>
</glyph>
<glyph name="uniA79B" format="2">
  <advance width="1327"/>
  <unicode hex="A79B"/>
  <outline>
    <contour>
      <point x="428" y="-20" type="curve" smooth="yes"/>
      <point x="602" y="-20"/>
      <point x="698" y="39"/>
      <point x="758" y="123" type="curve"/>
      <point x="766" y="123" type="line"/>
      <point x="756" y="0" type="line"/>
      <point x="1065" y="0" type="line"/>
      <point x="1305" y="1133" type="line"/>
      <point x="995" y="1133" type="line"/>
      <point x="942" y="993" type="line"/>
      <point x="934" y="993" type="line"/>
      <point x="885" y="1069"/>
      <point x="803" y="1153"/>
      <point x="575" y="1153" type="curve" smooth="yes"/>
      <point x="336" y="1153"/>
      <point x="195" y="1028"/>
      <point x="195" y="836" type="curve" smooth="yes"/>
      <point x="195" y="719"/>
      <point x="266" y="647"/>
      <point x="375" y="608" type="curve"/>
      <point x="375" y="600" type="line"/>
      <point x="141" y="565"/>
      <point x="37" y="449"/>
      <point x="37" y="283" type="curve" smooth="yes"/>
      <point x="37" y="80"/>
      <point x="201" y="-20"/>
    </contour>
    <contour>
      <point x="575" y="279" type="curve" smooth="yes"/>
      <point x="467" y="279"/>
      <point x="438" y="324"/>
      <point x="438" y="360" type="curve" smooth="yes"/>
      <point x="438" y="422"/>
      <point x="506" y="461"/>
      <point x="629" y="461" type="curve" smooth="yes"/>
      <point x="690" y="461" type="line"/>
      <point x="743" y="715" type="line"/>
      <point x="711" y="715" type="line" smooth="yes"/>
      <point x="596" y="715"/>
      <point x="563" y="745"/>
      <point x="563" y="791" type="curve" smooth="yes"/>
      <point x="563" y="848"/>
      <point x="625" y="870"/>
      <point x="674" y="870" type="curve" smooth="yes"/>
      <point x="801" y="868"/>
      <point x="844" y="772"/>
      <point x="844" y="698" type="curve" smooth="yes"/>
      <point x="844" y="657"/>
      <point x="840" y="614"/>
      <point x="831" y="573" type="curve" smooth="yes"/>
      <point x="801" y="393"/>
      <point x="729" y="279"/>
    </contour>
  </outline>
</glyph>
<glyph name="uniA7A9" format="2">
  <advance width="1028"/>
  <unicode hex="A7A9"/>
  <anchor x="393" y="0" name="bottom"/>
  <anchor x="594" y="1133" name="top"/>
  <outline>
    <contour>
      <point x="-25" y="410" type="line"/>
      <point x="1001" y="549" type="line"/>
      <point x="1051" y="788" type="line"/>
      <point x="27" y="649" type="line"/>
    </contour>
    <component base="s"/>
  </outline>
</glyph>
<glyph name="uniA7B3" format="2">
  <advance width="1260"/>
  <unicode hex="A7B3"/>
  <outline>
    <contour>
      <point x="-303" y="-492" type="line"/>
      <point x="121" y="-492" type="line"/>
      <point x="512" y="137" type="line"/>
      <point x="530" y="-16" type="line" smooth="yes"/>
      <point x="571" y="-358"/>
      <point x="641" y="-492"/>
      <point x="864" y="-492" type="curve" smooth="yes"/>
      <point x="924" y="-492"/>
      <point x="999" y="-479"/>
      <point x="1116" y="-440" type="curve"/>
      <point x="1116" y="-158" type="line"/>
      <point x="1069" y="-172"/>
      <point x="1047" y="-174"/>
      <point x="1024" y="-174" type="curve" smooth="yes"/>
      <point x="956" y="-174"/>
      <point x="934" y="-121"/>
      <point x="920" y="-12" type="curve" smooth="yes"/>
      <point x="840" y="557" type="line"/>
      <point x="1477" y="1464" type="line"/>
      <point x="1055" y="1462" type="line"/>
      <point x="772" y="1001" type="line"/>
      <point x="762" y="1090" type="line" smooth="yes"/>
      <point x="731" y="1346"/>
      <point x="645" y="1485"/>
      <point x="395" y="1485" type="curve" smooth="yes"/>
      <point x="283" y="1485"/>
      <point x="201" y="1475"/>
      <point x="115" y="1440" type="curve"/>
      <point x="178" y="1147" type="line"/>
      <point x="213" y="1161"/>
      <point x="244" y="1169"/>
      <point x="289" y="1169" type="curve" smooth="yes"/>
      <point x="369" y="1169"/>
      <point x="391" y="1092"/>
      <point x="403" y="985" type="curve" smooth="yes"/>
      <point x="442" y="594" type="line"/>
    </contour>
  </outline>
</glyph>
<glyph name="uniA7B4" format="2">
  <advance width="1298"/>
  <unicode hex="A7B4"/>
  <outline>
    <contour>
      <point x="-74" y="-492" type="line"/>
      <point x="319" y="-492" type="line"/>
      <point x="424" y="0" type="line"/>
      <point x="580" y="0" type="line" smooth="yes"/>
      <point x="905" y="0"/>
      <point x="1165" y="137"/>
      <point x="1165" y="479" type="curve" smooth="yes"/>
      <point x="1165" y="618"/>
      <point x="1090" y="719"/>
      <point x="973" y="758" type="curve"/>
      <point x="973" y="766" type="line"/>
      <point x="1163" y="823"/>
      <point x="1270" y="944"/>
      <point x="1270" y="1143" type="curve" smooth="yes"/>
      <point x="1270" y="1329"/>
      <point x="1143" y="1462"/>
      <point x="829" y="1462" type="curve" smooth="yes"/>
      <point x="342" y="1462" type="line"/>
    </contour>
    <contour>
      <point x="489" y="305" type="line"/>
      <point x="555" y="612" type="line"/>
      <point x="623" y="612" type="line" smooth="yes"/>
      <point x="733" y="612"/>
      <point x="772" y="567"/>
      <point x="772" y="475" type="curve" smooth="yes"/>
      <point x="772" y="381"/>
      <point x="690" y="305"/>
      <point x="571" y="305" type="curve" smooth="yes"/>
    </contour>
    <contour>
      <point x="614" y="901" type="line"/>
      <point x="674" y="1163" type="line"/>
      <point x="737" y="1163" type="line" smooth="yes"/>
      <point x="823" y="1163"/>
      <point x="864" y="1126"/>
      <point x="864" y="1061" type="curve" smooth="yes"/>
      <point x="864" y="967"/>
      <point x="823" y="901"/>
      <point x="686" y="901" type="curve" smooth="yes"/>
    </contour>
  </outline>
</glyph>
<glyph name="uniAB4C" format="2">
  <advance width="1317"/>
  <unicode hex="AB4C"/>
  <outline>
    <contour>
      <point x="766" y="-20" type="curve" smooth="yes"/>
      <point x="1075" y="-20"/>
      <point x="1221" y="174"/>
      <point x="1221" y="414" type="curve" smooth="yes"/>
      <point x="1221" y="621"/>
      <point x="1094" y="717"/>
      <point x="932" y="717" type="curve" smooth="yes"/>
      <point x="877" y="717"/>
      <point x="834" y="705"/>
      <point x="805" y="688" type="curve"/>
      <point x="899" y="1149" type="line"/>
      <point x="780" y="1112"/>
      <point x="666" y="1096"/>
      <point x="524" y="1096" type="curve" smooth="yes"/>
      <point x="393" y="1096"/>
      <point x="270" y="1114"/>
      <point x="147" y="1149" type="curve"/>
      <point x="88" y="868" type="line"/>
      <point x="205" y="838"/>
      <point x="309" y="821"/>
      <point x="442" y="821" type="curve" smooth="yes"/>
      <point x="446" y="821"/>
      <point x="449" y="821"/>
      <point x="451" y="821" type="curve"/>
      <point x="389" y="524" type="line" smooth="yes"/>
      <point x="371" y="438"/>
      <point x="365" y="393"/>
      <point x="365" y="330" type="curve" smooth="yes"/>
      <point x="365" y="121"/>
      <point x="504" y="-20"/>
    </contour>
    <contour>
      <point x="813" y="229" type="curve" smooth="yes"/>
      <point x="750" y="229"/>
      <point x="731" y="281"/>
      <point x="731" y="324" type="curve" smooth="yes"/>
      <point x="731" y="350"/>
      <point x="733" y="383"/>
      <point x="752" y="442" type="curve"/>
      <point x="770" y="451"/>
      <point x="803" y="459"/>
      <point x="834" y="459" type="curve" smooth="yes"/>
      <point x="897" y="459"/>
      <point x="918" y="420"/>
      <point x="918" y="365" type="curve" smooth="yes"/>
      <point x="918" y="287"/>
      <point x="872" y="229"/>
    </contour>
  </outline>
</glyph>
<glyph name="uniAB5B" format="2">
  <advance width="1135"/>
  <unicode hex="AB5B"/>
  <outline>
    <contour>
      <point x="756" y="1241" type="curve" smooth="yes"/>
      <point x="1032" y="1241"/>
      <point x="1169" y="1370"/>
      <point x="1210" y="1612" type="curve"/>
      <point x="989" y="1612" type="line"/>
      <point x="954" y="1505"/>
      <point x="874" y="1483"/>
      <point x="788" y="1483" type="curve" smooth="yes"/>
      <point x="690" y="1483"/>
      <point x="625" y="1526"/>
      <point x="625" y="1612" type="curve"/>
      <point x="408" y="1612" type="line"/>
      <point x="403" y="1602"/>
      <point x="399" y="1581"/>
      <point x="399" y="1556" type="curve" smooth="yes"/>
      <point x="399" y="1366"/>
      <point x="526" y="1241"/>
    </contour>
    <contour>
      <point x="674" y="1135" type="curve" smooth="yes"/>
      <point x="397" y="1135"/>
      <point x="260" y="1006"/>
      <point x="219" y="764" type="curve"/>
      <point x="440" y="764" type="line"/>
      <point x="475" y="870"/>
      <point x="555" y="893"/>
      <point x="641" y="893" type="curve" smooth="yes"/>
      <point x="739" y="893"/>
      <point x="805" y="850"/>
      <point x="805" y="764" type="curve"/>
      <point x="1022" y="764" type="line"/>
      <point x="1026" y="774"/>
      <point x="1030" y="795"/>
      <point x="1030" y="819" type="curve" smooth="yes"/>
      <point x="1030" y="1010"/>
      <point x="903" y="1135"/>
    </contour>
  </outline>
</glyph>
<glyph name="uniAB64" format="2">
  <advance width="1311"/>
  <unicode hex="AB64"/>
  <anchor x="502" y="0" name="bottom"/>
  <anchor x="743" y="1133" name="top"/>
  <anchor x="1323" y="1133" name="topright"/>
  <outline>
    <contour>
      <point x="406" y="-20" type="curve" smooth="yes"/>
      <point x="539" y="-20"/>
      <point x="614" y="39"/>
      <point x="674" y="123" type="curve"/>
      <point x="682" y="123" type="line"/>
      <point x="672" y="0" type="line"/>
      <point x="981" y="0" type="line"/>
      <point x="1141" y="756" type="line" smooth="yes"/>
      <point x="1153" y="813"/>
      <point x="1184" y="840"/>
      <point x="1231" y="840" type="curve" smooth="yes"/>
      <point x="1257" y="840"/>
      <point x="1280" y="836"/>
      <point x="1292" y="831" type="curve"/>
      <point x="1356" y="1120" type="line"/>
      <point x="1313" y="1137"/>
      <point x="1235" y="1151"/>
      <point x="1141" y="1151" type="curve" smooth="yes"/>
      <point x="995" y="1151"/>
      <point x="903" y="1096"/>
      <point x="858" y="993" type="curve"/>
      <point x="850" y="993" type="line"/>
      <point x="795" y="1090"/>
      <point x="717" y="1153"/>
      <point x="588" y="1153" type="curve" smooth="yes"/>
      <point x="244" y="1153"/>
      <point x="84" y="688"/>
      <point x="84" y="412" type="curve" smooth="yes"/>
      <point x="84" y="90"/>
      <point x="231" y="-20"/>
    </contour>
    <contour>
      <point x="565" y="291" type="curve" smooth="yes"/>
      <point x="508" y="291"/>
      <point x="479" y="342"/>
      <point x="479" y="434" type="curve" smooth="yes"/>
      <point x="479" y="629"/>
      <point x="571" y="842"/>
      <point x="678" y="842" type="curve" smooth="yes"/>
      <point x="733" y="842"/>
      <point x="760" y="784"/>
      <point x="760" y="698" type="curve" smooth="yes"/>
      <point x="760" y="657"/>
      <point x="756" y="614"/>
      <point x="748" y="573" type="curve" smooth="yes"/>
      <point x="719" y="428"/>
      <point x="653" y="291"/>
    </contour>
  </outline>
</glyph>
<glyph name="bracketleft.sc" format="2">
  <advance width="676"/>
  <outline>
    <contour>
      <point x="-51" y="-293" type="line"/>
      <point x="442" y="-293" type="line"/>
      <point x="492" y="-47" type="line"/>
      <point x="307" y="-47" type="line"/>
      <point x="537" y="1016" type="line"/>
      <point x="721" y="1016" type="line"/>
      <point x="772" y="1262" type="line"/>
      <point x="279" y="1262" type="line"/>
    </contour>
  </outline>
</glyph>
<glyph name="brevecomb.sc" format="2">
  <advance width="1135"/>
  <anchor x="733" y="1210" name="_top"/>
  <anchor x="815" y="1704" name="top"/>
  <outline>
    <contour>
      <point x="762" y="1333" type="curve" smooth="yes"/>
      <point x="1038" y="1333"/>
      <point x="1176" y="1462"/>
      <point x="1217" y="1704" type="curve"/>
      <point x="995" y="1704" type="line"/>
      <point x="961" y="1597"/>
      <point x="881" y="1575"/>
      <point x="795" y="1575" type="curve" smooth="yes"/>
      <point x="696" y="1575"/>
      <point x="631" y="1618"/>
      <point x="631" y="1704" type="curve"/>
      <point x="414" y="1704" type="line"/>
      <point x="410" y="1694"/>
      <point x="406" y="1673"/>
      <point x="406" y="1649" type="curve" smooth="yes"/>
      <point x="406" y="1458"/>
      <point x="532" y="1333"/>
    </contour>
  </outline>
</glyph>
<glyph name="cyrillic_otmark" format="2">
  <advance width="1229"/>
  <outline>
    <contour>
      <point x="422" y="1257" type="line"/>
      <point x="492" y="1257" type="line"/>
      <point x="563" y="1360" type="line"/>
      <point x="696" y="1360" type="line"/>
      <point x="723" y="1257" type="line"/>
      <point x="793" y="1257" type="line"/>
      <point x="864" y="1360" type="line"/>
      <point x="997" y="1360" type="line"/>
      <point x="1024" y="1257" type="line"/>
      <point x="1094" y="1257" type="line"/>
      <point x="1212" y="1430" type="line"/>
      <point x="1241" y="1556" type="line"/>
      <point x="408" y="1556" type="line"/>
      <point x="379" y="1430" type="line"/>
    </contour>
  </outline>
</glyph>
<glyph name="dieresiscaron" format="2">
  <outline>
    <contour>
      <point x="-4" y="1626" type="curve"/>
      <point x="442" y="1626" type="line"/>
      <point x="522" y="1704"/>
      <point x="649" y="1819"/>
      <point x="752" y="1892" type="curve"/>
      <point x="752" y="1913" type="line"/>
      <point x="477" y="1913" type="line"/>
      <point x="393" y="1866"/>
      <point x="313" y="1812"/>
      <point x="238" y="1761" type="curve"/>
      <point x="201" y="1800"/>
      <point x="127" y="1878"/>
      <point x="82" y="1913" type="curve"/>
      <point x="-184" y="1913" type="line"/>
      <point x="-184" y="1892" type="line"/>
      <point x="-123" y="1823"/>
      <point x="-45" y="1706"/>
    </contour>
    <contour>
      <point x="-57" y="1268" type="curve" smooth="yes"/>
      <point x="82" y="1268"/>
      <point x="129" y="1337"/>
      <point x="129" y="1444" type="curve" smooth="yes"/>
      <point x="129" y="1542"/>
      <point x="47" y="1561"/>
      <point x="-29" y="1561" type="curve" smooth="yes"/>
      <point x="-145" y="1561"/>
      <point x="-215" y="1509"/>
      <point x="-215" y="1386" type="curve" smooth="yes"/>
      <point x="-215" y="1292"/>
      <point x="-147" y="1268"/>
    </contour>
    <contour>
      <point x="393" y="1268" type="curve" smooth="yes"/>
      <point x="532" y="1268"/>
      <point x="578" y="1337"/>
      <point x="578" y="1444" type="curve" smooth="yes"/>
      <point x="578" y="1542"/>
      <point x="498" y="1561"/>
      <point x="422" y="1561" type="curve" smooth="yes"/>
      <point x="305" y="1561"/>
      <point x="236" y="1509"/>
      <point x="236" y="1386" type="curve" smooth="yes"/>
      <point x="236" y="1292"/>
      <point x="303" y="1268"/>
    </contour>
  </outline>
</glyph>
<glyph name="e.sc" format="2">
  <advance width="1026"/>
  <anchor x="385" y="0" name="bottom"/>
  <anchor x="643" y="1210" name="top"/>
  <anchor x="1114" y="1210" name="topright"/>
  <outline>
    <contour>
      <point x="16" y="0" type="line"/>
      <point x="803" y="0" type="line"/>
      <point x="860" y="266" type="line"/>
      <point x="465" y="266" type="line"/>
      <point x="512" y="492" type="line"/>
      <point x="881" y="492" type="line"/>
      <point x="940" y="756" type="line"/>
      <point x="573" y="756" type="line"/>
      <point x="612" y="946" type="line"/>
      <point x="1008" y="946" type="line"/>
      <point x="1059" y="1210" type="line"/>
      <point x="272" y="1210" type="line"/>
    </contour>
  </outline>
</glyph>
<glyph name="eight.osf" format="2">
  <advance width="1206"/>
  <outline>
    <contour>
      <point x="547" y="-20" type="curve" smooth="yes"/>
      <point x="874" y="-20"/>
      <point x="1075" y="143"/>
      <point x="1075" y="420" type="curve" smooth="yes"/>
      <point x="1075" y="575"/>
      <point x="1010" y="688"/>
      <point x="887" y="782" type="curve"/>
      <point x="1069" y="842"/>
      <point x="1167" y="995"/>
      <point x="1167" y="1151" type="curve" smooth="yes"/>
      <point x="1167" y="1341"/>
      <point x="1014" y="1485"/>
      <point x="735" y="1485" type="curve" smooth="yes"/>
      <point x="406" y="1485"/>
      <point x="236" y="1290"/>
      <point x="236" y="1065" type="curve" smooth="yes"/>
      <point x="236" y="907"/>
      <point x="309" y="821"/>
      <point x="391" y="756" type="curve"/>
      <point x="176" y="680"/>
      <point x="59" y="541"/>
      <point x="59" y="338" type="curve" smooth="yes"/>
      <point x="59" y="141"/>
      <point x="227" y="-20"/>
    </contour>
    <contour>
      <point x="557" y="262" type="curve" smooth="yes"/>
      <point x="492" y="262"/>
      <point x="424" y="303"/>
      <point x="424" y="385" type="curve" smooth="yes"/>
      <point x="424" y="483"/>
      <point x="498" y="557"/>
      <point x="594" y="608" type="curve"/>
      <point x="668" y="559"/>
      <point x="713" y="494"/>
      <point x="713" y="414" type="curve" smooth="yes"/>
      <point x="713" y="317"/>
      <point x="643" y="262"/>
    </contour>
    <contour>
      <point x="684" y="930" type="curve"/>
      <point x="633" y="954"/>
      <point x="598" y="1012"/>
      <point x="598" y="1065" type="curve" smooth="yes"/>
      <point x="598" y="1143"/>
      <point x="653" y="1202"/>
      <point x="717" y="1202" type="curve" smooth="yes"/>
      <point x="766" y="1202"/>
      <point x="811" y="1169"/>
      <point x="811" y="1104" type="curve" smooth="yes"/>
      <point x="811" y="1040"/>
      <point x="770" y="963"/>
    </contour>
  </outline>
</glyph>
<glyph name="h.sc" format="2">
  <advance width="1288"/>
  <anchor x="516" y="0" name="bottom"/>
  <anchor x="666" y="614" name="center"/>
  <anchor x="774" y="1210" name="top"/>
  <anchor x="1376" y="1210" name="topright"/>
  <outline>
    <contour>
      <point x="16" y="0" type="line"/>
      <point x="408" y="0" type="line"/>
      <point x="510" y="467" type="line"/>
      <point x="737" y="467" type="line"/>
      <point x="639" y="0" type="line"/>
      <point x="1030" y="0" type="line"/>
      <point x="1286" y="1210" type="line"/>
      <point x="895" y="1210" type="line"/>
      <point x="807" y="786" type="line"/>
      <point x="575" y="786" type="line"/>
      <point x="664" y="1210" type="line"/>
      <point x="272" y="1210" type="line"/>
    </contour>
  </outline>
</glyph>
<glyph name="i_sc.salt" format="2">
  <advance width="676"/>
  <anchor x="213" y="0" name="bottom"/>
  <anchor x="471" y="1210" name="top"/>
  <anchor x="772" y="1210" name="topright"/>
  <outline>
    <contour>
      <point x="14" y="0" type="line"/>
      <point x="406" y="0" type="line"/>
      <point x="676" y="1210" type="line"/>
      <point x="285" y="1210" type="line"/>
    </contour>
  </outline>
</glyph>
<glyph name="o.sc" format="2">
  <advance width="1321"/>
  <anchor x="532" y="0" name="bottom"/>
  <anchor x="791" y="606" name="center"/>
  <anchor x="791" y="1210" name="top"/>
  <anchor x="1409" y="1210" name="topright"/>
  <outline>
    <contour>
      <point x="567" y="-16" type="curve" smooth="yes"/>
      <point x="1047" y="-16"/>
      <point x="1251" y="401"/>
      <point x="1251" y="762" type="curve" smooth="yes"/>
      <point x="1251" y="1042"/>
      <point x="1087" y="1229"/>
      <point x="764" y="1229" type="curve" smooth="yes"/>
      <point x="276" y="1229"/>
      <point x="70" y="817"/>
      <point x="70" y="457" type="curve" smooth="yes"/>
      <point x="70" y="172"/>
      <point x="233" y="-16"/>
    </contour>
    <contour>
      <point x="602" y="303" type="curve" smooth="yes"/>
      <point x="506" y="303"/>
      <point x="463" y="352"/>
      <point x="463" y="455" type="curve" smooth="yes"/>
      <point x="463" y="657"/>
      <point x="571" y="907"/>
      <point x="733" y="907" type="curve" smooth="yes"/>
      <point x="817" y="907"/>
      <point x="860" y="854"/>
      <point x="860" y="756" type="curve" smooth="yes"/>
      <point x="860" y="506"/>
      <point x="739" y="303"/>
    </contour>
  </outline>
</glyph>
<glyph name="one.osf" format="2">
  <advance width="1008"/>
  <outline>
    <contour>
      <point x="313" y="0" type="line"/>
      <point x="700" y="0" type="line"/>
      <point x="940" y="1141" type="line"/>
      <point x="578" y="1141" type="line"/>
      <point x="16" y="795" type="line"/>
      <point x="176" y="535" type="line"/>
      <point x="350" y="645" type="line" smooth="yes"/>
      <point x="391" y="672"/>
      <point x="457" y="717"/>
      <point x="485" y="743" type="curve"/>
      <point x="459" y="664"/>
      <point x="430" y="551"/>
      <point x="412" y="461" type="curve" smooth="yes"/>
    </contour>
  </outline>
</glyph>
<glyph name="s.sc" format="2">
  <advance width="999"/>
  <anchor x="371" y="0" name="bottom"/>
  <anchor x="629" y="1210" name="top"/>
  <anchor x="1087" y="1210" name="topright"/>
  <outline>
    <contour>
      <point x="377" y="-16" type="curve" smooth="yes"/>
      <point x="692" y="-16"/>
      <point x="862" y="137"/>
      <point x="862" y="377" type="curve" smooth="yes"/>
      <point x="862" y="502"/>
      <point x="813" y="612"/>
      <point x="674" y="719" type="curve" smooth="yes"/>
      <point x="571" y="797"/>
      <point x="543" y="815"/>
      <point x="543" y="862" type="curve" smooth="yes"/>
      <point x="543" y="895"/>
      <point x="569" y="915"/>
      <point x="621" y="915" type="curve" smooth="yes"/>
      <point x="692" y="915"/>
      <point x="786" y="883"/>
      <point x="872" y="840" type="curve"/>
      <point x="1004" y="1133" type="line"/>
      <point x="893" y="1192"/>
      <point x="750" y="1227"/>
      <point x="612" y="1227" type="curve" smooth="yes"/>
      <point x="334" y="1227"/>
      <point x="156" y="1059"/>
      <point x="156" y="842" type="curve" smooth="yes"/>
      <point x="156" y="696"/>
      <point x="227" y="590"/>
      <point x="350" y="500" type="curve" smooth="yes"/>
      <point x="414" y="453"/>
      <point x="469" y="414"/>
      <point x="469" y="360" type="curve" smooth="yes"/>
      <point x="469" y="322"/>
      <point x="446" y="301"/>
      <point x="385" y="301" type="curve" smooth="yes"/>
      <point x="285" y="301"/>
      <point x="133" y="356"/>
      <point x="35" y="418" type="curve"/>
      <point x="39" y="72" type="line"/>
      <point x="121" y="16"/>
      <point x="248" y="-16"/>
    </contour>
  </outline>
</glyph>
<glyph name="uni1DA4dotless" format="2">
  <advance width="432"/>
  <anchor x="248" y="588" name="bottom"/>
  <anchor x="399" y="1268" name="top"/>
  <outline>
    <contour>
      <point x="123" y="588" type="line"/>
      <point x="375" y="588" type="line"/>
      <point x="438" y="858" type="line"/>
      <point x="537" y="858" type="line"/>
      <point x="571" y="995" type="line"/>
      <point x="469" y="995" type="line"/>
      <point x="532" y="1268" type="line"/>
      <point x="279" y="1268" type="line"/>
      <point x="217" y="995" type="line"/>
      <point x="115" y="995" type="line"/>
      <point x="82" y="858" type="line"/>
      <point x="186" y="858" type="line"/>
    </contour>
  </outline>
</glyph>
<glyph name="uni1FCD02C9" format="2">
  <advance width="877"/>
  <anchor x="569" y="1133" name="_top"/>
  <anchor x="621" y="1909" name="top"/>
  <outline>
    <contour>
      <point x="317" y="1516" type="line"/>
      <point x="516" y="1516"/>
      <point x="645" y="1616"/>
      <point x="645" y="1763" type="curve" smooth="yes"/>
      <point x="645" y="1847"/>
      <point x="598" y="1909"/>
      <point x="504" y="1909" type="curve" smooth="yes"/>
      <point x="428" y="1909"/>
      <point x="375" y="1864"/>
      <point x="375" y="1802" type="curve" smooth="yes"/>
      <point x="375" y="1737"/>
      <point x="418" y="1702"/>
      <point x="485" y="1690" type="curve"/>
      <point x="475" y="1640"/>
      <point x="430" y="1616"/>
      <point x="338" y="1606" type="curve"/>
    </contour>
    <contour>
      <point x="250" y="1241" type="line"/>
      <point x="918" y="1241" type="line"/>
      <point x="967" y="1477" type="line"/>
      <point x="301" y="1477" type="line"/>
    </contour>
    <contour>
      <point x="823" y="1534" type="curve"/>
      <point x="977" y="1534" type="line"/>
      <point x="983" y="1563" type="line"/>
      <point x="961" y="1647"/>
      <point x="948" y="1782"/>
      <point x="948" y="1886" type="curve"/>
      <point x="680" y="1886" type="line"/>
      <point x="676" y="1864" type="line"/>
      <point x="696" y="1769"/>
      <point x="756" y="1636"/>
    </contour>
  </outline>
</glyph>
<glyph name="uni1FCD0306" format="2">
  <advance width="819"/>
  <anchor x="545" y="1133" name="_top"/>
  <anchor x="616" y="1923" name="top"/>
  <outline>
    <contour>
      <point x="559" y="1188" type="curve" smooth="yes"/>
      <point x="846" y="1188"/>
      <point x="979" y="1300"/>
      <point x="1022" y="1499" type="curve"/>
      <point x="817" y="1499" type="line"/>
      <point x="780" y="1405"/>
      <point x="698" y="1386"/>
      <point x="594" y="1386" type="curve" smooth="yes"/>
      <point x="479" y="1386"/>
      <point x="410" y="1423"/>
      <point x="410" y="1499" type="curve"/>
      <point x="209" y="1499" type="line"/>
      <point x="209" y="1300"/>
      <point x="336" y="1188"/>
    </contour>
    <contour>
      <point x="287" y="1530" type="line"/>
      <point x="485" y="1530"/>
      <point x="614" y="1630"/>
      <point x="614" y="1778" type="curve" smooth="yes"/>
      <point x="614" y="1862"/>
      <point x="567" y="1923"/>
      <point x="473" y="1923" type="curve" smooth="yes"/>
      <point x="397" y="1923"/>
      <point x="344" y="1878"/>
      <point x="344" y="1817" type="curve" smooth="yes"/>
      <point x="344" y="1751"/>
      <point x="387" y="1716"/>
      <point x="455" y="1704" type="curve"/>
      <point x="444" y="1655"/>
      <point x="399" y="1630"/>
      <point x="307" y="1620" type="curve"/>
    </contour>
    <contour>
      <point x="793" y="1548" type="curve"/>
      <point x="946" y="1548" type="line"/>
      <point x="952" y="1577" type="line"/>
      <point x="930" y="1661"/>
      <point x="918" y="1796"/>
      <point x="918" y="1901" type="curve"/>
      <point x="649" y="1901" type="line"/>
      <point x="645" y="1878" type="line"/>
      <point x="666" y="1784"/>
      <point x="725" y="1651"/>
    </contour>
  </outline>
</glyph>
<glyph name="uniA7F7.salt" format="2">
  <advance width="1571"/>
  <outline>
    <contour>
      <point x="100" y="367" type="line"/>
      <point x="315" y="367" type="line"/>
      <point x="461" y="547" type="line"/>
      <point x="1098" y="547" type="line"/>
      <point x="1167" y="367" type="line"/>
      <point x="1380" y="367" type="line"/>
      <point x="1544" y="1116" type="line"/>
      <point x="1331" y="1116" type="line"/>
      <point x="1186" y="934" type="line"/>
      <point x="549" y="934" type="line"/>
      <point x="481" y="1116" type="line"/>
      <point x="264" y="1116" type="line"/>
    </contour>
  </outline>
</glyph>
<glyph name="uogonek.loclNAV" format="2">
  <advance width="1274"/>
  <anchor x="397" y="-524" name="bottom"/>
  <anchor x="743" y="1133" name="top"/>
  <outline>
    <contour>
      <point x="489" y="-524" type="curve" smooth="yes"/>
      <point x="575" y="-524"/>
      <point x="629" y="-512"/>
      <point x="688" y="-494" type="curve"/>
      <point x="688" y="-272" type="line"/>
      <point x="647" y="-287"/>
      <point x="614" y="-297"/>
      <point x="571" y="-297" type="curve" smooth="yes"/>
      <point x="537" y="-297"/>
      <point x="518" y="-272"/>
      <point x="518" y="-213" type="curve" smooth="yes"/>
      <point x="518" y="-117"/>
      <point x="584" y="-4"/>
      <point x="664" y="96" type="curve"/>
      <point x="483" y="96" type="line"/>
      <point x="356" y="-25"/>
      <point x="240" y="-137"/>
      <point x="240" y="-297" type="curve" smooth="yes"/>
      <point x="240" y="-449"/>
      <point x="340" y="-524"/>
    </contour>
    <component base="u"/>
  </outline>
</glyph>
